<svg width="10" height="16" viewBox="0 0 10 16" fill="none" xmlns="http://www.w3.org/2000/svg">
<path d="M8.29411 10.29L6.00411 12.59V1C6.00411 0.734784 5.89876 0.48043 5.71122 0.292893C5.52368 0.105357 5.26933 0 5.00411 0C4.7389 0 4.48454 0.105357 4.29701 0.292893C4.10947 0.48043 4.00411 0.734784 4.00411 1V12.59L1.71411 10.29C1.52581 10.1017 1.27041 9.99591 1.00411 9.99591C0.737811 9.99591 0.482416 10.1017 0.294113 10.29C0.105809 10.4783 2.09808e-05 10.7337 2.09808e-05 11C2.09808e-05 11.2663 0.105809 11.5217 0.294113 11.71L4.29411 15.71C4.38922 15.801 4.50136 15.8724 4.62411 15.92C4.74381 15.9729 4.87324 16.0002 5.00411 16.0002C5.13498 16.0002 5.26441 15.9729 5.38411 15.92C5.50686 15.8724 5.61901 15.801 5.71411 15.71L9.71411 11.71C9.90242 11.5217 10.0082 11.2663 10.0082 11C10.0082 10.7337 9.90242 10.4783 9.71411 10.29C9.62087 10.1968 9.51018 10.1228 9.38836 10.0723C9.26654 10.0219 9.13597 9.99591 9.00411 9.99591C8.73781 9.99591 8.48242 10.1017 8.29411 10.29Z" fill="white" fill-opacity="0.5"/>
</svg>
