<svg width="7" height="11" viewBox="0 0 7 11" fill="none" xmlns="http://www.w3.org/2000/svg">
<path d="M1.7103 10.487L5.9503 6.19701C6.04402 6.10405 6.11842 5.99344 6.16919 5.87159C6.21996 5.74973 6.24609 5.61902 6.24609 5.48701C6.24609 5.355 6.21996 5.22429 6.16919 5.10243C6.11842 4.98057 6.04402 4.86997 5.9503 4.77701L1.7103 0.537009C1.61733 0.443281 1.50673 0.368886 1.38487 0.318117C1.26301 0.267349 1.13231 0.241211 1.0003 0.241211C0.868284 0.241211 0.737578 0.267349 0.615719 0.318117C0.49386 0.368886 0.383259 0.443281 0.290296 0.537009C0.104044 0.724371 -0.000496897 0.977823 -0.000496908 1.24201C-0.00049692 1.50619 0.104044 1.75965 0.290296 1.94701L3.8303 5.48701L0.290295 9.02701C0.105551 9.21327 0.00140007 9.46467 0.000295224 9.72701C-0.000465813 9.85862 0.0247589 9.98908 0.0745235 10.1109C0.124288 10.2328 0.197614 10.3436 0.290295 10.437C0.379913 10.5341 0.487879 10.6124 0.607955 10.6675C0.72803 10.7227 0.857835 10.7534 0.989871 10.7581C1.12191 10.7627 1.25355 10.7412 1.37721 10.6946C1.50086 10.6481 1.61407 10.5775 1.7103 10.487Z" fill="white"/>
</svg>
