<svg width="10" height="14" viewBox="0 0 10 14" fill="none" xmlns="http://www.w3.org/2000/svg">
<path d="M8.98413 5.50667C8.93062 5.42751 8.85848 5.3627 8.77406 5.31794C8.68963 5.27319 8.59551 5.24986 8.49996 5.25H6.74996V4.08334H8.03329C8.188 4.08334 8.33637 4.02188 8.44577 3.91248C8.55517 3.80309 8.61663 3.65471 8.61663 3.5V1.16667C8.61663 1.01196 8.55517 0.863586 8.44577 0.75419C8.33637 0.644794 8.188 0.583336 8.03329 0.583336H6.16663C5.26931 0.583336 4.40875 0.939793 3.77425 1.57429C3.13975 2.20879 2.78329 3.06935 2.78329 3.96667V5.25H1.49996C1.34525 5.25 1.19688 5.31146 1.08748 5.42086C0.978084 5.53025 0.916626 5.67863 0.916626 5.83334V8.16667C0.916626 8.32138 0.978084 8.46975 1.08748 8.57915C1.19688 8.68855 1.34525 8.75 1.49996 8.75H2.78329V12.8333C2.78329 12.988 2.84475 13.1364 2.95415 13.2458C3.06354 13.3552 3.21192 13.4167 3.36663 13.4167H6.16663C6.32133 13.4167 6.46971 13.3552 6.5791 13.2458C6.6885 13.1364 6.74996 12.988 6.74996 12.8333V8.75H7.56662C7.68345 8.75012 7.79763 8.71515 7.89435 8.64962C7.99108 8.5841 8.0659 8.49104 8.10913 8.3825L9.04246 6.04917C9.07769 5.96084 9.0908 5.86523 9.08063 5.77068C9.07046 5.67613 9.03733 5.58549 8.98413 5.50667ZM7.16996 7.58334H6.16663C6.01192 7.58334 5.86354 7.64479 5.75415 7.75419C5.64475 7.86359 5.58329 8.01196 5.58329 8.16667V12.25H3.94996V8.16667C3.94996 8.01196 3.8885 7.86359 3.7791 7.75419C3.66971 7.64479 3.52134 7.58334 3.36663 7.58334H2.08329V6.41667H3.36663C3.52134 6.41667 3.66971 6.35521 3.7791 6.24582C3.8885 6.13642 3.94996 5.98805 3.94996 5.83334V3.96667C3.9515 3.37925 4.18553 2.81632 4.60091 2.40095C5.01628 1.98558 5.5792 1.75154 6.16663 1.75H7.44996V2.91667H6.98329C6.78579 2.8879 6.58447 2.89997 6.39182 2.95215C6.19917 3.00432 6.01928 3.09549 5.86329 3.22C5.76863 3.31911 5.69502 3.43636 5.64689 3.56469C5.59877 3.69301 5.57714 3.82976 5.58329 3.96667V5.83334C5.58329 5.98805 5.64475 6.13642 5.75415 6.24582C5.86354 6.35521 6.01192 6.41667 6.16663 6.41667H7.63663L7.16996 7.58334Z" fill="#919191"/>
</svg>
