<svg width="64" height="68" viewBox="0 0 64 68" fill="none" xmlns="http://www.w3.org/2000/svg">
<path d="M13.9167 12.5556L1 19.7778V42.8889M13.9167 12.5556L38.4583 19.7778M13.9167 12.5556V35.6667M38.4583 19.7778V9.66667L50.0833 1L63 9.66667V22.6667M38.4583 19.7778V22.6667M38.4583 47.2222L50.0833 39.2778L63 47.2222V22.6667M38.4583 47.2222V66L13.9167 58.0556M38.4583 47.2222V42.8889M13.9167 58.0556L1 66V42.8889M13.9167 58.0556V35.6667M1 42.8889L13.9167 35.6667M13.9167 35.6667L38.4583 42.8889M38.4583 22.6667L50.0833 14L63 22.6667M38.4583 22.6667V42.8889" stroke="white" stroke-width="1.5"/>
</svg>
