<svg width="65" height="65" viewBox="0 0 65 65" fill="none" xmlns="http://www.w3.org/2000/svg">
<path d="M51.266 31.5053L64 36.8105V64H51.266M51.266 31.5053V22.2211L38.5319 16.9158M51.266 31.5053L38.5319 36.8105M51.266 31.5053V64M38.5319 16.9158V6.96842L25.7979 1M38.5319 16.9158L25.7979 22.2211M38.5319 16.9158V36.8105M25.7979 1L13.0638 6.96842V40.7895M25.7979 1V22.2211M13.0638 40.7895L1 46.0947V64H25.7979M13.0638 40.7895L25.7979 46.0947M25.7979 64H38.5319M25.7979 64V46.0947M25.7979 22.2211V46.0947M38.5319 64V36.8105M38.5319 64H51.266" stroke="white" stroke-width="1.5"/>
</svg>
