<svg width="12" height="12" viewBox="0 0 12 12" fill="none" xmlns="http://www.w3.org/2000/svg">
<path d="M5.99996 3.08333C5.4231 3.08333 4.85919 3.25439 4.37955 3.57488C3.8999 3.89537 3.52607 4.35089 3.30531 4.88384C3.08455 5.41679 3.0268 6.00324 3.13934 6.56901C3.25188 7.13479 3.52966 7.65449 3.93756 8.0624C4.34547 8.4703 4.86517 8.74809 5.43095 8.86063C5.99672 8.97317 6.58317 8.91541 7.11612 8.69465C7.64907 8.47389 8.10459 8.10006 8.42508 7.62041C8.74557 7.14077 8.91663 6.57686 8.91663 6C8.91663 5.22645 8.60933 4.48459 8.06235 3.93761C7.51537 3.39063 6.77351 3.08333 5.99996 3.08333ZM5.99996 7.75C5.65384 7.75 5.3155 7.64737 5.02771 7.45507C4.73992 7.26278 4.51562 6.98947 4.38317 6.6697C4.25072 6.34993 4.21606 5.99806 4.28358 5.65859C4.35111 5.31913 4.51778 5.00731 4.76252 4.76256C5.00726 4.51782 5.31908 4.35115 5.65855 4.28363C5.99802 4.2161 6.34988 4.25076 6.66966 4.38321C6.98943 4.51567 7.26274 4.73997 7.45503 5.02775C7.64732 5.31554 7.74996 5.65388 7.74996 6C7.74996 6.46413 7.56558 6.90925 7.2374 7.23744C6.90921 7.56563 6.46409 7.75 5.99996 7.75ZM8.91663 2.5C8.80125 2.5 8.68847 2.53421 8.59254 2.59831C8.49661 2.66241 8.42185 2.75351 8.3777 2.8601C8.33354 2.96669 8.32199 3.08398 8.3445 3.19714C8.36701 3.31029 8.42257 3.41423 8.50415 3.49581C8.58573 3.57739 8.68967 3.63295 8.80282 3.65546C8.91598 3.67797 9.03327 3.66642 9.13986 3.62226C9.24645 3.57811 9.33755 3.50335 9.40165 3.40742C9.46575 3.31149 9.49996 3.19871 9.49996 3.08333C9.49996 2.92862 9.4385 2.78025 9.32911 2.67086C9.21971 2.56146 9.07133 2.5 8.91663 2.5ZM11.7983 3.80667C11.7886 3.30816 11.6939 2.81497 11.5183 2.34833C11.3554 1.92371 11.1051 1.53808 10.7835 1.21649C10.4619 0.894904 10.0763 0.644544 9.65163 0.481668C9.18499 0.306026 8.6918 0.211332 8.19329 0.201668C7.62746 0.166668 7.44079 0.166668 5.99996 0.166668C4.55913 0.166668 4.37246 0.166668 3.80663 0.201668C3.30812 0.211332 2.81493 0.306026 2.34829 0.481668C1.92366 0.644544 1.53804 0.894904 1.21645 1.21649C0.894862 1.53808 0.644502 1.92371 0.481626 2.34833C0.305984 2.81497 0.21129 3.30816 0.201626 3.80667C0.166626 4.37833 0.166626 4.565 0.166626 6C0.166626 7.435 0.166626 7.62167 0.201626 8.19333C0.21129 8.69184 0.305984 9.18503 0.481626 9.65167C0.644502 10.0763 0.894862 10.4619 1.21645 10.7835C1.53804 11.1051 1.92366 11.3555 2.34829 11.5183C2.81493 11.694 3.30812 11.7887 3.80663 11.7983C4.38996 11.7983 4.55913 11.8333 5.99996 11.8333C7.44079 11.8333 7.62746 11.8333 8.19329 11.7983C8.6918 11.7887 9.18499 11.694 9.65163 11.5183C10.0763 11.3555 10.4619 11.1051 10.7835 10.7835C11.1051 10.4619 11.3554 10.0763 11.5183 9.65167C11.6939 9.18503 11.7886 8.69184 11.7983 8.19333C11.7983 7.61 11.8333 7.435 11.8333 6C11.8333 4.565 11.8333 4.37833 11.7983 3.80667ZM10.6316 8.14083C10.6214 8.51102 10.5525 8.87725 10.4275 9.22583C10.3241 9.50137 10.1607 9.75044 9.94913 9.955C9.74579 10.1667 9.49622 10.3284 9.21996 10.4275C8.87055 10.5576 8.50188 10.6286 8.12913 10.6375C7.58079 10.6375 7.41163 10.6667 5.99413 10.6667C4.57663 10.6667 4.41329 10.6667 3.86496 10.6667C3.4928 10.6571 3.12456 10.5881 2.77413 10.4625C2.49859 10.3591 2.24952 10.1957 2.04496 9.98417C1.8333 9.78083 1.67158 9.53126 1.57246 9.255C1.44285 8.90746 1.37188 8.5408 1.36246 8.17C1.36246 7.58667 1.36246 7.44083 1.36246 6.02917C1.36246 4.6175 1.36246 4.44833 1.36246 3.88833C1.37251 3.51571 1.44345 3.14723 1.57246 2.7975C1.67312 2.5237 1.83469 2.27636 2.04496 2.07417C2.24829 1.86251 2.49786 1.70079 2.77413 1.60167C3.12354 1.47152 3.4922 1.40055 3.86496 1.39167C4.41329 1.33333 4.58246 1.33333 5.99996 1.33333C7.41746 1.33333 7.58663 1.33333 8.13496 1.33333C8.50954 1.34286 8.88002 1.4138 9.23163 1.54333C9.50542 1.64399 9.75276 1.80556 9.95496 2.01583C10.1666 2.21917 10.3283 2.46874 10.4275 2.745C10.5703 3.1 10.6512 3.47684 10.6666 3.85917C10.6666 4.4425 10.6958 4.58833 10.6958 6C10.6958 7.41167 10.6666 7.58083 10.6666 8.14083H10.6316Z" fill="#919191"/>
</svg>
