<svg width="16" height="18" viewBox="0 0 16 18" fill="none" xmlns="http://www.w3.org/2000/svg">
<path d="M13.8658 5.99832L4.80958 0.458317C4.31953 0.156477 3.76332 -0.00164499 3.19744 1.29041e-05C2.63157 0.0016708 2.07618 0.163049 1.5877 0.467756C1.09921 0.772464 0.695033 1.20964 0.416212 1.73489C0.137391 2.26014 -0.00613872 2.85475 0.000201292 3.45832V14.5783C0.000201292 15.4854 0.338002 16.3552 0.93929 16.9966C1.54058 17.638 2.3561 17.9983 3.20645 17.9983C3.76936 17.9973 4.32216 17.8387 4.80958 17.5383L13.8658 11.9983C14.3524 11.6979 14.7564 11.2663 15.0373 10.7468C15.3182 10.2272 15.466 9.63804 15.466 9.03832C15.466 8.43859 15.3182 7.84941 15.0373 7.32988C14.7564 6.81035 14.3524 6.37873 13.8658 6.07832V5.99832ZM12.9283 10.1883L3.87208 15.8083C3.66909 15.931 3.43976 15.9955 3.20645 15.9955C2.97314 15.9955 2.74381 15.931 2.54083 15.8083C2.33842 15.6837 2.17034 15.5044 2.0535 15.2885C1.93665 15.0725 1.87516 14.8276 1.8752 14.5783V3.41832C1.87516 3.16901 1.93665 2.92409 2.0535 2.70818C2.17034 2.49226 2.33842 2.31297 2.54083 2.18832C2.74464 2.06747 2.97329 2.00221 3.20645 1.99832C3.43945 2.00342 3.66783 2.06861 3.87208 2.18832L12.9283 7.76832C13.1308 7.89292 13.299 8.07219 13.4159 8.28811C13.5328 8.50402 13.5943 8.74897 13.5943 8.99832C13.5943 9.24766 13.5328 9.49261 13.4159 9.70853C13.299 9.92445 13.1308 10.1037 12.9283 10.2283V10.1883Z" fill="#1C6BCF"/>
</svg>
