<svg width="233" height="191" viewBox="0 0 203 191" fill="none" xmlns="http://www.w3.org/2000/svg">
<path d="M30.4962 155.267L45.8227 155.267L45.8227 155.089L30.6638 155.089L30.6638 131.67L73.7368 131.67L73.7368 155.089L53.4787 155.089L53.4787 155.267L73.9043 155.267L73.9043 131.491L30.4962 131.491L30.4962 155.267Z" fill="white"/>
<path d="M53.4796 155.267L73.9052 155.267L73.9052 131.67L78.3706 131.67L78.3706 119.836L78.203 119.836L78.203 131.491L73.7376 131.491L73.7376 155.089L53.4796 155.089L53.4796 155.267Z" fill="white"/>
<path d="M1.2784 155.267L45.8302 155.267L45.8302 155.089L1.43867 155.089C0.666518 133.799 1.9996 112.462 5.40144 91.677C8.12583 75.0257 12.1687 58.6929 17.428 43.1217C24.5595 22.0026 32.6162 6.54787 35.9233 1.2409L61.3387 17.8767L61.3388 44.0152L61.5064 44.0152L61.5063 17.7757L35.8723 1.00003L35.8286 1.06996C32.5433 6.307 24.443 21.8239 17.2751 43.0518C12.0157 58.6308 7.96556 74.9791 5.24117 91.6381C1.83204 112.462 0.498957 133.845 1.2784 155.174L1.2784 155.267Z" fill="white"/>
<path d="M46.5084 131.67L78.3706 131.67L78.3706 43.9219L46.5084 43.9219L46.5084 113.247L54.055 113.247L54.055 125.718L46.5084 125.718L46.5084 131.67ZM78.203 131.491L46.6759 131.491L46.6759 125.904L54.2299 125.904L54.2299 113.076L46.6832 113.076L46.6832 44.1007L78.2103 44.1007L78.2103 131.491L78.203 131.491Z" fill="white"/>
<path d="M78.2905 120.029L78.191 120.029L78.191 119.929L78.191 119.75L78.191 119.651L78.2905 119.651L99.5854 119.651L99.5854 78.4974L78.2905 78.4974L78.191 78.4974L78.191 78.3978L78.191 78.2191L78.191 78.1195L78.2905 78.1195L99.8525 78.1195L99.9521 78.1195L99.9521 78.2191L99.9521 119.929L99.9521 120.029L99.8525 120.029L78.2905 120.029Z" fill="white" stroke="white" stroke-width="0.199146"/>
<path d="M30.4887 108.39L46.5947 108.39L46.5947 108.212L30.6636 108.212C30.7874 106.013 33.0529 66.9914 41.1751 44.1007L46.5874 44.1007L46.5874 43.922L41.0585 43.922L41.0367 43.9763C32.696 67.4342 30.5106 107.885 30.4887 108.289L30.4887 108.39Z" fill="white"/>
<path d="M46.5081 44.1007L61.4995 44.1007L61.4995 30.1457L46.5081 30.1457L46.5081 44.1007ZM61.332 43.922L46.6756 43.922L46.6756 30.3244L61.332 30.3244L61.332 43.922Z" fill="white"/>
<path d="M47.8043 130.255L77.0806 130.255L77.0806 45.3361L47.8043 45.3361L47.8043 113.153L47.9718 113.153L47.9718 45.5148L76.913 45.5148L76.913 130.077L47.9718 130.077L47.9718 125.811L47.8043 125.811L47.8043 130.255Z" fill="white"/>
<path d="M30.5769 137.256L73.8247 137.256L73.8247 137.435L30.5769 137.435L30.5769 137.256Z" fill="white"/>
<path d="M47.8045 42.4923L60.21 42.4923L60.21 31.7463L47.8045 31.7463L47.8045 42.4923ZM60.0424 42.3136L47.9721 42.3136L47.9721 31.925L60.0424 31.925L60.0424 42.3136Z" fill="white"/>
<path d="M77.0007 68.2812L79.7324 68.2812L79.7324 68.4599L77.0007 68.4599L77.0007 68.2812Z" fill="white"/>
<path d="M45.1453 125.718L47.877 125.718L47.877 125.896L45.1453 125.896L45.1453 125.718Z" fill="white"/>
<path d="M53.2382 152.447L53.4058 152.447L53.4058 155.361L53.2382 155.361L53.2382 152.447Z" fill="white"/>
<path d="M45.8236 152.447L45.9912 152.447L45.9912 155.361L45.8236 155.361L45.8236 152.447Z" fill="white"/>
<path d="M45.1453 113.192L47.877 113.192L47.877 113.371L45.1453 113.371L45.1453 113.192Z" fill="white"/>
<path d="M45.2332 119.439L47.9648 119.439L47.9648 119.618L45.2332 119.618L45.2332 119.439Z" fill="white"/>
<path d="M77.0007 62.7023L79.7324 62.7023L79.7324 62.881L77.0007 62.881L77.0007 62.7023Z" fill="white"/>
<path d="M78.2759 78.188L110.655 78.188L110.655 12.0801L78.2759 12.0801L78.2759 78.188ZM110.495 78.0093L78.4507 78.0093L78.4507 12.2588L110.495 12.2588L110.495 78.0093Z" fill="white"/>
<path d="M78.3633 75.2276L110.575 75.2276L110.575 75.4064L78.3633 75.4064L78.3633 75.2276Z" fill="white"/>
<path d="M78.3633 72.3527L110.575 72.3527L110.575 72.5314L78.3633 72.5314L78.3633 72.3527Z" fill="white"/>
<path d="M78.3633 69.47L110.575 69.47L110.575 69.6487L78.3633 69.6487L78.3633 69.47Z" fill="white"/>
<path d="M78.3633 66.5873L110.575 66.5873L110.575 66.766L78.3633 66.766L78.3633 66.5873Z" fill="white"/>
<path d="M78.3633 63.7046L110.575 63.7046L110.575 63.8833L78.3633 63.8833L78.3633 63.7046Z" fill="white"/>
<path d="M78.3633 60.8219L110.575 60.8219L110.575 61.0006L78.3633 61.0006L78.3633 60.8219Z" fill="white"/>
<path d="M78.3633 57.9392L110.575 57.9392L110.575 58.1179L78.3633 58.1179L78.3633 57.9392Z" fill="white"/>
<path d="M78.3633 55.0643L110.575 55.0642L110.575 55.243L78.3633 55.243L78.3633 55.0643Z" fill="white"/>
<path d="M78.3633 52.1816L110.575 52.1816L110.575 52.3603L78.3633 52.3603L78.3633 52.1816Z" fill="white"/>
<path d="M78.3633 49.2988L110.575 49.2988L110.575 49.4776L78.3633 49.4776L78.3633 49.2988Z" fill="white"/>
<path d="M78.3633 46.4161L110.575 46.4161L110.575 46.5948L78.3633 46.5948L78.3633 46.4161Z" fill="white"/>
<path d="M78.3633 43.5335L110.575 43.5335L110.575 43.7122L78.3633 43.7122L78.3633 43.5335Z" fill="white"/>
<path d="M78.3633 40.6508L110.575 40.6507L110.575 40.8295L78.3633 40.8295L78.3633 40.6508Z" fill="white"/>
<path d="M78.3633 37.7758L110.575 37.7758L110.575 37.9545L78.3633 37.9545L78.3633 37.7758Z" fill="white"/>
<path d="M78.3633 34.8931L110.575 34.8931L110.575 35.0718L78.3633 35.0718L78.3633 34.8931Z" fill="white"/>
<path d="M78.3633 32.0104L110.575 32.0104L110.575 32.1891L78.3633 32.1891L78.3633 32.0104Z" fill="white"/>
<path d="M78.3633 29.1276L110.575 29.1276L110.575 29.3063L78.3633 29.3063L78.3633 29.1276Z" fill="white"/>
<path d="M78.3633 26.245L110.575 26.245L110.575 26.4237L78.3633 26.4237L78.3633 26.245Z" fill="white"/>
<path d="M78.3633 23.3623L110.575 23.3623L110.575 23.541L78.3633 23.541L78.3633 23.3623Z" fill="white"/>
<path d="M78.3633 20.4873L110.575 20.4873L110.575 20.6661L78.3633 20.6661L78.3633 20.4873Z" fill="white"/>
<path d="M78.3633 17.6047L110.575 17.6047L110.575 17.7834L78.3633 17.7834L78.3633 17.6047Z" fill="white"/>
<path d="M78.3633 14.722L110.575 14.722L110.575 14.9007L78.3633 14.9007L78.3633 14.722Z" fill="white"/>
<path d="M107.785 12.1656L107.953 12.1656L107.953 78.0948L107.785 78.0948L107.785 12.1656Z" fill="white"/>
<path d="M105.081 12.1656L105.249 12.1656L105.249 78.0948L105.081 78.0948L105.081 12.1656Z" fill="white"/>
<path d="M102.379 12.1656L102.547 12.1656L102.547 78.0948L102.379 78.0948L102.379 12.1656Z" fill="white"/>
<path d="M99.685 12.1656L99.8525 12.1656L99.8525 78.0948L99.685 78.0948L99.685 12.1656Z" fill="white"/>
<path d="M96.9824 12.1656L97.1499 12.1656L97.1499 78.0948L96.9824 78.0948L96.9824 12.1656Z" fill="white"/>
<path d="M94.2797 12.1656L94.4473 12.1656L94.4473 78.0948L94.2797 78.0948L94.2797 12.1656Z" fill="white"/>
<path d="M91.5771 12.1656L91.7446 12.1656L91.7446 78.0948L91.5771 78.0948L91.5771 12.1656Z" fill="white"/>
<path d="M88.8749 12.1656L89.0425 12.1656L89.0425 78.0948L88.8749 78.0948L88.8749 12.1656Z" fill="white"/>
<path d="M86.1723 12.1656L86.3398 12.1656L86.3398 78.0948L86.1723 78.0948L86.1723 12.1656Z" fill="white"/>
<path d="M83.477 12.1656L83.6445 12.1656L83.6445 78.0948L83.477 78.0948L83.477 12.1656Z" fill="white"/>
<path d="M80.7744 12.1656L80.9419 12.1656L80.9419 78.0948L80.7744 78.0948L80.7744 12.1656Z" fill="white"/>
<path d="M1.2784 155.267L30.6639 155.267L30.6639 144.77L10.0708 144.77C9.78666 138.585 9.91778 121.903 12.4018 102.439C14.2375 88.0872 17.0347 74.2875 20.7352 61.4202C25.3463 45.3672 31.3632 30.7439 38.6186 17.9311L61.5063 30.371L61.5063 17.7757L35.8723 1.00003L35.8286 1.06996C32.4996 6.32254 24.29 21.8627 17.0638 43.0984C11.7607 58.6852 7.70333 75.0412 5.0008 91.6925C1.62081 112.516 0.375128 133.876 1.2784 155.182L1.2784 155.267ZM30.4964 155.089L1.43868 155.089C0.542685 133.822 1.79565 112.509 5.16107 91.7314C7.8636 75.0878 11.9138 58.7473 17.2168 43.1683C24.4066 22.0414 32.5652 6.55564 35.9233 1.2409L61.3387 17.8767L61.3388 30.0912L38.5603 17.7135L38.5166 17.7834C31.2321 30.6196 25.1933 45.2895 20.575 61.3814C16.8745 74.2564 14.0699 88.0639 12.2415 102.431C9.74294 121.996 9.62639 138.748 9.91049 144.871L9.91781 144.956L30.5037 144.956L30.5037 155.089L30.4964 155.089Z" fill="white"/>
<path d="M66.4531 190.202L83.0034 190.202L83.0034 177.311L66.4531 177.311L66.4531 190.202ZM82.8359 190.023L66.6206 190.023L66.6206 177.49L82.8359 177.49L82.8359 190.023Z" fill="white"/>
<path d="M74.6409 176.06L83.0034 176.06L83.0034 167.28L74.6481 167.28L74.6481 176.06L74.6409 176.06ZM82.8359 175.881L74.8157 175.881L74.8157 167.459L82.8359 167.459L82.8359 175.881Z" fill="white"/>
<path d="M74.6409 166.355L83.0034 166.355L83.0034 157.575L74.6481 157.575L74.6481 166.355L74.6409 166.355ZM82.8359 166.177L74.8157 166.177L74.8157 157.754L82.8359 157.754L82.8359 166.177Z" fill="white"/>
<path d="M84.7877 183.945L84.6882 183.945L84.6882 183.846L84.6882 133.402L84.6882 133.303L84.7877 133.303L99.8447 133.303L99.9443 133.303L99.9443 133.402L99.9443 183.846L99.9443 183.945L99.8447 183.945L84.7877 183.945ZM85.0622 133.681L85.0622 183.567L99.5849 183.567L99.5849 133.681L85.0622 133.681Z" fill="white" stroke="white" stroke-width="0.199146"/>
<path d="M86.1056 182.564L98.6641 182.564L98.6641 134.793L86.1056 134.793L86.1056 182.564ZM98.5038 182.385L86.2805 182.385L86.2805 134.972L98.5038 134.972L98.5038 182.385Z" fill="white"/>
<path d="M62.8032 137.349L62.9707 137.349L62.9707 155.182L62.8032 155.182L62.8032 137.349Z" fill="white"/>
<path d="M68.2011 137.349L68.3687 137.349L68.3687 155.182L68.2011 155.182L68.2011 137.349Z" fill="white"/>
<path d="M62.8175 153.294L73.7515 153.294L73.7515 153.472L62.8175 153.472L62.8175 153.294Z" fill="white"/>
<path d="M62.8175 151.74L73.7515 151.74L73.7515 151.918L62.8175 151.918L62.8175 151.74Z" fill="white"/>
<path d="M62.8175 150.186L73.7515 150.186L73.7515 150.364L62.8175 150.364L62.8175 150.186Z" fill="white"/>
<path d="M62.8175 148.632L73.7515 148.632L73.7515 148.81L62.8175 148.81L62.8175 148.632Z" fill="white"/>
<path d="M62.8175 147.078L73.7515 147.078L73.7515 147.256L62.8175 147.256L62.8175 147.078Z" fill="white"/>
<path d="M62.8175 145.516L73.7515 145.516L73.7515 145.695L62.8175 145.695L62.8175 145.516Z" fill="white"/>
<path d="M62.8175 143.962L73.7515 143.962L73.7515 144.141L62.8175 144.141L62.8175 143.962Z" fill="white"/>
<path d="M62.8175 142.408L73.7515 142.408L73.7515 142.587L62.8175 142.587L62.8175 142.408Z" fill="white"/>
<path d="M68.208 140.854L73.7515 140.854L73.7515 141.033L68.208 141.033L68.208 140.854Z" fill="white"/>
<path d="M68.208 139.3L73.7515 139.3L73.7515 139.478L68.208 139.478L68.208 139.3Z" fill="white"/>
<path d="M68.2725 137.296L68.3804 137.432L62.984 142.273L62.8761 142.136L68.2725 137.296Z" fill="white"/>
<path d="M1.27868 155.267L30.5841 155.267L30.5841 155.089L1.43896 155.089C0.542968 133.822 1.79593 112.509 5.16135 91.7314C7.86389 75.0878 11.914 58.7473 17.2171 43.1683C24.4069 22.0414 32.5655 6.55563 35.9236 1.24089L61.3755 17.9L61.4629 17.7446L35.8726 1.00002L35.8289 1.06995C32.4999 6.32253 24.2903 21.8627 17.0641 43.0984C11.761 58.6852 7.70362 75.0412 5.00108 91.6925C1.62109 112.516 0.375411 133.876 1.27868 155.182L1.27868 155.267Z" fill="#1C6BCF" stroke="#1C6BCF" stroke-width="0.69701" stroke-miterlimit="10"/>
<path d="M83.9062 78.3124L84.0737 78.3124L84.0737 119.836L83.9062 119.836L83.9062 78.3124Z" fill="white"/>
<path d="M18.7697 139.782L22.0259 138.5L15.9943 121.071L12.7382 122.353L18.7697 139.782ZM21.8146 138.391L18.8717 139.548L12.9567 122.454L15.8996 121.297L21.8146 138.391Z" fill="white"/>
<path d="M20.8376 126.813L24.0938 125.531L18.0622 108.103L14.8061 109.385L20.8376 126.813ZM23.8752 125.422L20.9323 126.58L15.0173 109.486L17.9602 108.328L23.8752 125.422Z" fill="white"/>
<path d="M22.8987 113.845L26.1548 112.563L20.1233 95.1347L16.8671 96.4167L22.8987 113.845ZM25.9436 112.454L23.0006 113.612L17.0856 96.5177L20.0286 95.36L25.9436 112.454Z" fill="white"/>
<path d="M9.90405 144.949L16.1177 144.949L16.1177 137.256L9.90405 137.256L9.90405 144.949ZM15.9574 144.77L10.0789 144.77L10.0789 137.435L15.9574 137.435L15.9574 144.77Z" fill="white"/>
<path d="M118.123 171.381L118.024 171.381L118.024 171.282L118.024 107.015L118.024 106.916L118.123 106.916L191.354 106.916L191.454 106.916L191.454 107.015L191.454 171.282L191.454 171.381L191.354 171.381L174.119 171.381L174.019 171.381L174.019 171.282L174.019 170.971L174.019 170.872L174.119 170.872L190.963 170.872L190.963 107.426L118.514 107.426L118.514 170.872L164.868 170.872L164.967 170.872L164.967 170.971L164.967 171.282L164.967 171.381L164.868 171.381L118.123 171.381Z" fill="#1C6BCF" stroke="#1C6BCF" stroke-width="0.199146"/>
<path d="M159.448 141.383L191.354 141.383L191.354 107.015L159.448 107.015L159.448 141.383ZM191.063 141.072L159.739 141.072L159.739 107.326L191.063 107.326L191.063 141.072Z" fill="white"/>
<path d="M188.112 107L188.257 107L188.257 141.227L188.112 141.227L188.112 107Z" fill="white"/>
<path d="M185.512 107L185.657 107L185.657 141.227L185.512 141.227L185.512 107Z" fill="white"/>
<path d="M182.911 107L183.057 107L183.057 141.227L182.911 141.227L182.911 107Z" fill="white"/>
<path d="M180.31 107L180.456 107L180.456 141.227L180.31 141.227L180.31 107Z" fill="white"/>
<path d="M177.703 107L177.849 107L177.849 141.227L177.703 141.227L177.703 107Z" fill="white"/>
<path d="M175.102 107L175.248 107L175.248 141.227L175.102 141.227L175.102 107Z" fill="white"/>
<path d="M172.502 107L172.647 107L172.647 141.227L172.502 141.227L172.502 107Z" fill="white"/>
<path d="M169.901 107L170.047 107L170.047 141.227L169.901 141.227L169.901 107Z" fill="white"/>
<path d="M167.301 107L167.447 107L167.447 141.227L167.301 141.227L167.301 107Z" fill="white"/>
<path d="M164.693 107L164.838 107L164.838 141.227L164.693 141.227L164.693 107Z" fill="white"/>
<path d="M162.092 107L162.237 107L162.237 141.227L162.092 141.227L162.092 107Z" fill="white"/>
<path d="M159.593 112.936L191.222 112.936L191.222 113.092L159.593 113.092L159.593 112.936Z" fill="white"/>
<path d="M159.593 115.71L191.222 115.71L191.222 115.866L159.593 115.866L159.593 115.71Z" fill="white"/>
<path d="M159.593 118.484L191.222 118.484L191.222 118.64L159.593 118.64L159.593 118.484Z" fill="white"/>
<path d="M159.593 121.258L191.222 121.258L191.222 121.414L159.593 121.414L159.593 121.258Z" fill="white"/>
<path d="M159.593 124.04L191.222 124.04L191.222 124.195L159.593 124.195L159.593 124.04Z" fill="white"/>
<path d="M159.593 126.814L191.222 126.814L191.222 126.969L159.593 126.969L159.593 126.814Z" fill="white"/>
<path d="M159.593 129.588L191.222 129.588L191.222 129.743L159.593 129.743L159.593 129.588Z" fill="white"/>
<path d="M159.593 132.362L191.222 132.362L191.222 132.517L159.593 132.517L159.593 132.362Z" fill="white"/>
<path d="M159.593 135.135L191.222 135.135L191.222 135.291L159.593 135.291L159.593 135.135Z" fill="white"/>
<path d="M159.593 137.917L191.222 137.917L191.222 138.073L159.593 138.073L159.593 137.917Z" fill="white"/>
<mask id="path-100-inside-1_2323_4888" fill="white">
<path d="M191.391 161.927L202.689 161.927L202.689 121.033L191.391 121.033L191.391 121.647L202.106 121.647L202.106 161.313L191.391 161.313L191.391 161.927Z"/>
</mask>
<path d="M191.391 161.927L202.689 161.927L202.689 121.033L191.391 121.033L191.391 121.647L202.106 121.647L202.106 161.313L191.391 161.313L191.391 161.927Z" fill="#1C6BCF"/>
<path d="M191.391 161.927L191.391 162.624L190.694 162.624L190.694 161.927L191.391 161.927ZM202.689 161.927L203.386 161.927L203.386 162.624L202.689 162.624L202.689 161.927ZM202.689 121.033L202.689 120.336L203.386 120.336L203.386 121.033L202.689 121.033ZM191.391 121.033L190.694 121.033L190.694 120.336L191.391 120.336L191.391 121.033ZM191.391 121.647L191.391 122.344L190.694 122.344L190.694 121.647L191.391 121.647ZM202.106 121.647L202.106 120.95L202.803 120.95L202.803 121.647L202.106 121.647ZM202.106 161.313L202.803 161.313L202.803 162.01L202.106 162.01L202.106 161.313ZM191.391 161.313L190.694 161.313L190.694 160.616L191.391 160.616L191.391 161.313ZM191.391 161.23L202.689 161.23L202.689 162.624L191.391 162.624L191.391 161.23ZM201.992 161.927L201.992 121.033L203.386 121.033L203.386 161.927L201.992 161.927ZM202.689 121.73L191.391 121.73L191.391 120.336L202.689 120.336L202.689 121.73ZM192.088 121.033L192.088 121.647L190.694 121.647L190.694 121.033L192.088 121.033ZM191.391 120.95L202.106 120.95L202.106 122.344L191.391 122.344L191.391 120.95ZM202.803 121.647L202.803 161.313L201.409 161.313L201.409 121.647L202.803 121.647ZM202.106 162.01L191.391 162.01L191.391 160.616L202.106 160.616L202.106 162.01ZM192.088 161.313L192.088 161.927L190.694 161.927L190.694 161.313L192.088 161.313Z" fill="#1C6BCF" mask="url(#path-100-inside-1_2323_4888)"/>
<path d="M114 124.56L118.218 124.56L118.218 124.327L114.218 124.327C114.255 123.659 114.612 120.481 118.269 120.178L118.254 119.945C116.054 120.123 115.02 121.336 114.532 122.322C114.007 123.387 114 124.397 114 124.444L114 124.56Z" fill="white"/>
<path d="M114 115.368L118.218 115.368L118.218 115.601L114.218 115.601C114.255 116.27 114.612 119.448 118.269 119.751L118.254 119.984C116.054 119.805 115.02 118.593 114.532 117.606C114.007 116.542 114 115.531 114 115.485L114 115.368Z" fill="white"/>
<path d="M145.163 175.688L145.163 171.189L144.945 171.189L144.945 175.455C144.318 175.416 141.339 175.035 141.055 171.134L140.836 171.15C141.004 173.496 142.14 174.6 143.065 175.12C144.063 175.68 145.01 175.688 145.054 175.688L145.163 175.688Z" fill="white"/>
<path d="M136.552 175.688L136.552 171.189L136.771 171.189L136.771 175.455C137.397 175.416 140.377 175.035 140.661 171.134L140.879 171.15C140.712 173.496 139.576 174.6 138.65 175.12C137.652 175.68 136.705 175.688 136.662 175.688L136.552 175.688Z" fill="white"/>
<path d="M114 159.184L118.218 159.184L118.218 158.951L114.218 158.951C114.255 158.283 114.612 155.105 118.269 154.802L118.254 154.569C116.054 154.747 115.02 155.959 114.532 156.946C114.007 158.011 114 159.021 114 159.067L114 159.184Z" fill="white"/>
<path d="M114 150L118.218 150L118.218 150.233L114.218 150.233C114.255 150.901 114.612 154.079 118.269 154.382L118.254 154.615C116.054 154.436 115.02 153.224 114.532 152.237C114.007 151.173 114 150.163 114 150.116L114 150Z" fill="white"/>
<path d="M173.857 169.883L174.44 169.883L174.44 173.597L173.857 173.597L173.857 169.883Z" fill="white"/>
<path d="M164.554 169.883L165.137 169.883L165.137 173.597L164.554 173.597L164.554 169.883Z" fill="white"/>
<path d="M118.32 129.588L159.594 129.588L159.594 129.743L118.32 129.743L118.32 129.588Z" fill="white"/>
<path d="M174.148 169.813L189.817 169.813L189.817 141.227L189.671 141.227L189.671 169.658L174.148 169.658L174.148 169.813Z" fill="white"/>
<path d="M119.674 169.813L164.845 169.813L164.845 169.658L119.82 169.658L119.82 129.665L119.674 129.665L119.674 169.813Z" fill="white"/>
</svg>
