<svg width="242" height="171" viewBox="0 0 242 171" fill="none" xmlns="http://www.w3.org/2000/svg">
<path d="M17.3359 96.9757L14.8417 96.9757" stroke="white" stroke-width="0.146182" stroke-miterlimit="10" stroke-linecap="square"/>
<path d="M17.3359 99.4608L14.8417 99.4608" stroke="white" stroke-width="0.146182" stroke-miterlimit="10" stroke-linecap="square"/>
<path d="M17.3359 77.2704L14.8417 77.2704" stroke="white" stroke-width="0.146182" stroke-miterlimit="10" stroke-linecap="square"/>
<path d="M17.3359 87.0938L14.8417 87.0938" stroke="white" stroke-width="0.146182" stroke-miterlimit="10" stroke-linecap="square"/>
<path d="M17.3359 79.814L14.8417 79.814" stroke="white" stroke-width="0.146182" stroke-miterlimit="10" stroke-linecap="square"/>
<path d="M17.3359 82.2406L14.8417 82.2406" stroke="white" stroke-width="0.146182" stroke-miterlimit="10" stroke-linecap="square"/>
<path d="M17.3359 84.7257L14.8417 84.7257" stroke="white" stroke-width="0.146182" stroke-miterlimit="10" stroke-linecap="square"/>
<path d="M17.3354 116.564L14.8412 116.564" stroke="white" stroke-width="0.146182" stroke-miterlimit="10" stroke-linecap="square"/>
<path d="M144.583 102.392L144.583 79.1196" stroke="white" stroke-width="0.146182" stroke-miterlimit="10" stroke-linecap="square"/>
<path d="M144.583 79.1196L144.583 70.2245" stroke="white" stroke-width="0.146182" stroke-miterlimit="10" stroke-linecap="square"/>
<path d="M145.288 114.715L145.288 105.242" stroke="white" stroke-width="0.146182" stroke-miterlimit="10" stroke-linecap="square"/>
<path d="M144.583 65.0204L144.583 55.8987" stroke="white" stroke-width="0.146182" stroke-miterlimit="10" stroke-linecap="square"/>
<path d="M72.6475 79.1196L82.6655 79.1196" stroke="white" stroke-width="0.146182" stroke-miterlimit="10" stroke-linecap="square"/>
<path d="M82.6655 79.1196L97.2402 79.1196" stroke="white" stroke-width="0.146182" stroke-miterlimit="10" stroke-linecap="square"/>
<path d="M97.2401 79.1196L107.101 79.1196" stroke="white" stroke-width="0.146182" stroke-miterlimit="10" stroke-linecap="square"/>
<path d="M82.6655 103.159L82.6655 79.1196" stroke="white" stroke-width="0.146182" stroke-miterlimit="10" stroke-linecap="square"/>
<path d="M82.6655 79.1196L82.6655 70.2245" stroke="white" stroke-width="0.146182" stroke-miterlimit="10" stroke-linecap="square"/>
<path d="M97.2402 103.159L97.2402 79.1196" stroke="white" stroke-width="0.146182" stroke-miterlimit="10" stroke-linecap="square"/>
<path d="M97.2402 79.1196L97.2402 70.2245" stroke="white" stroke-width="0.146182" stroke-miterlimit="10" stroke-linecap="square"/>
<path d="M97.2954 65.0204L97.2954 55.9205" stroke="white" stroke-width="0.146182" stroke-miterlimit="10" stroke-linecap="square"/>
<path d="M114.303 16.8315L114.522 17.2335L12.0805 78.4837L12.2998 77.8479L114.303 16.8315Z" stroke="white" stroke-width="0.146182" stroke-miterlimit="10" stroke-linecap="square"/>
<path d="M12.2993 77.8478L12.08 78.4837L10.2436 74.8438L10.8329 75.0192L12.2993 77.8478Z" stroke="white" stroke-width="0.146182" stroke-miterlimit="10" stroke-linecap="square"/>
<path d="M216.36 66.4091L216.957 66.2337L214.25 70.568L214.14 69.9321L216.36 66.4091Z" stroke="white" stroke-width="0.146182" stroke-miterlimit="10" stroke-linecap="square"/>
<path d="M214.14 69.9321L214.25 70.568L127.302 17.2335L127.521 16.8315L214.14 69.9321Z" stroke="white" stroke-width="0.146182" stroke-miterlimit="10" stroke-linecap="square"/>
<path d="M216.47 74.4418L216.847 74.6756L214.627 78.9515L214.407 78.3156L216.47 74.4418Z" stroke="white" stroke-width="0.146182" stroke-miterlimit="10" stroke-linecap="square"/>
<path d="M214.408 78.3156L214.627 78.9515L127.302 27.2323L127.521 26.8303L214.408 78.3156Z" stroke="white" stroke-width="0.146182" stroke-miterlimit="10" stroke-linecap="square"/>
<path d="M114.303 26.8303L114.522 27.2323L26.9773 77.9063L27.1966 77.2704L114.303 26.8303Z" stroke="white" stroke-width="0.146182" stroke-miterlimit="10" stroke-linecap="square"/>
<path d="M27.1963 77.2704L26.977 77.9063L24.9762 73.9813L25.6271 74.2079L27.1963 77.2704Z" stroke="white" stroke-width="0.146182" stroke-miterlimit="10" stroke-linecap="square"/>
<path d="M40.0376 121.359L40.0376 121.768L22.3724 121.768L22.3724 121.359L40.0376 121.359Z" stroke="white" stroke-width="0.146182" stroke-miterlimit="10" stroke-linecap="square"/>
<path d="M22.5918 121.534L22.1053 121.534L22.1053 107.377L22.5918 107.377L22.5918 121.534Z" stroke="white" stroke-width="0.146182" stroke-miterlimit="10" stroke-linecap="square"/>
<path d="M240.926 118.589L240.926 119.802L224.117 119.802L223.453 118.589L240.926 118.589Z" stroke="white" stroke-width="0.146182" stroke-miterlimit="10" stroke-linecap="square"/>
<path d="M223.451 118.589L224.644 119.802L224.644 167.07L223.451 165.798L223.451 118.589Z" stroke="white" stroke-width="0.146182" stroke-miterlimit="10" stroke-linecap="square"/>
<path d="M223.451 165.798L224.644 167.07L74.1608 167.07L74.4828 165.798L223.451 165.798Z" stroke="white" stroke-width="0.146182" stroke-miterlimit="10" stroke-linecap="square"/>
<path d="M74.4839 165.798L74.1618 167.07L21.7762 133.726L22.9137 133.031L74.4839 165.798Z" stroke="white" stroke-width="0.146182" stroke-miterlimit="10" stroke-linecap="square"/>
<path d="M22.9136 133.039L21.7761 133.726L21.7761 122.207L22.9136 121.001L22.9136 133.039Z" stroke="white" stroke-width="0.146182" stroke-miterlimit="10" stroke-linecap="square"/>
<path d="M22.9136 120.957L22.4819 122.17L0.999978 122.17C0.88349 122.17 0.787585 121.9 0.787585 121.571L0.787585 121.564C0.787585 121.235 0.88349 120.964 0.999978 120.964L22.9136 120.964L22.9136 120.957Z" stroke="white" stroke-width="0.146182" stroke-miterlimit="10" stroke-linecap="square"/>
<path d="M240.926 122.309L240.926 122.433L226.981 122.433L226.92 122.309L240.926 122.309Z" fill="#1C6BCF" stroke="#1C6BCF" stroke-width="0.292364" stroke-miterlimit="10" stroke-linecap="square"/>
<path d="M226.919 122.287L227.083 122.463L227.083 169.672L226.919 169.497L226.919 122.287Z" fill="#1C6BCF" stroke="#1C6BCF" stroke-width="0.292364" stroke-miterlimit="10" stroke-linecap="square"/>
<path d="M226.919 169.496L227.083 169.672L73.5103 169.672L73.5651 169.497L226.919 169.496Z" fill="#1C6BCF" stroke="#1C6BCF" stroke-width="0.292364" stroke-miterlimit="10" stroke-linecap="square"/>
<path d="M73.5649 169.497L73.5101 169.672L19.3429 135.232L19.4457 135.115L73.5649 169.497Z" fill="#1C6BCF" stroke="#1C6BCF" stroke-width="0.292364" stroke-miterlimit="10" stroke-linecap="square"/>
<path d="M19.4463 135.115L19.3435 135.231L19.3435 124.772L19.4463 124.655L19.4463 135.115Z" stroke="white" stroke-width="0.292364" stroke-miterlimit="10" stroke-linecap="square"/>
<path d="M19.4463 124.655L19.4189 124.772L0.780702 124.772L0.780702 124.655L19.4463 124.655Z" stroke="white" stroke-width="0.292364" stroke-miterlimit="10" stroke-linecap="square"/>
<path d="M81.5965 65.4881L81.5965 65.0204L107.087 65.0204L107.087 65.4881L81.5965 65.4881Z" stroke="white" stroke-width="0.146182" stroke-miterlimit="10" stroke-linecap="square"/>
<path d="M134.722 65.4881L134.722 65.0204L160.171 65.0204L160.171 65.4881L134.722 65.4881Z" stroke="white" stroke-width="0.146182" stroke-miterlimit="10" stroke-linecap="square"/>
<path d="M167.949 69.7639L167.949 70.2244L134.722 70.2244L134.722 69.7639L167.949 69.7639Z" stroke="white" stroke-width="0.146182" stroke-miterlimit="10" stroke-linecap="square"/>
<path d="M107.073 70.2244L73.5656 70.2244L73.5656 69.7639L107.073 69.7639" stroke="white" stroke-width="0.146182" stroke-miterlimit="10" stroke-linecap="square"/>
<path d="M17.3358 74.9023L17.8223 74.9023L17.8223 119.225L17.3358 119.225L17.3358 74.9023Z" stroke="white" stroke-width="0.146182" stroke-miterlimit="10" stroke-linecap="square"/>
<path d="M40.2494 119.458L39.8177 118.991L202.114 118.991L201.675 119.458" stroke="white" stroke-width="0.146182" stroke-miterlimit="10" stroke-linecap="square"/>
<path d="M198.264 69.3547L196.53 69.3547" stroke="white" stroke-width="0.146182" stroke-miterlimit="10" stroke-linecap="square"/>
<path d="M201.676 71.8398L196.53 71.8398" stroke="white" stroke-width="0.146182" stroke-miterlimit="10" stroke-linecap="square"/>
<path d="M201.676 74.2664L196.53 74.2664" stroke="white" stroke-width="0.146182" stroke-miterlimit="10" stroke-linecap="square"/>
<path d="M201.676 76.7514L196.53 76.7514" stroke="white" stroke-width="0.146182" stroke-miterlimit="10" stroke-linecap="square"/>
<path d="M201.676 79.1781L196.53 79.1781" stroke="white" stroke-width="0.146182" stroke-miterlimit="10" stroke-linecap="square"/>
<path d="M201.676 81.6631L196.53 81.6631" stroke="white" stroke-width="0.146182" stroke-miterlimit="10" stroke-linecap="square"/>
<path d="M201.676 84.0898L196.53 84.0898" stroke="white" stroke-width="0.146182" stroke-miterlimit="10" stroke-linecap="square"/>
<path d="M201.676 86.5748L196.53 86.5748" stroke="white" stroke-width="0.146182" stroke-miterlimit="10" stroke-linecap="square"/>
<path d="M201.676 89.0015L196.53 89.0015" stroke="white" stroke-width="0.146182" stroke-miterlimit="10" stroke-linecap="square"/>
<path d="M201.676 91.4866L196.53 91.4866" stroke="white" stroke-width="0.146182" stroke-miterlimit="10" stroke-linecap="square"/>
<path d="M201.676 93.9132L196.53 93.9132" stroke="white" stroke-width="0.146182" stroke-miterlimit="10" stroke-linecap="square"/>
<path d="M201.676 96.3983L196.53 96.3983" stroke="white" stroke-width="0.146182" stroke-miterlimit="10" stroke-linecap="square"/>
<path d="M201.676 98.8249L196.53 98.8249" stroke="white" stroke-width="0.146182" stroke-miterlimit="10" stroke-linecap="square"/>
<path d="M201.676 101.31L196.53 101.31" stroke="white" stroke-width="0.146182" stroke-miterlimit="10" stroke-linecap="square"/>
<path d="M201.676 103.737L196.53 103.737" stroke="white" stroke-width="0.146182" stroke-miterlimit="10" stroke-linecap="square"/>
<path d="M201.676 106.222L196.53 106.222" stroke="white" stroke-width="0.146182" stroke-miterlimit="10" stroke-linecap="square"/>
<path d="M201.676 108.648L196.53 108.648" stroke="white" stroke-width="0.146182" stroke-miterlimit="10" stroke-linecap="square"/>
<path d="M201.676 111.133L196.53 111.133" stroke="white" stroke-width="0.146182" stroke-miterlimit="10" stroke-linecap="square"/>
<path d="M201.676 113.56L196.53 113.56" stroke="white" stroke-width="0.146182" stroke-miterlimit="10" stroke-linecap="square"/>
<path d="M201.676 118.472L196.53 118.472" stroke="white" stroke-width="0.146182" stroke-miterlimit="10" stroke-linecap="square"/>
<path d="M201.676 116.104L196.53 116.104" stroke="white" stroke-width="0.146182" stroke-miterlimit="10" stroke-linecap="square"/>
<path d="M202.114 119.225L201.675 119.225L201.675 71.2039L202.114 71.2039" stroke="white" stroke-width="0.146182" stroke-miterlimit="10" stroke-linecap="square"/>
<path d="M72.6475 103.159L82.6655 103.159" stroke="white" stroke-width="0.146182" stroke-miterlimit="10" stroke-linecap="square"/>
<path d="M82.6655 103.159L97.2402 103.159" stroke="white" stroke-width="0.146182" stroke-miterlimit="10" stroke-linecap="square"/>
<path d="M97.2401 103.159L107.101 103.159" stroke="white" stroke-width="0.146182" stroke-miterlimit="10" stroke-linecap="square"/>
<path d="M217.121 74.3833L216.737 75.0192L127.192 21.7432L127.576 21.0489L217.121 74.3833Z" stroke="white" stroke-width="0.146182" stroke-miterlimit="10" stroke-linecap="square"/>
<path d="M24.8119 74.8438L24.4898 74.1494L114.248 21.1658L114.57 21.8017L24.8119 74.8438Z" stroke="white" stroke-width="0.146182" stroke-miterlimit="10" stroke-linecap="square"/>
<path d="M176.384 118.991L175.946 118.991L175.946 55.9497L176.384 55.9497L176.384 118.991Z" stroke="white" stroke-width="0.146182" stroke-miterlimit="10" stroke-linecap="square"/>
<path d="M49.2945 103.971L54.8242 103.971" stroke="white" stroke-width="0.146182" stroke-miterlimit="10" stroke-linecap="square"/>
<path d="M55.5233 103.971L61.5396 103.971" stroke="white" stroke-width="0.146182" stroke-miterlimit="10" stroke-linecap="square"/>
<path d="M49.2945 103.159L54.8242 103.159" stroke="white" stroke-width="0.146182" stroke-miterlimit="10" stroke-linecap="square"/>
<path d="M55.5233 103.159L61.5396 103.159" stroke="white" stroke-width="0.146182" stroke-miterlimit="10" stroke-linecap="square"/>
<path d="M54.8242 114.715L54.8242 103.971" stroke="white" stroke-width="0.146182" stroke-miterlimit="10" stroke-linecap="square"/>
<path d="M54.8242 103.159L54.8242 81.1369" stroke="white" stroke-width="0.146182" stroke-miterlimit="10" stroke-linecap="square"/>
<path d="M55.5239 114.715L55.5239 103.971" stroke="white" stroke-width="0.146182" stroke-miterlimit="10" stroke-linecap="square"/>
<path d="M55.5239 103.159L55.5239 80.7349" stroke="white" stroke-width="0.146182" stroke-miterlimit="10" stroke-linecap="square"/>
<path d="M65.7129 118.991L65.2743 118.991L65.2743 51.0381L65.7129 51.0381L65.7129 118.991Z" stroke="white" stroke-width="0.146182" stroke-miterlimit="10" stroke-linecap="square"/>
<path d="M169.011 102.392L159.102 102.392" stroke="white" stroke-width="0.146182" stroke-miterlimit="10" stroke-linecap="square"/>
<path d="M159.103 102.392L144.583 102.392" stroke="white" stroke-width="0.146182" stroke-miterlimit="10" stroke-linecap="square"/>
<path d="M144.583 102.392L134.723 102.392" stroke="white" stroke-width="0.146182" stroke-miterlimit="10" stroke-linecap="square"/>
<path d="M169.011 79.1196L159.102 79.1196" stroke="white" stroke-width="0.146182" stroke-miterlimit="10" stroke-linecap="square"/>
<path d="M159.103 79.1196L144.583 79.1196" stroke="white" stroke-width="0.146182" stroke-miterlimit="10" stroke-linecap="square"/>
<path d="M144.583 79.1196L134.723 79.1196" stroke="white" stroke-width="0.146182" stroke-miterlimit="10" stroke-linecap="square"/>
<path d="M196.53 118.991L196.098 118.991L196.098 67.8563L196.53 67.8563L196.53 118.991Z" stroke="white" stroke-width="0.146182" stroke-miterlimit="10" stroke-linecap="square"/>
<path d="M193.392 118.991L192.96 118.991L192.96 87.3277L193.392 86.8672L193.392 118.991Z" stroke="white" stroke-width="0.146182" stroke-miterlimit="10" stroke-linecap="square"/>
<path d="M192.96 87.3277L178.659 87.3277L178.221 86.8672L193.392 86.8672" stroke="white" stroke-width="0.0730909" stroke-miterlimit="10" stroke-linecap="square"/>
<path d="M178.221 86.7503L178.659 87.2108L178.659 118.991L178.221 118.991L178.221 86.7503Z" stroke="white" stroke-width="0.146182" stroke-miterlimit="10" stroke-linecap="square"/>
<path d="M192.035 118.991L192.035 88.2998L179.632 88.2998L179.632 118.991" stroke="white" stroke-width="0.146182" stroke-miterlimit="10" stroke-linecap="square"/>
<path d="M192.035 103.971L179.632 103.971" stroke="white" stroke-width="0.146182" stroke-miterlimit="10" stroke-linecap="square"/>
<path d="M193.392 87.0938L193.09 87.0938L193.09 83.337L193.392 83.0519L193.392 87.0938Z" stroke="white" stroke-width="0.0730909" stroke-miterlimit="10" stroke-linecap="square"/>
<path d="M193.392 83.0519L192.96 83.3369L178.659 75.3115L178.221 74.5587L193.392 83.0519Z" stroke="white" stroke-width="0.146182" stroke-miterlimit="10" stroke-linecap="square"/>
<path d="M178.221 74.5587L178.659 75.3115L178.659 87.0938L178.221 87.0938L178.221 74.5587Z" stroke="white" stroke-width="0.0194495" stroke-miterlimit="10" stroke-linecap="square"/>
<path d="M178.221 74.5587L178.659 75.3115L178.659 86.8672L178.221 87.3277L178.221 74.5587Z" stroke="white" stroke-width="0.146182" stroke-miterlimit="10" stroke-linecap="square"/>
<path d="M192.96 83.337L193.392 83.0519L193.392 87.3277" stroke="white" stroke-width="0.0730909" stroke-miterlimit="10" stroke-linecap="square"/>
<path d="M192.035 85.822L192.035 83.9728L179.632 77.0438L179.632 85.822L192.035 85.822Z" stroke="white" stroke-width="0.146182" stroke-miterlimit="10" stroke-linecap="square"/>
<path d="M127.41 13.0162L127.41 13.0749" stroke="white" stroke-width="0.0194495" stroke-miterlimit="10" stroke-linecap="square"/>
<path d="M127.41 13.1331L127.41 13.1919" stroke="white" stroke-width="0.0194495" stroke-miterlimit="10" stroke-linecap="square"/>
<path d="M45.8818 118.991L45.4502 118.991L45.4502 66.7599L45.8818 66.7599L45.8818 118.991Z" stroke="white" stroke-width="0.146182" stroke-miterlimit="10" stroke-linecap="square"/>
<path d="M40.0376 118.991L40.0376 119.4L14.8418 119.4L14.4101 118.991L40.0376 118.991Z" stroke="white" stroke-width="0.146182" stroke-miterlimit="10" stroke-linecap="square"/>
<path d="M14.4101 118.991L14.8418 119.4L14.8418 121.534L14.4101 121.534L14.4101 118.991Z" stroke="white" stroke-width="0.146182" stroke-miterlimit="10" stroke-linecap="square"/>
<path d="M10.1891 75.5966L9.80539 74.9607L114.248 13.2501L114.57 13.9444L10.1891 75.5966Z" fill="#1C6BCF" stroke="#1C6BCF" stroke-width="0.448078" stroke-miterlimit="10" stroke-linecap="square"/>
<path d="M217.443 66.3506L217.066 67.045L127.192 13.9444L127.575 13.2501L217.443 66.3506Z" fill="#1C6BCF" stroke="#1C6BCF" stroke-width="0.448078" stroke-miterlimit="10" stroke-linecap="square"/>
<path d="M202.114 65.7732L201.675 65.7732L201.675 62.7107L202.114 62.7107L202.114 65.7732Z" stroke="white" stroke-width="0.146182" stroke-miterlimit="10" stroke-linecap="square"/>
<path d="M40.1406 65.7732L39.6541 65.7732L39.6541 61.5558L40.1406 61.5558L40.1406 65.7732Z" stroke="white" stroke-width="0.146182" stroke-miterlimit="10" stroke-linecap="square"/>
<path d="M39.8179 142.804L38.2898 142.804" stroke="white" stroke-width="0.146182" stroke-miterlimit="10" stroke-linecap="square"/>
<path d="M39.8179 140.487L34.6513 140.487" stroke="white" stroke-width="0.146182" stroke-miterlimit="10" stroke-linecap="square"/>
<path d="M40.0376 138.119L31.205 138.119" stroke="white" stroke-width="0.146182" stroke-miterlimit="10" stroke-linecap="square"/>
<path d="M39.8179 135.75L27.2234 135.75" stroke="white" stroke-width="0.146182" stroke-miterlimit="10" stroke-linecap="square"/>
<path d="M40.0376 133.382L22.5917 133.382" stroke="white" stroke-width="0.146182" stroke-miterlimit="10" stroke-linecap="square"/>
<path d="M39.8179 131.014L22.9133 131.014" stroke="white" stroke-width="0.146182" stroke-miterlimit="10" stroke-linecap="square"/>
<path d="M39.8179 128.646L22.9133 128.646" stroke="white" stroke-width="0.146182" stroke-miterlimit="10" stroke-linecap="square"/>
<path d="M39.8179 126.271L22.9133 126.271" stroke="white" stroke-width="0.146182" stroke-miterlimit="10" stroke-linecap="square"/>
<path d="M39.8179 123.902L22.9133 123.902" stroke="white" stroke-width="0.146182" stroke-miterlimit="10" stroke-linecap="square"/>
<path d="M45.4512 69.3547L41.7509 69.3547" stroke="white" stroke-width="0.146182" stroke-miterlimit="10" stroke-linecap="square"/>
<path d="M45.4512 71.8398L40.3462 71.8398" stroke="white" stroke-width="0.146182" stroke-miterlimit="10" stroke-linecap="square"/>
<path d="M45.4512 74.2664L40.2982 74.2664" stroke="white" stroke-width="0.146182" stroke-miterlimit="10" stroke-linecap="square"/>
<path d="M45.4512 76.7514L40.2503 76.7515" stroke="white" stroke-width="0.146182" stroke-miterlimit="10" stroke-linecap="square"/>
<path d="M45.4512 79.1781L40.2503 79.1781" stroke="white" stroke-width="0.146182" stroke-miterlimit="10" stroke-linecap="square"/>
<path d="M45.4512 81.6632L40.2503 81.6632" stroke="white" stroke-width="0.146182" stroke-miterlimit="10" stroke-linecap="square"/>
<path d="M45.4512 84.0898L40.2503 84.0898" stroke="white" stroke-width="0.146182" stroke-miterlimit="10" stroke-linecap="square"/>
<path d="M45.4512 86.5749L40.2503 86.5749" stroke="white" stroke-width="0.146182" stroke-miterlimit="10" stroke-linecap="square"/>
<path d="M45.4512 89.0015L40.2503 89.0015" stroke="white" stroke-width="0.146182" stroke-miterlimit="10" stroke-linecap="square"/>
<path d="M45.4512 91.4866L40.2503 91.4866" stroke="white" stroke-width="0.0548182" stroke-miterlimit="10" stroke-linecap="square"/>
<path d="M45.4512 93.9133L40.2503 93.9133" stroke="white" stroke-width="0.146182" stroke-miterlimit="10" stroke-linecap="square"/>
<path d="M45.4512 96.3983L40.2503 96.3983" stroke="white" stroke-width="0.146182" stroke-miterlimit="10" stroke-linecap="square"/>
<path d="M45.4512 98.8249L40.2503 98.8249" stroke="white" stroke-width="0.146182" stroke-miterlimit="10" stroke-linecap="square"/>
<path d="M45.4512 101.31L40.2503 101.31" stroke="white" stroke-width="0.146182" stroke-miterlimit="10" stroke-linecap="square"/>
<path d="M45.4512 103.737L40.2503 103.737" stroke="white" stroke-width="0.146182" stroke-miterlimit="10" stroke-linecap="square"/>
<path d="M45.4512 106.222L40.2503 106.222" stroke="white" stroke-width="0.146182" stroke-miterlimit="10" stroke-linecap="square"/>
<path d="M45.4512 108.648L40.2503 108.648" stroke="white" stroke-width="0.146182" stroke-miterlimit="10" stroke-linecap="square"/>
<path d="M45.4512 111.133L40.2503 111.133" stroke="white" stroke-width="0.146182" stroke-miterlimit="10" stroke-linecap="square"/>
<path d="M45.4512 116.045L40.2503 116.045" stroke="white" stroke-width="0.146182" stroke-miterlimit="10" stroke-linecap="square"/>
<path d="M45.4512 113.677L40.2503 113.677" stroke="white" stroke-width="0.146182" stroke-miterlimit="10" stroke-linecap="square"/>
<path d="M45.4512 118.589L40.2503 118.589" stroke="white" stroke-width="0.146182" stroke-miterlimit="10" stroke-linecap="square"/>
<path d="M201.894 104.833L201.894 105.242L40.2489 105.242L40.2489 104.833L201.894 104.833Z" stroke="white" stroke-width="0.146182" stroke-miterlimit="10" stroke-linecap="square"/>
<path d="M201.676 119.21L201.683 129.867L201.683 165.104" stroke="white" stroke-width="0.292364" stroke-miterlimit="10" stroke-linecap="square"/>
<path d="M193.611 118.991L193.611 104.877" stroke="white" stroke-width="0.146182" stroke-miterlimit="10" stroke-linecap="square"/>
<path d="M186.566 118.991L186.566 104.877" stroke="white" stroke-width="0.146182" stroke-miterlimit="10" stroke-linecap="square"/>
<path d="M172.478 118.991L172.478 105.242" stroke="white" stroke-width="0.146182" stroke-miterlimit="10" stroke-linecap="square"/>
<path d="M165.496 118.991L165.496 105.242" stroke="white" stroke-width="0.146182" stroke-miterlimit="10" stroke-linecap="square"/>
<path d="M158.452 118.991L158.452 115.921L158.452 105.242" stroke="white" stroke-width="0.146182" stroke-miterlimit="10" stroke-linecap="square"/>
<path d="M151.408 118.991L151.408 115.921L151.408 105.242" stroke="white" stroke-width="0.146182" stroke-miterlimit="10" stroke-linecap="square"/>
<path d="M144.418 118.991L144.418 115.921L144.418 105.242" stroke="white" stroke-width="0.146182" stroke-miterlimit="10" stroke-linecap="square"/>
<path d="M137.381 118.991L137.381 115.921L137.381 105.242" stroke="white" stroke-width="0.146182" stroke-miterlimit="10" stroke-linecap="square"/>
<path d="M130.336 118.991L130.336 105.242" stroke="white" stroke-width="0.146182" stroke-miterlimit="10" stroke-linecap="square"/>
<path d="M123.292 118.991L123.292 105.242" stroke="white" stroke-width="0.146182" stroke-miterlimit="10" stroke-linecap="square"/>
<path d="M116.303 118.991L116.303 105.242" stroke="white" stroke-width="0.146182" stroke-miterlimit="10" stroke-linecap="square"/>
<path d="M109.266 118.991L109.266 105.242" stroke="white" stroke-width="0.146182" stroke-miterlimit="10" stroke-linecap="square"/>
<path d="M102.222 118.991L102.222 115.921L102.222 105.242" stroke="white" stroke-width="0.146182" stroke-miterlimit="10" stroke-linecap="square"/>
<path d="M95.2329 118.991L95.2329 115.921L95.2329 105.242" stroke="white" stroke-width="0.146182" stroke-miterlimit="10" stroke-linecap="square"/>
<path d="M88.188 118.991L88.188 115.921L88.188 105.242" stroke="white" stroke-width="0.146182" stroke-miterlimit="10" stroke-linecap="square"/>
<path d="M81.1509 118.991L81.1509 115.921L81.1509 105.242" stroke="white" stroke-width="0.146182" stroke-miterlimit="10" stroke-linecap="square"/>
<path d="M74.1069 118.991L74.1069 105.242" stroke="white" stroke-width="0.146182" stroke-miterlimit="10" stroke-linecap="square"/>
<path d="M67.1172 118.991L67.1172 105.242" stroke="white" stroke-width="0.146182" stroke-miterlimit="10" stroke-linecap="square"/>
<path d="M60.0801 118.991L60.0801 115.921L60.0801 105.242" stroke="white" stroke-width="0.146182" stroke-miterlimit="10" stroke-linecap="square"/>
<path d="M53.0361 118.991L53.0361 115.921L53.0361 105.242" stroke="white" stroke-width="0.146182" stroke-miterlimit="10" stroke-linecap="square"/>
<path d="M198.264 118.991L198.264 104.833" stroke="white" stroke-width="0.146182" stroke-miterlimit="10" stroke-linecap="square"/>
<path d="M191.227 118.991L191.227 104.877" stroke="white" stroke-width="0.146182" stroke-miterlimit="10" stroke-linecap="square"/>
<path d="M184.237 118.991L184.237 104.877" stroke="white" stroke-width="0.146182" stroke-miterlimit="10" stroke-linecap="square"/>
<path d="M177.192 118.991L177.192 105.242" stroke="white" stroke-width="0.146182" stroke-miterlimit="10" stroke-linecap="square"/>
<path d="M170.148 118.991L170.148 105.242" stroke="white" stroke-width="0.146182" stroke-miterlimit="10" stroke-linecap="square"/>
<path d="M163.166 118.991L163.166 105.242" stroke="white" stroke-width="0.146182" stroke-miterlimit="10" stroke-linecap="square"/>
<path d="M156.122 118.991L156.122 115.921L156.122 105.242" stroke="white" stroke-width="0.146182" stroke-miterlimit="10" stroke-linecap="square"/>
<path d="M149.079 118.991L149.079 115.921L149.079 105.242" stroke="white" stroke-width="0.146182" stroke-miterlimit="10" stroke-linecap="square"/>
<path d="M142.04 118.991L142.04 115.921L142.04 105.242" stroke="white" stroke-width="0.146182" stroke-miterlimit="10" stroke-linecap="square"/>
<path d="M135.051 118.991L135.051 115.921L135.051 105.242" stroke="white" stroke-width="0.146182" stroke-miterlimit="10" stroke-linecap="square"/>
<path d="M128.007 118.991L128.007 105.242" stroke="white" stroke-width="0.146182" stroke-miterlimit="10" stroke-linecap="square"/>
<path d="M120.963 118.991L120.963 105.242" stroke="white" stroke-width="0.146182" stroke-miterlimit="10" stroke-linecap="square"/>
<path d="M113.981 118.991L113.981 105.242" stroke="white" stroke-width="0.146182" stroke-miterlimit="10" stroke-linecap="square"/>
<path d="M106.936 118.991L106.936 115.921L106.936 105.242" stroke="white" stroke-width="0.146182" stroke-miterlimit="10" stroke-linecap="square"/>
<path d="M99.8921 118.991L99.8921 115.921L99.8921 105.242" stroke="white" stroke-width="0.146182" stroke-miterlimit="10" stroke-linecap="square"/>
<path d="M92.8481 118.991L92.8481 115.921L92.8481 105.242" stroke="white" stroke-width="0.146182" stroke-miterlimit="10" stroke-linecap="square"/>
<path d="M85.8657 118.991L85.8657 115.921L85.8657 105.242" stroke="white" stroke-width="0.146182" stroke-miterlimit="10" stroke-linecap="square"/>
<path d="M78.8213 118.991L78.8213 105.242" stroke="white" stroke-width="0.146182" stroke-miterlimit="10" stroke-linecap="square"/>
<path d="M71.7764 118.991L71.7764 105.242" stroke="white" stroke-width="0.146182" stroke-miterlimit="10" stroke-linecap="square"/>
<path d="M64.7871 118.991L64.7871 105.242" stroke="white" stroke-width="0.146182" stroke-miterlimit="10" stroke-linecap="square"/>
<path d="M57.7505 118.991L57.7505 115.921L57.7505 105.242" stroke="white" stroke-width="0.146182" stroke-miterlimit="10" stroke-linecap="square"/>
<path d="M50.7061 118.991L50.7061 115.921L50.7061 105.242" stroke="white" stroke-width="0.146182" stroke-miterlimit="10" stroke-linecap="square"/>
<path d="M134.722 50.0587L134.722 114.715" stroke="white" stroke-width="0.365455" stroke-miterlimit="10" stroke-linecap="square"/>
<path d="M134.722 114.715L169.011 114.715" stroke="white" stroke-width="0.365455" stroke-miterlimit="10" stroke-linecap="square"/>
<path d="M169.011 114.715L169.011 70.3998" stroke="white" stroke-width="0.365455" stroke-miterlimit="10" stroke-linecap="square"/>
<path d="M169.011 70.3999L134.722 50.0587" stroke="white" stroke-width="0.365455" stroke-miterlimit="10" stroke-linecap="square"/>
<path d="M107.101 114.715L107.101 50.0587" stroke="white" stroke-width="0.511636" stroke-miterlimit="10" stroke-linecap="square"/>
<path d="M72.6473 114.715L107.101 114.715" stroke="white" stroke-width="0.365455" stroke-miterlimit="10" stroke-linecap="square"/>
<path d="M72.647 70.5095L72.647 114.715" stroke="white" stroke-width="0.365455" stroke-miterlimit="10" stroke-linecap="square"/>
<path d="M107.101 50.0587L72.6473 70.5095" stroke="white" stroke-width="0.365455" stroke-miterlimit="10" stroke-linecap="square"/>
<path d="M61.9717 76.5249L61.54 77.3289L49.295 84.3237L48.8633 84.0898L61.9717 76.5249Z" stroke="white" stroke-width="0.146182" stroke-miterlimit="10" stroke-linecap="square"/>
<path d="M48.8627 84.0898L49.2944 84.3237L49.2944 114.715L48.8627 115.183L48.8627 84.0898Z" stroke="white" stroke-width="0.146182" stroke-miterlimit="10" stroke-linecap="square"/>
<path d="M48.8633 115.183L49.295 114.715L61.54 114.715L61.9717 115.183L48.8633 115.183Z" stroke="white" stroke-width="0.146182" stroke-miterlimit="10" stroke-linecap="square"/>
<path d="M61.9717 115.183L61.54 114.715L61.54 77.3289L61.9717 76.5249L61.9717 115.183Z" stroke="white" stroke-width="0.146182" stroke-miterlimit="10" stroke-linecap="square"/>
<path d="M74.5391 166.434L74.1074 166.434L74.1074 150.829L74.5391 150.544L74.5391 166.434Z" stroke="white" stroke-width="0.146182" stroke-miterlimit="10" stroke-linecap="square"/>
<path d="M74.5391 150.544L74.1074 150.829L22.2699 119.4L22.4823 118.991L74.5391 150.544Z" stroke="white" stroke-width="0.146182" stroke-miterlimit="10" stroke-linecap="square"/>
<path d="M159.103 114.715L159.103 105.242" stroke="white" stroke-width="0.146182" stroke-miterlimit="10" stroke-linecap="square"/>
<path d="M159.103 102.392L159.103 79.1196" stroke="white" stroke-width="0.146182" stroke-miterlimit="10" stroke-linecap="square"/>
<path d="M159.103 79.1196L159.103 70.2244" stroke="white" stroke-width="0.146182" stroke-miterlimit="10" stroke-linecap="square"/>
<path d="M144.583 114.715L144.583 105.242" stroke="white" stroke-width="0.146182" stroke-miterlimit="10" stroke-linecap="square"/>
<path d="M112.836 135.29L112.946 135.349" stroke="white" stroke-width="0.146182" stroke-miterlimit="10" stroke-linecap="square"/>
<path d="M115.275 161.581L115.275 151.121" stroke="white" stroke-width="0.146182" stroke-miterlimit="10" stroke-linecap="square"/>
<path d="M115.275 160.888L115.275 138.638" stroke="white" stroke-width="0.146182" stroke-miterlimit="10" stroke-linecap="square"/>
<path d="M126.438 161.581L115.276 161.581" stroke="white" stroke-width="0.146182" stroke-miterlimit="10" stroke-linecap="square"/>
<path d="M115.276 138.638L126.438 138.638" stroke="white" stroke-width="0.146182" stroke-miterlimit="10" stroke-linecap="square"/>
<path d="M126.438 138.638L126.438 161.581" stroke="white" stroke-width="0.146182" stroke-miterlimit="10" stroke-linecap="square"/>
<path d="M128.822 135.29L128.711 135.349" stroke="white" stroke-width="0.146182" stroke-miterlimit="10" stroke-linecap="square"/>
<path d="M128.768 163.138L128.768 161.924" stroke="white" stroke-width="0.146182" stroke-miterlimit="10" stroke-linecap="square"/>
<path d="M128.766 161.924L128.822 161.924" stroke="white" stroke-width="0.146182" stroke-miterlimit="10" stroke-linecap="square"/>
<path d="M128.822 163.138L128.766 163.138" stroke="white" stroke-width="0.146182" stroke-miterlimit="10" stroke-linecap="square"/>
<path d="M128.822 163.138L128.925 163.138" stroke="white" stroke-width="0.146182" stroke-miterlimit="10" stroke-linecap="square"/>
<path d="M128.925 161.924L128.822 161.924" stroke="white" stroke-width="0.146182" stroke-miterlimit="10" stroke-linecap="square"/>
<path d="M128.924 163.138L129.089 163.138" stroke="white" stroke-width="0.146182" stroke-miterlimit="10" stroke-linecap="square"/>
<path d="M129.089 161.924L128.924 161.924" stroke="white" stroke-width="0.146182" stroke-miterlimit="10" stroke-linecap="square"/>
<path d="M129.089 163.138L129.199 163.138" stroke="white" stroke-width="0.146182" stroke-miterlimit="10" stroke-linecap="square"/>
<path d="M129.199 161.924L129.089 161.924" stroke="white" stroke-width="0.146182" stroke-miterlimit="10" stroke-linecap="square"/>
<path d="M129.199 163.138L129.089 163.138" stroke="white" stroke-width="0.146182" stroke-miterlimit="10" stroke-linecap="square"/>
<path d="M129.199 163.138L129.199 161.924" stroke="white" stroke-width="0.146182" stroke-miterlimit="10" stroke-linecap="square"/>
<path d="M129.199 161.924L129.089 161.924" stroke="white" stroke-width="0.146182" stroke-miterlimit="10" stroke-linecap="square"/>
<path d="M128.657 135.407L128.979 135.115L128.979 166.894L128.657 166.609L128.657 135.407Z" stroke="white" stroke-width="0.146182" stroke-miterlimit="10" stroke-linecap="square"/>
<path d="M128.657 166.609L128.979 166.894L112.733 166.894L113 166.609L128.657 166.609Z" stroke="white" stroke-width="0.146182" stroke-miterlimit="10" stroke-linecap="square"/>
<path d="M113 166.609L112.733 166.894L112.733 135.115L113 135.407L113 166.609Z" stroke="white" stroke-width="0.146182" stroke-miterlimit="10" stroke-linecap="square"/>
<path d="M113 135.407L112.733 135.115L128.979 135.115L128.657 135.407L113 135.407Z" stroke="white" stroke-width="0.146182" stroke-miterlimit="10" stroke-linecap="square"/>
<path d="M128.602 166.492L128.876 166.836L112.787 166.836L113.109 166.492" stroke="white" stroke-width="0.146182" stroke-miterlimit="10" stroke-linecap="square"/>
<path d="M114.625 1.4605L114.467 1.00003L127.521 1.00003L127.356 1.4605L114.625 1.4605Z" stroke="white" stroke-width="0.146182" stroke-miterlimit="10" stroke-linecap="square"/>
<path d="M17.3359 106.741L14.8417 106.741" stroke="white" stroke-width="0.146182" stroke-miterlimit="10" stroke-linecap="square"/>
<path d="M17.3354 109.167L14.8412 109.167" stroke="white" stroke-width="0.146182" stroke-miterlimit="10" stroke-linecap="square"/>
<path d="M17.3354 114.079L14.8412 114.079" stroke="white" stroke-width="0.146182" stroke-miterlimit="10" stroke-linecap="square"/>
<path d="M17.3359 101.887L14.8417 101.887" stroke="white" stroke-width="0.146182" stroke-miterlimit="10" stroke-linecap="square"/>
<path d="M17.3359 104.373L14.8417 104.373" stroke="white" stroke-width="0.146182" stroke-miterlimit="10" stroke-linecap="square"/>
<path d="M17.3354 111.711L14.8412 111.711" stroke="white" stroke-width="0.146182" stroke-miterlimit="10" stroke-linecap="square"/>
<path d="M17.3359 94.4322L14.8417 94.4322" stroke="white" stroke-width="0.146182" stroke-miterlimit="10" stroke-linecap="square"/>
<path d="M17.3359 89.6374L14.8417 89.6374" stroke="white" stroke-width="0.146182" stroke-miterlimit="10" stroke-linecap="square"/>
<path d="M17.3359 92.064L14.8417 92.064" stroke="white" stroke-width="0.146182" stroke-miterlimit="10" stroke-linecap="square"/>
<path d="M115.844 1.90634L126.047 1.90634L126.047 135.348L115.844 135.348L115.844 1.90634Z" stroke="white" stroke-width="0.438546" stroke-miterlimit="10" stroke-linecap="square"/>
<path d="M158.397 128.661L170.148 128.661L170.148 155.068L158.397 155.068L158.397 128.661Z" stroke="white" stroke-width="0.388334" stroke-miterlimit="10" stroke-linecap="square"/>
<path d="M77.327 128.453L89.0786 128.453L89.0786 154.861L77.327 154.861L77.327 128.453Z" stroke="white" stroke-width="0.388334" stroke-miterlimit="10" stroke-linecap="square"/>
<path d="M140.252 128.661L152.004 128.661L152.004 155.068L140.252 155.068L140.252 128.661Z" stroke="white" stroke-width="0.388334" stroke-miterlimit="10" stroke-linecap="square"/>
<path d="M95.4178 128.661L107.169 128.661L107.169 155.068L95.4178 155.068L95.4178 128.661Z" stroke="white" stroke-width="0.388334" stroke-miterlimit="10" stroke-linecap="square"/>
<path d="M201.777 71.2039L201.792 82.2552L201.792 118.801" stroke="white" stroke-width="0.292364" stroke-miterlimit="10" stroke-linecap="square"/>
<path d="M39.8931 70.641L39.9004 87.3935L39.9077 142.804" stroke="white" stroke-width="0.292364" stroke-miterlimit="10" stroke-linecap="square"/>
<path d="M14.8408 76.2545L14.8481 86.1802L14.8481 118.991" stroke="white" stroke-width="0.292364" stroke-miterlimit="10" stroke-linecap="square"/>
</svg>
