<svg width="232" height="169" viewBox="0 0 202 139" fill="none" xmlns="http://www.w3.org/2000/svg">
<path d="M30.5952 133.917H69.3037" stroke="white" stroke-width="0.0182727" stroke-miterlimit="10"/>
<path d="M26.7368 130.467H56.5579H69.3031" fill="white"/>
<path d="M26.7368 130.467H56.5579H69.3031" stroke="white" stroke-width="0.0182727" stroke-miterlimit="10"/>
<path d="M23.4204 127.017H56.558H69.3032" fill="white"/>
<path d="M23.4204 127.017H56.558H69.3032" stroke="white" stroke-width="0.0182727" stroke-miterlimit="10"/>
<path d="M20.5225 123.597H56.5586H69.3038" fill="white"/>
<path d="M20.5225 123.597H56.5586H69.3038" stroke="white" stroke-width="0.0182727" stroke-miterlimit="10"/>
<path d="M17.9937 120.147H56.5583L69.3035 120.147" fill="white"/>
<path d="M17.9937 120.147H56.5583L69.3035 120.147" stroke="white" stroke-width="0.0182727" stroke-miterlimit="10"/>
<path d="M15.7393 116.697H55.037" stroke="white" stroke-width="0.0182727" stroke-miterlimit="10"/>
<path d="M13.772 113.24H55.0364" stroke="white" stroke-width="0.0182727" stroke-miterlimit="10"/>
<path d="M12.0522 109.79H55.0366" stroke="white" stroke-width="0.0182727" stroke-miterlimit="10"/>
<path d="M10.5659 106.34H55.0372" stroke="white" stroke-width="0.0182727" stroke-miterlimit="10"/>
<path d="M9.27051 102.89H55.0369" stroke="white" stroke-width="0.0182727" stroke-miterlimit="10"/>
<path d="M8.14648 99.4402H55.0366" stroke="white" stroke-width="0.0182727" stroke-miterlimit="10"/>
<path d="M7.21631 95.9904H55.0383" stroke="white" stroke-width="0.0182727" stroke-miterlimit="10"/>
<path d="M6.48193 92.5405H55.0371" stroke="white" stroke-width="0.0182727" stroke-miterlimit="10"/>
<path d="M5.89258 89.1198H55.0371" stroke="white" stroke-width="0.0182727" stroke-miterlimit="10"/>
<path d="M5.47461 85.6699H55.0371" stroke="white" stroke-width="0.0182727" stroke-miterlimit="10"/>
<path d="M5.22119 82.2201H49.8089" stroke="white" stroke-width="0.0182727" stroke-miterlimit="10"/>
<path d="M5.13232 78.7701H49.8091" stroke="white" stroke-width="0.0182727" stroke-miterlimit="10"/>
<path d="M5.19336 75.313H49.8085" stroke="white" stroke-width="0.0182727" stroke-miterlimit="10"/>
<path d="M5.4126 71.8631H55.0368" stroke="white" stroke-width="0.0182727" stroke-miterlimit="10"/>
<path d="M5.81055 68.4131H55.0373" stroke="white" stroke-width="0.0182727" stroke-miterlimit="10"/>
<path d="M6.34473 64.9633H55.037" stroke="white" stroke-width="0.0182727" stroke-miterlimit="10"/>
<path d="M7.07812 61.5134L55.0372 61.5134" stroke="white" stroke-width="0.0182727" stroke-miterlimit="10"/>
<path d="M7.94775 58.0927L55.0366 58.0927" stroke="white" stroke-width="0.0182727" stroke-miterlimit="10"/>
<path d="M9.01709 54.6428L55.037 54.6428" stroke="white" stroke-width="0.0182727" stroke-miterlimit="10"/>
<path d="M10.2847 51.1929L55.0369 51.1929" stroke="white" stroke-width="0.0182727" stroke-miterlimit="10"/>
<path d="M11.7441 47.743L55.0368 47.743" stroke="white" stroke-width="0.0182727" stroke-miterlimit="10"/>
<path d="M13.437 44.2931L55.0372 44.2931" stroke="white" stroke-width="0.0182727" stroke-miterlimit="10"/>
<path d="M15.3481 40.836L55.0365 40.836" stroke="white" stroke-width="0.0182727" stroke-miterlimit="10"/>
<path d="M17.5137 37.386L69.3032 37.386" stroke="white" stroke-width="0.0182727" stroke-miterlimit="10"/>
<path d="M19.9878 33.9362L69.3036 33.9362" stroke="white" stroke-width="0.0182727" stroke-miterlimit="10"/>
<path d="M22.8311 30.4863L69.3032 30.4863" stroke="white" stroke-width="0.0182727" stroke-miterlimit="10"/>
<path d="M26.0386 27.0656L69.3038 27.0656" stroke="white" stroke-width="0.0182727" stroke-miterlimit="10"/>
<path d="M29.7788 23.6157L69.3027 23.6157" stroke="white" stroke-width="0.0182727" stroke-miterlimit="10"/>
<path d="M69.3035 20.1659H69.1048H68.3716H65.1373H61.903H59.0936H58.9429H58.8401H58.6962H58.6688H58.1343H56.7844H56.0786H55.4345H55.2358H55.1261H54.8178H52.2002H48.966L45.7317 20.1659H42.4906H39.2563H36.022H34.583H34.2815H34.165" fill="white"/>
<path d="M69.3035 20.1659H69.1048H68.3716H65.1373H61.903H59.0936H58.9429H58.8401H58.6962H58.6688H58.1343H56.7844H56.0786H55.4345H55.2358H55.1261H54.8178H52.2002H48.966L45.7317 20.1659H42.4906H39.2563H36.022H34.583H34.2815H34.165" stroke="white" stroke-width="0.0182727" stroke-miterlimit="10"/>
<path d="M13.375 44.3808L13.375 112.465" stroke="white" stroke-width="0.0182727" stroke-miterlimit="10"/>
<path d="M16.6094 38.7675L16.6094 118.071" stroke="white" stroke-width="0.0182727" stroke-miterlimit="10"/>
<path d="M7.08447 61.5134L7.08447 95.9904" stroke="white" stroke-width="0.0182727" stroke-miterlimit="10"/>
<path d="M10.3188 51.4634L10.3188 105.638" stroke="white" stroke-width="0.0182727" stroke-miterlimit="10"/>
<path d="M19.8511 34.1481L19.8511 122.698" stroke="white" stroke-width="0.0182727" stroke-miterlimit="10"/>
<path d="M23.085 30.1866L23.085 126.659" stroke="white" stroke-width="0.0182727" stroke-miterlimit="10"/>
<path d="M26.3193 26.7952L26.3193 130.043" stroke="white" stroke-width="0.0182727" stroke-miterlimit="10"/>
<path d="M29.5537 23.7984L29.5537 133.047" stroke="white" stroke-width="0.0182727" stroke-miterlimit="10"/>
<path d="M32.7876 21.1818L32.7876 135.657" stroke="white" stroke-width="0.0182727" stroke-miterlimit="10"/>
<path d="M36.0215 18.8721L36.0215 137.966" stroke="white" stroke-width="0.0182727" stroke-miterlimit="10"/>
<path d="M39.2563 18.8721L39.2563 137.966" stroke="white" stroke-width="0.0182727" stroke-miterlimit="10"/>
<path d="M42.4912 18.8721L42.4912 137.966" stroke="white" stroke-width="0.0182727" stroke-miterlimit="10"/>
<path d="M45.7319 18.8721L45.7319 137.966" stroke="white" stroke-width="0.0182727" stroke-miterlimit="10"/>
<path d="M48.9653 18.8721L48.9653 137.966" stroke="white" stroke-width="0.0182727" stroke-miterlimit="10"/>
<path d="M52.2012 18.8722L52.2012 73.5734" stroke="white" stroke-width="0.0182727" stroke-miterlimit="10"/>
<path d="M52.2012 83.1483L52.2012 137.966" stroke="white" stroke-width="0.0182727" stroke-miterlimit="10"/>
<path d="M55.4341 37.598V37.408V37.4007V37.386V33.9361V30.4863V27.0656V23.6157V23.1918V22.7971V22.7752V21.6057V20.8529V20.1658V19.413V19.0841V18.894V18.8721" fill="white"/>
<path d="M55.4341 37.598V37.408V37.4007V37.386V33.9361V30.4863V27.0656V23.6157V23.1918V22.7971V22.7752V21.6057V20.8529V20.1658V19.413V19.0841V18.894V18.8721" stroke="white" stroke-width="0.0182727" stroke-miterlimit="10"/>
<path d="M55.4341 134.071V133.917V133.713V133.647V130.467V127.017V123.597V120.147V119.248V119.036" fill="white"/>
<path d="M55.4341 134.071V133.917V133.713V133.647V130.467V127.017V123.597V120.147V119.248V119.036" stroke="white" stroke-width="0.0182727" stroke-miterlimit="10"/>
<path d="M58.6685 37.598V37.503V37.4957V37.386V33.9361V30.4863V27.0656V23.6157V23.1918V23.1479V22.7752V22.534" fill="white"/>
<path d="M58.6685 37.598V37.503V37.4957V37.386V33.9361V30.4863V27.0656V23.6157V23.1918V23.1479V22.7752V22.534" stroke="white" stroke-width="0.0182727" stroke-miterlimit="10"/>
<path d="M58.6685 21.7885V20.3413V20.1659V19.5958V19.0842V18.938V18.8722" fill="white"/>
<path d="M58.6685 21.7885V20.3413V20.1659V19.5958V19.0842V18.938V18.8722" stroke="white" stroke-width="0.0182727" stroke-miterlimit="10"/>
<path d="M58.6685 134.071V134.063V133.917V133.647V130.467V127.017V123.597V120.147V119.248V119.036" fill="white"/>
<path d="M58.6685 134.071V134.063V133.917V133.647V130.467V127.017V123.597V120.147V119.248V119.036" stroke="white" stroke-width="0.0182727" stroke-miterlimit="10"/>
<path d="M61.9028 18.8721V37.598" stroke="white" stroke-width="0.0182727" stroke-miterlimit="10"/>
<path d="M61.9028 119.036V137.966" stroke="white" stroke-width="0.0182727" stroke-miterlimit="10"/>
<path d="M65.1377 18.8721V37.598" stroke="white" stroke-width="0.0182727" stroke-miterlimit="10"/>
<path d="M65.1377 119.036V137.966" stroke="white" stroke-width="0.0182727" stroke-miterlimit="10"/>
<path d="M68.3706 119.036V137.966" stroke="white" stroke-width="0.0182727" stroke-miterlimit="10"/>
<path d="M198.928 30.7933V41.7715H201.285V30.7933H198.928ZM199.038 41.6546V30.9102H201.183V41.6546H199.038Z" fill="white"/>
<path d="M198.901 47.056V58.0343H201.259V47.056H198.901ZM199.011 57.9173V47.173H201.156V57.9173H199.011Z" fill="white"/>
<path d="M198.901 47.056V58.0343H201.259V47.056H198.901ZM199.011 57.9173V47.173H201.156V57.9173H199.011Z" fill="white"/>
<path d="M56.1616 55.2495V55.9073H57.0319V55.2495H56.1616ZM56.2713 55.7904V55.3664H56.9222V55.7904H56.2713Z" fill="white"/>
<path d="M56.1616 55.2495V55.9073H57.0319V55.2495H56.1616ZM56.2713 55.7904V55.3664H56.9222V55.7904H56.2713Z" fill="white"/>
<path d="M56.1616 100.829V101.487H57.0319V100.829H56.1616ZM56.2713 101.363V100.939H56.9222V101.363H56.2713Z" fill="white"/>
<path d="M56.1616 100.829V101.487H57.0319V100.829H56.1616ZM56.2713 101.363V100.939H56.9222V101.363H56.2713Z" fill="white"/>
<path d="M198.901 86.9053V97.8835H201.259V86.9053H198.901ZM199.011 97.7666V87.0222H201.156V97.7666H199.011Z" fill="white"/>
<path d="M198.901 86.9053V97.8835H201.259V86.9053H198.901ZM199.011 97.7666V87.0222H201.156V97.7666H199.011Z" fill="white"/>
<path d="M198.901 103.197V114.175H201.259V103.197H198.901ZM199.011 114.059V103.314H201.156V114.059H199.011Z" fill="white"/>
<path d="M198.901 103.197V114.175H201.259V103.197H198.901ZM199.011 114.059V103.314H201.156V114.059H199.011Z" fill="white"/>
<path d="M198.928 30.7933V41.7715H201.285V30.7933H198.928ZM199.038 41.6546V30.9102H201.183V41.6546H199.038Z" fill="white"/>
<path d="M89.8616 42.7948H89.752V29.77H89.8616V42.7948Z" fill="white"/>
<path d="M89.7994 29.8285L73.4019 29.8285V29.7115L89.7994 29.7115V29.8285Z" fill="white"/>
<path d="M121.785 135.533H100.379V135.306H121.785V135.533Z" fill="white"/>
<path d="M121.785 136.373H100.379V136.147H121.785V136.373Z" fill="white"/>
<path d="M121.785 135.533H100.379V135.306H121.785V135.533Z" fill="white"/>
<path d="M121.785 133.778H100.379V133.552H121.785V133.778Z" fill="white"/>
<path d="M121.785 138.127H100.379V137.901H121.785V138.127Z" fill="white"/>
<path d="M121.785 136.373H100.379V136.147H121.785V136.373Z" fill="white"/>
<path d="M119.23 20.7068H109.048V20.5898H119.23V20.7068Z" fill="white"/>
<path d="M119.23 21.5473H109.048V21.4303H119.23V21.5473Z" fill="white"/>
<path d="M119.23 20.7068H109.048V20.5898H119.23V20.7068Z" fill="white"/>
<path d="M119.23 18.9526H109.048V18.8357H119.23V18.9526Z" fill="white"/>
<path d="M119.23 23.3014H109.048V23.1845H119.23V23.3014Z" fill="white"/>
<path d="M119.23 21.5473H109.048V21.4303H119.23V21.5473Z" fill="white"/>
<path d="M179.037 134.816H171.308V134.699H179.037V134.816Z" fill="white"/>
<path d="M179.091 120.264H171.3V120.118H179.091V120.264Z" fill="white"/>
<path d="M179.09 134.758H178.98V120.176H179.09V134.758Z" fill="white"/>
<path d="M177.857 120.929L177.892 121.134L178.022 121.302L178.173 121.433L178.364 121.47L178.556 121.433L178.714 121.295L178.837 121.134L178.872 120.929L178.837 120.724L178.707 120.556L178.556 120.425L178.364 120.388L178.173 120.425L178.015 120.564L177.892 120.724L177.857 120.929ZM177.988 121.083L177.96 120.929L177.988 120.776L178.09 120.644L178.214 120.534L178.358 120.505L178.502 120.534L178.625 120.644L178.728 120.776L178.755 120.929L178.728 121.083L178.625 121.214L178.502 121.324L178.358 121.353L178.214 121.324L178.09 121.214L177.988 121.083Z" fill="white"/>
<path d="M178.111 133.53H178.001V122.427H178.111V133.53Z" fill="white"/>
<path d="M176.987 121.287H172.231V121.17H176.987V121.287Z" fill="white"/>
<path d="M171.934 133.685L171.836 133.633L177.325 121.99L177.423 122.043L171.934 133.685Z" fill="white"/>
<path d="M71.0379 35.6173H70.9282V24.756H71.0379V35.6173Z" fill="white"/>
<path d="M71.7981 35.6173H71.6885V24.756H71.7981V35.6173Z" fill="white"/>
<path d="M71.0379 35.6173H70.9282V24.756H71.0379V35.6173Z" fill="white"/>
<path d="M71.7981 35.6173H71.6885V24.756H71.7981V35.6173Z" fill="white"/>
<path d="M70.9282 35.0253V35.6831H71.7985V35.0253H70.9282ZM71.0379 35.5661V35.1422H71.6888V35.5661H71.0379Z" fill="white"/>
<path d="M71.4075 35.0838H71.2979V25.3042H71.4075V35.0838Z" fill="white"/>
<path d="M162.667 18.8503V21.3354L178.05 21.3354V18.8503L162.667 18.8503ZM162.776 21.2185V18.9599H177.947V21.2185L162.776 21.2185Z" fill="white"/>
<path d="M75.4841 36.2825H75.3745V23.2284H75.4841V36.2825Z" fill="white"/>
<path d="M78.5476 36.2825H78.438V23.2284H78.5476V36.2825Z" fill="white"/>
<path d="M81.6174 36.2825H81.5078V23.2284H81.6174V36.2825Z" fill="white"/>
<path d="M97.6104 28.6371L97.6378 28.7468L98.1996 28.564L98.741 28.3228L99.2549 27.9866L99.7414 27.5919L100.166 27.1388L100.536 26.6271L100.851 26.0789L101.078 25.5015L101.249 24.8949L101.146 24.8656L100.975 25.465L100.756 26.0278L100.447 26.5613L100.084 27.0657L99.666 27.5115L99.1932 27.8916L98.693 28.2205L98.1654 28.4544L97.6104 28.6371Z" fill="white"/>
<path d="M96.5048 33.5501L96.5039 33.4332L103.062 33.3787L103.062 33.4957L96.5048 33.5501Z" fill="white"/>
<path d="M97.0078 31.4439L97.0352 32.2041L97.1175 32.9277L97.2271 32.913L97.1449 32.1894L97.1175 31.4512L97.1517 30.8811L97.2888 30.1721L97.4806 29.2731L97.7616 28.5934L98.0631 27.9355L98.4536 27.3143L98.9059 26.7442L99.3787 26.2106L99.9063 25.7647L100.496 25.3481L101.105 25.0192L101.75 24.7195L102.421 24.5441L103.093 24.398L103.792 24.3322L104.484 24.3687L105.155 24.4564L105.169 24.3395L104.497 24.2518L103.785 24.2225L103.079 24.281L102.394 24.4345L101.715 24.6099L101.064 24.9169L100.441 25.2458L99.8447 25.6697L99.3102 26.1229L98.8237 26.6711L98.3714 27.2412L97.974 27.8771L97.6588 28.5422L97.3778 29.2366L97.186 30.1502L97.0421 30.8665L97.0078 31.4439Z" fill="white"/>
<path d="M100.016 27.8551L100.084 28.0378L100.207 28.1328L100.269 28.0451L100.173 27.9647L100.125 27.8404L100.153 27.6943L100.235 27.5993L100.372 27.5773L100.488 27.6285L100.564 27.7308L100.646 27.665L100.557 27.5335L100.386 27.4604L100.187 27.4969L100.05 27.6431L100.016 27.8551Z" fill="white"/>
<path d="M100.229 28.1474L100.42 28.1767L100.592 28.0743L100.688 27.8916L100.66 27.687L100.551 27.7089L100.578 27.8697L100.509 27.9866L100.4 28.0597L100.249 28.0305L100.229 28.1474Z" fill="white"/>
<path d="M96.4805 30.5813V30.6983H97.0972L97.3027 30.8591L97.4946 31.1222L97.5974 31.4073L97.6522 31.7508L97.6248 32.0651L97.4946 32.3867L97.3302 32.6352L97.0149 32.8618H96.501V32.9787H97.0492L97.4192 32.7156L97.5837 32.4452L97.7344 32.087L97.7618 31.7508L97.7002 31.3707L97.5837 31.0564L97.3781 30.7714L97.1383 30.5813H96.4805Z" fill="white"/>
<path d="M102.928 24.3759L103.133 24.6536L103.401 24.8729L103.688 24.9971L104.038 25.0556L104.367 25.0191L104.682 24.8729L104.949 24.6755L105.148 24.4051L105.066 24.332L104.874 24.5951L104.627 24.7706L104.332 24.9094L104.038 24.9387L103.716 24.8802L103.448 24.7706L103.202 24.5659L103.01 24.3028L102.928 24.3759Z" fill="white"/>
<path d="M103.037 24.3613H102.928V23.6742H103.037V24.3613Z" fill="white"/>
<path d="M105.217 24.3905H105.107V23.6816H105.217V24.3905Z" fill="white"/>
<path d="M103.044 33.3734L103.058 33.4904L103.51 33.4246L103.983 33.3003L104.374 33.0591L104.744 32.7887L105.093 32.4086L105.347 31.992L105.552 31.5534L105.669 31.0711L105.724 30.6179V23.6816H105.614V30.6106L105.559 31.0491L105.45 31.5169L105.258 31.9335L105.011 32.3428L104.675 32.701L104.319 32.9641L103.935 33.198L103.49 33.3149L103.044 33.3734Z" fill="white"/>
<path d="M96.4253 23.857V34.002H96.4801L102.777 33.7827L103.25 33.7608L103.709 33.6658L104.209 33.5123L104.627 33.2419L105.004 32.9056L105.354 32.5329L105.6 32.0797L105.806 31.59L105.923 31.1003L105.977 30.6179L106.005 23.6231H96.5007V23.7327H105.895L105.868 30.6106L105.813 31.0857L105.703 31.5535L105.511 32.0285L105.265 32.4671L104.929 32.8179L104.566 33.1468L104.155 33.41L103.689 33.5562L103.243 33.6439L102.743 33.6731L96.5349 33.8851V23.857H96.4253Z" fill="white"/>
<path d="M97.1167 32.8618V32.9787H103.023L103.455 32.8837L103.859 32.7375L104.229 32.5183L104.551 32.2478L104.846 31.8604L105.017 31.4731L105.154 31.0199L105.216 30.6179V24.3686H105.106V30.6106L105.052 30.9907L104.915 31.4292L104.75 31.8093L104.476 32.1601L104.175 32.4232L103.818 32.6279L103.428 32.7741L103.016 32.8618H97.1167Z" fill="white"/>
<path d="M97.5688 32.3209V32.4378H103.037L103.4 32.3428L103.756 32.2185L104.072 31.9773L104.339 31.685L104.503 31.3561L104.654 30.976L104.709 30.6178V24.851H104.599V30.6105L104.551 30.9541L104.407 31.3049L104.25 31.6265L103.996 31.8896L103.702 32.1162L103.373 32.2331L103.016 32.3209H97.5688Z" fill="white"/>
<path d="M153.574 133.117L153.464 133.113L153.492 132.032L153.602 132.035L153.574 133.117Z" fill="white"/>
<path d="M152.936 130.416L152.963 130.847L153.073 131.264L153.251 131.673L153.504 132.032L153.593 131.966L153.34 131.608L153.175 131.228L153.066 130.818L153.038 130.409L152.936 130.416Z" fill="white"/>
<path d="M152.963 130.438L153.066 130.445L153.128 129.663L153.292 128.925L153.19 128.896L153.018 129.649L152.963 130.438Z" fill="white"/>
<path d="M153.163 128.859L153.265 128.896L153.457 128.297L153.738 127.734L153.642 127.683L153.361 128.253L153.163 128.859Z" fill="white"/>
<path d="M153.648 127.675L153.73 127.748L154.093 127.273L154.511 126.915L154.443 126.827L154.011 127.193L153.648 127.675Z" fill="white"/>
<path d="M154.456 126.849L154.504 126.952L154.833 126.776L155.217 126.718L155.203 126.601L154.792 126.667L154.456 126.849Z" fill="white"/>
<path d="M155.204 126.718L155.588 126.776L155.917 126.981L155.972 126.879L155.608 126.659L155.218 126.601L155.204 126.718Z" fill="white"/>
<path d="M155.93 126.937L156.328 127.361L156.657 127.836L156.746 127.763L156.403 127.288L156.006 126.857L155.93 126.937Z" fill="white"/>
<path d="M156.649 127.851L156.903 128.421L157.067 129.013L157.177 128.984L157.006 128.384L156.752 127.807L156.649 127.851Z" fill="white"/>
<path d="M157.068 129.006L157.184 129.758L157.212 130.533L157.315 130.526L157.287 129.744L157.178 128.991L157.068 129.006Z" fill="white"/>
<path d="M156.602 132.053L156.684 132.127L156.937 131.798L157.143 131.388L157.259 130.964L157.314 130.541L157.211 130.519L157.157 130.943L157.047 131.345L156.848 131.732L156.602 132.053Z" fill="white"/>
<path d="M156.664 133.204L156.555 133.201L156.583 132.09L156.693 132.093L156.664 133.204Z" fill="white"/>
<path d="M153.834 130.445L153.868 130.76L153.978 131.059L154.129 131.352L154.368 131.6L154.636 131.754L154.958 131.849H155.239L155.574 131.783L155.835 131.622L156.068 131.403L156.239 131.132L156.362 130.84L156.417 130.511L156.308 130.489L156.253 130.811L156.143 131.074L155.986 131.33L155.766 131.534L155.526 131.673L155.232 131.732H154.965L154.67 131.644L154.43 131.505L154.211 131.271L154.074 131.008L153.971 130.723L153.944 130.431L153.834 130.445Z" fill="white"/>
<path d="M153.525 130.446L153.552 130.818L153.669 131.191L153.847 131.498L154.1 131.768L154.402 131.995L154.71 132.112L155.094 132.178L155.45 132.141L155.8 132.017L156.095 131.827L156.341 131.564L156.554 131.242L156.663 130.906L156.725 130.511L156.622 130.489L156.56 130.884L156.458 131.191L156.259 131.483L156.019 131.747L155.752 131.915L155.423 132.032L155.101 132.061L154.738 132.002L154.45 131.885L154.169 131.681L153.929 131.425L153.765 131.133L153.662 130.789L153.635 130.438L153.525 130.446Z" fill="white"/>
<path d="M152.819 134.875L157.232 134.999L157.26 133.143H157.205L152.874 133.018L152.819 134.875ZM157.123 134.882L152.929 134.765L152.984 133.143L157.15 133.259L157.123 134.882Z" fill="white"/>
<path d="M156.634 132.992L153.511 132.902L153.514 132.785L156.637 132.875L156.634 132.992Z" fill="white"/>
<path d="M154.808 127.473L154.779 127.36L155.203 127.24L155.231 127.353L154.808 127.473Z" fill="white"/>
<path d="M155.458 130.109H154.841V129.992H155.458V130.109Z" fill="white"/>
<path d="M154.409 128.18L154.491 128.26L154.745 127.96L155.019 127.69L154.951 127.61L154.67 127.873L154.409 128.18Z" fill="white"/>
<path d="M155.43 130.979H154.813V130.862H155.43V130.979Z" fill="white"/>
<path d="M155.582 127.495L155.188 127.345L155.225 127.235L155.618 127.385L155.582 127.495Z" fill="white"/>
<path d="M155.415 127.738L155.162 127.648L155.196 127.537L155.45 127.627L155.415 127.738Z" fill="white"/>
<path d="M154.974 127.694L154.948 127.58L155.175 127.519L155.202 127.634L154.974 127.694Z" fill="white"/>
<path d="M156.164 129.23L155.854 128.301L155.958 128.261L156.267 129.191L156.164 129.23Z" fill="white"/>
<path d="M156.478 129.13L156.587 129.817L156.615 130.533L156.724 130.526L156.697 129.81L156.587 129.108L156.478 129.13Z" fill="white"/>
<path d="M156.197 129.218L156.279 129.846L156.307 130.533L156.417 130.526L156.389 129.839L156.3 129.203L156.197 129.218Z" fill="white"/>
<path d="M156.115 128.158L156.341 128.633L156.478 129.166L156.581 129.137L156.444 128.596L156.211 128.107L156.115 128.158Z" fill="white"/>
<path d="M155.567 127.449L155.903 127.778L156.149 128.136L156.238 128.063L155.985 127.705L155.642 127.368L155.567 127.449Z" fill="white"/>
<path d="M155.396 127.719L155.65 127.99L155.869 128.311L155.958 128.245L155.732 127.916L155.471 127.639L155.396 127.719Z" fill="white"/>
<path d="M155.494 130.921L155.385 130.917L155.414 130.048L155.523 130.052L155.494 130.921Z" fill="white"/>
<path d="M154.156 128.004L154.238 128.077L154.519 127.719L154.848 127.42L154.78 127.332L154.444 127.631L154.156 128.004Z" fill="white"/>
<path d="M153.553 130.431L153.662 130.445L153.717 129.751L153.854 129.071L153.751 129.049L153.608 129.737L153.553 130.431Z" fill="white"/>
<path d="M153.861 130.431L153.97 130.445L154.025 129.817L154.135 129.159L154.032 129.137L153.916 129.802L153.861 130.431Z" fill="white"/>
<path d="M154.102 129.166L154.001 129.12L154.367 128.19L154.468 128.236L154.102 129.166Z" fill="white"/>
<path d="M153.724 129.042L153.826 129.079L153.991 128.567L154.244 128.099L154.148 128.041L153.895 128.523L153.724 129.042Z" fill="white"/>
<path d="M154.878 130.921L154.769 130.917L154.797 130.048L154.907 130.052L154.878 130.921Z" fill="white"/>
<path d="M170.63 135.626L170.52 135.625L170.639 119.333L170.749 119.334L170.63 135.626Z" fill="white"/>
<path d="M73.4563 41.9835H73.3467V23.2284H73.4563V41.9835Z" fill="white"/>
<path d="M69.3792 37.6346H69.2695V18.9087H69.3792V37.6346Z" fill="white"/>
<path d="M84.7688 36.2825H84.6592V23.2284H84.7688V36.2825Z" fill="white"/>
<path d="M94.8978 36.3409H84.7153V36.224H94.8978V36.3409Z" fill="white"/>
<path d="M84.7441 36.3237L84.6841 36.2258L94.8676 29.1188L94.9277 29.2166L84.7441 36.3237Z" fill="white"/>
<path d="M84.7649 36.3009L84.6621 36.2602L89.1998 23.2121L89.3026 23.2527L84.7649 36.3009Z" fill="white"/>
<path d="M94.8978 39.5789H84.7153V39.4619H94.8978V39.5789Z" fill="white"/>
<path d="M94.8978 42.846H84.7153V42.7291H94.8978V42.846Z" fill="white"/>
<path d="M56.2708 114.716H56.1611V87.563H56.2708V114.716Z" fill="white"/>
<path d="M57.0315 114.716H56.9219V87.563H57.0315V114.716Z" fill="white"/>
<path d="M56.1611 114.117V114.775H57.0314V114.117H56.1611ZM56.2708 114.658V114.234H56.9217V114.658H56.2708Z" fill="white"/>
<path d="M56.2708 114.716H56.1611V87.563H56.2708V114.716Z" fill="white"/>
<path d="M57.0315 114.716H56.9219V87.563H57.0315V114.716Z" fill="white"/>
<path d="M56.1611 114.117V114.775H57.0314V114.117H56.1611ZM56.2708 114.658V114.234H56.9217V114.658H56.2708Z" fill="white"/>
<path d="M55.0098 87.5046V114.775H58.1824V87.5046H55.0098ZM55.1125 114.658V87.6142H58.0727V114.658H55.1125Z" fill="white"/>
<path d="M56.2708 69.1076H56.1611V42.042H56.2708V69.1076Z" fill="white"/>
<path d="M57.0315 69.1076H56.9219V42.0421H57.0315V69.1076Z" fill="white"/>
<path d="M56.1611 68.5082V69.166H57.0314V68.5082H56.1611ZM56.2708 69.0491V68.6252H56.9217V69.0491H56.2708Z" fill="white"/>
<path d="M57.0315 69.1076H56.9219V68.5668H57.0315V69.1076Z" fill="white"/>
<path d="M56.2708 69.1076H56.1611V68.5667H56.2708V69.1076Z" fill="white"/>
<path d="M56.2708 69.1076H56.1611V42.042H56.2708V69.1076Z" fill="white"/>
<path d="M56.1611 68.5082V69.166H57.0314V68.5082H56.1611ZM56.2708 69.0491V68.6252H56.9217V69.0491H56.2708Z" fill="white"/>
<path d="M56.1611 41.9836V42.6414H57.0314V41.9836H56.1611ZM56.2708 42.5245V42.1005H56.9217V42.5245H56.2708Z" fill="white"/>
<path d="M57.0315 69.1076H56.9219V68.5668H57.0315V69.1076Z" fill="white"/>
<path d="M56.2708 69.1076H56.1611V68.5667H56.2708V69.1076Z" fill="white"/>
<path d="M55.0098 41.9835V69.166H58.1824V41.9835H55.0098ZM55.1125 69.0491V42.1005H58.0727V69.0491H55.1125Z" fill="white"/>
<path d="M118.667 20.5898V21.5473H119.284V20.5898H118.667ZM118.777 21.4303V20.7068H119.175V21.4303H118.777Z" fill="white"/>
<path d="M109.075 20.5898V21.5473H109.691V20.5898H109.075ZM109.184 21.4303V20.7068H109.582V21.4303H109.184Z" fill="white"/>
<path d="M128.089 44.5343L129.158 44.7462L130.227 44.9582H127.699L127.897 44.7462L127.699 44.9582V44.9363V23.4695H126.883V44.9582L117.907 44.5416H126.458V44.5343V23.4768H119.031L119.051 23.2502L119.065 23.0675L119.031 23.4768V23.0236V19.1206V18.6674L119.174 18.8355L119.031 18.6674H119.037H119.421H130.645L130.446 20.6993L130.22 23.0163V19.1133H130.213H119.414V19.1206V23.0163H130.22L130.426 23.2356L130.22 23.0163L130.645 18.6674V23.4695H128.082L128.089 44.5343ZM126.876 23.4695L126.685 33.0151L126.876 23.4695ZM128.082 23.4695L127.89 34.0604L127.849 36.2823L128.082 23.4695Z" fill="white"/>
<path d="M128.089 44.5343H130.652L130.227 44.951L128.089 44.5343Z" fill="white"/>
<path d="M130.618 47.6553L124.492 47.4434L118.332 47.2314H130.227L130.433 45.9377L130.227 47.2314V44.951L130.44 44.7463L130.652 44.5343V47.6553H117.907L118.332 47.2314L130.618 47.6553Z" fill="white"/>
<path d="M122.395 44.7463L126.883 44.951H118.332V44.9583V47.2314L118.119 47.4434L117.907 47.6553V47.648V44.5343L122.395 44.7463Z" fill="white"/>
<path d="M94.7805 42.7947L94.8284 39.5203L94.8833 36.2823L94.897 35.5587L95.0957 23.4695V47.2314L104.353 47.4945L102.633 47.4433L95.0957 47.2314H109.746V44.9509L109.958 44.7463L110.171 44.5343V47.3337L117.119 51.6168L116.92 51.975L109.862 47.6553H94.6982L94.7805 42.7947Z" fill="white"/>
<path d="M96.3291 44.5343H110.171L109.746 44.951L96.3291 44.5343Z" fill="white"/>
<path d="M93.5748 52.4866L85.7084 47.6553H83.2759L83.7007 47.2313L84.845 47.4506L84.4956 47.3848L83.7007 47.2313H85.5303L85.6673 47.3848L85.7084 47.4287L85.5303 47.2313L85.9209 44.5343V47.2533L93.7736 52.0919L93.5748 52.4866Z" fill="white"/>
<path d="M84.5155 44.9509V36.5162H84.5087H73.5999V37.386H83.7001L83.474 37.6126L83.2821 37.8026L83.6933 37.3933V37.4006V47.2387L83.5425 47.3922L83.2684 47.6626V47.6553V37.8246H83.2616H73.593V42.2027L66.3707 41.9907L58.1206 41.7495H73.2024V37.8172V36.0777V35.8365H73.1956H69.5159V37.8465L69.3172 37.8392L69.5159 37.8465H69.3172H55.2495L55.0233 40.317L55.2495 37.8465V41.7495L58.1206 42.2027H54.8589L55.0508 41.9834L54.8589 42.2027V37.4299H55.0576H69.1253V35.6318V35.4199L69.324 35.4418L70.7973 35.5953L69.1253 35.4199H73.5999L73.4011 35.6318L73.5999 35.4199V35.6318V36.085H84.9061L84.7348 36.2823L84.7417 36.2677L84.9061 36.0777V36.085V44.5343L84.5155 44.9509ZM71.1125 35.6172L71.1536 35.6245L71.3112 35.6391L71.1125 35.6172Z" fill="white"/>
<path d="M85.5298 47.2314V44.9509L85.0158 44.6074L85.2146 44.7463L85.5298 44.9509H84.5156L84.9062 44.5343H85.9203L85.5298 47.2314Z" fill="white"/>
<path d="M50.9258 74.7501H54.1052L53.6804 77.4764V75.196H51.3506L50.9258 74.7501Z" fill="white"/>
<path d="M51.1519 76.4604L50.9258 77.9003V74.7501L51.3438 75.1959L51.1519 76.4604Z" fill="white"/>
<path d="M51.3506 75.1959V77.4764H53.6804L54.1052 77.9003L53.4885 77.8053L54.1052 77.9003H50.9258L51.3506 75.1959Z" fill="white"/>
<path d="M53.6807 77.4764L53.8794 76.2046L54.1055 74.7501V77.9003L53.8794 77.6737L53.6807 77.4764Z" fill="white"/>
<path d="M51.3506 79.216V81.4964L54.1052 81.9203H50.9258L51.3506 79.216Z" fill="white"/>
<path d="M51.3501 81.4964H53.6799L54.1047 81.9203L51.3501 81.4964Z" fill="white"/>
<path d="M54.1055 78.7701V81.9203L53.6807 81.4964L54.1055 78.7701Z" fill="white"/>
<path d="M50.9258 78.7701H54.1052L53.6804 81.4964V79.216L53.7763 79.1209L53.6804 79.216L52.2825 78.9894L53.6804 79.216H51.3506H51.3438L50.9258 81.9203V78.7701L51.1519 79.0113L51.1588 79.0186L50.9258 78.7701Z" fill="white"/>
<path d="M49.6036 73.3394H54.8661L54.8798 71.8995H54.8592V68.8955H58.3196V70.0357H66.4807V73.186V83.6014V86.7516H58.3196V87.8041L58.1209 87.7749L57.0725 87.6214L58.3128 87.8041H54.8524L55.058 87.5702L55.0511 87.5775L54.8524 87.8041V83.3383H49.5898V83.331L49.6036 73.3394ZM66.0627 73.186H65.1034L59.8134 75.3494V78.412V81.4745L65.028 83.6014H66.0559V73.186H66.0627ZM58.3265 86.3277H66.0627V84.0473H65.2473V85.4579H58.3265V86.3277ZM58.3265 73.3394L58.3539 83.331L58.3265 83.3017L58.3539 83.331H58.3265V85.0121H64.8499V83.9742L59.4229 81.7668V78.4046V75.0425L64.8499 72.8059V71.768H58.3265V73.3394ZM58.3265 71.3587H65.2473V72.7693H66.0627V70.4889H58.3265V71.3587ZM57.9017 71.7753V70.0357V69.3487H55.2567V73.3394H57.9017V71.7753ZM56.8807 87.5922L56.6888 87.5629L56.4695 87.5337L56.8807 87.5922ZM55.2567 87.351H57.9017V86.7516V86.7443V85.0121V83.331H55.2567V87.351ZM55.243 83.331L55.0922 85.1436L55.243 83.331ZM50.0284 82.907H57.9085V73.7853H50.0284V73.7926V82.907Z" fill="white"/>
<path d="M179.036 120.205H171.354V120.176H179.036V120.205Z" fill="white"/>
<path d="M159.007 0.45317H157.376L156.986 2.61667V0.45317L129.474 0.45317V2.61667L127.445 2.16351H129.076V0.45317H127.445L127.021 2.61667V0.45317L99.5361 0.45317V2.61667L97.5078 2.16351L99.1113 2.16351V0.45317L97.5078 0.45317L97.083 9.77516e-06L99.5293 9.77516e-06L127.014 9.77516e-06L129.46 9.77516e-06L156.972 9.77516e-06L159.391 9.77516e-06L159.007 0.45317ZM127.021 0.219283L112.795 0.116962L127.021 0.219283ZM129.467 0.241213L139.197 0.314304L129.467 0.241213Z" fill="white"/>
<path d="M97.5147 0.453201V2.16354L99.543 2.6167H97.5147V18.6675H108.848H109.239L109.218 18.894L109.205 19.0768L109.239 18.6675V19.1206V20.8894V21.2476V23.0164V23.4695H108.848H96.3224L96.3087 24.0835V24.0981V44.549L96.3293 44.527L103.038 44.739L109.746 44.951H95.9044L95.9113 44.6294L95.9044 44.951V23.4622H95.089L94.6984 47.648V23.4622H73.6003V24.9606H69.1326L69.3313 24.7486L69.1326 24.9606V24.9533V24.7486V24.7413V19.106H59.1146V23.2137L58.6897 23.1699L57.2713 23.0164L59.1146 23.2137H54.8387V19.106L36.1869 19.106L33.1787 21.2037L30.2802 23.4842L27.553 25.9473L24.908 28.5567L22.4343 31.3195L20.0977 34.2285L17.905 37.2618L15.8767 40.412L14.0198 43.6792L12.3067 47.0706L10.7855 50.5205L9.46299 54.0946L8.69554 56.4847L8.30496 57.698L7.77048 59.708L7.31823 61.3891L6.55763 65.1387L6.3452 66.5128L5.96833 68.9175L5.57775 72.6963L5.37903 76.5336L5.37903 80.3416L5.39274 80.5536L5.57775 84.1862L5.96833 87.965L6.44114 90.9909L6.55763 91.7438L7.31823 95.4933L8.30496 99.1844L9.45614 102.788L10.7786 106.362L12.2998 109.812L14.0129 113.203L15.8699 116.47L17.8981 119.621L20.0909 122.654L22.4275 125.563L24.9012 128.326L27.5461 130.935L30.2733 133.398L33.1719 135.679L36.18 137.776H54.8593V133.669H59.1351V137.776H69.1189V131.352H69.1257H73.5934L73.3878 131.586L73.5934 131.352V133.42L73.2028 133.873V131.82H69.5163V131.827V137.791L69.3176 138.018L69.5163 137.791L89.1823 138.076L69.5163 137.791H100.18V137.784V136.468V135.211V133.888L75.2996 133.464L100.18 133.888H73.2028L73.6003 133.435H100.605L100.585 133.661L100.564 133.844L100.605 133.435V133.888V135.211H101.112V136.468H100.605V137.791V138.244L100.393 138.018L100.605 138.244H100.358H100.605H69.3244H69.1257H59.142H54.8661H35.9059L32.9252 136.052L30.0267 133.742L27.272 131.279L24.6271 128.64L22.126 125.877L19.7894 122.939L17.5624 119.906L15.5341 116.726L13.6497 113.423L11.9641 110.031L10.4155 106.552L9.06556 102.949L7.91438 99.316L6.92765 95.5957L6.13964 91.8461L5.57775 88.0381L5.18717 84.23L4.98845 80.3928L4.98845 76.5189L5.14606 73.4491L5.18717 72.6817L5.21458 72.4112L5.57775 68.8736L6.13964 65.0656L6.92765 61.316L7.91438 57.5957L8.1405 56.894L9.07241 53.9704L10.4223 50.367L11.1555 48.7151L7.00988 46.6613L6.94821 46.7709L6.7632 46.9098L6.53707 46.9464L6.3315 46.9171L6.13964 46.7855L6.00944 46.5882L5.96833 46.347L5.99574 46.1423L2.24755 44.2858L2.19273 44.4174L0.801717 43.745L0 43.3503L0.0822281 43.1383L1.88438 39.2645L3.87839 35.5149L6.04371 31.8531L8.38033 28.3447L10.9088 24.9533L13.5812 21.7154L16.3975 18.6236L19.3782 15.6854L21.0639 14.1943L22.5029 12.9225L23.3114 12.272L25.7371 10.3132L29.0879 7.91579L31.171 6.59283L32.5757 5.70113L32.7744 6.08852L29.314 8.28125L27.8819 9.31181L25.9701 10.6859L22.7633 13.266L19.666 16.0289L18.3709 17.2934L16.6853 18.9379L13.869 22.0296L12.9439 23.1479L11.224 25.2383L8.72294 28.6298L6.38632 32.1089L4.221 35.7415L2.2544 39.4911L1.58287 40.931L0.541331 43.1602L0.808567 43.2918L2.01457 43.8765L3.11093 41.5303L3.65912 40.3608L5.24199 37.3495L5.5709 36.7282L6.13278 35.7854L7.65399 33.2199L8.20217 32.3866L9.90154 29.7992L12.3204 26.5321L14.3692 24.0323L14.8831 23.4111L15.7808 22.4243L17.6103 20.4143L19.481 18.5578L20.4472 17.593L23.4279 14.896L26.5526 12.4036L29.7868 10.0647L31.8836 8.69786L33.1033 7.90117L33.2404 8.14967L33.3021 8.26663L30.2322 10.262L32.843 14.6109C33.8228 13.9677 34.3984 13.6461 34.4053 13.6388L34.419 13.6315L36.6597 13.6096V8.28854H33.3363L33.2678 8.16429L33.1102 7.87193H54.825V6.13235H32.795L32.7676 6.0739L32.5689 5.6792H55.243V8.28854H55.0854V13.193L55.2773 13.4195H55.3253V13.478V13.5365H55.2636L55.0854 13.7119V18.6675H59.094H69.112H69.1463H69.3107H97.0762V2.6167V0.00735474L97.5147 0.453201ZM109.047 18.894L109.095 18.8429L109.047 18.894ZM100.605 136.022H100.687V135.664H100.605V136.022ZM56.2092 133.83L57.3398 133.954L58.258 134.056L56.2092 133.83ZM55.2567 137.791H58.7171V134.1H58.6966H58.7171H55.2567V137.791ZM32.8772 20.8967L30.0746 16.6648C29.2249 17.3007 28.3684 17.9731 27.5187 18.6675L30.52 22.7752L32.8772 20.8967ZM30.0267 23.1699L30.4378 22.841L27.4365 18.7332C26.58 19.4422 25.7303 20.1731 24.9286 20.904L28.1217 24.8729L30.0267 23.1699ZM27.2652 25.6257L28.0326 24.9387L24.8395 20.9698C24.0926 21.6496 23.3457 22.3512 22.6262 23.0529L25.8262 27.051L27.2652 25.6257ZM24.6202 28.2716L25.7508 27.146L22.544 23.1479C21.708 23.9739 20.8789 24.829 20.084 25.6842L23.6266 29.3607L24.6202 28.2716ZM22.1191 31.0271L23.5581 29.4411L20.0155 25.7646C19.2686 26.5759 18.5285 27.4091 17.8159 28.257L21.5367 31.758L22.1191 31.0271ZM19.7825 33.9727L21.4682 31.8458L17.7405 28.3374C17.021 29.1926 16.3153 30.0696 15.6369 30.954L19.5427 34.287L19.7825 33.9727ZM19.481 34.382L15.5752 31.0418C14.89 31.9408 14.2116 32.869 13.5675 33.7973L17.6103 36.9329L19.481 34.382ZM17.5487 37.0279L13.5058 33.8923C12.848 34.8425 12.2108 35.8146 11.6078 36.7794L15.8288 39.725L17.5487 37.0279ZM15.5341 40.1781L15.7671 39.8127L11.5529 36.8744C10.9499 37.8538 10.3469 38.8625 9.7782 39.8931L14.1362 42.634L15.5341 40.1781ZM13.6497 43.4818L14.0746 42.7363L9.71652 39.9954C9.13408 41.0552 8.57905 42.1223 8.06513 43.1749L12.5534 45.6819L13.6497 43.4818ZM7.05784 46.0912L7.09895 46.3324L7.07155 46.5517L11.2035 48.5982L11.9709 46.8733L12.5122 45.7842L8.02401 43.2772C7.61973 44.1104 7.2223 44.9656 6.84542 45.8354L6.9345 45.8938L7.05784 46.0912ZM6.10537 46.5224L6.20816 46.6832L6.35891 46.7929L6.53707 46.8221L6.71523 46.7929L6.86598 46.6832L6.96876 46.5224L6.99617 46.3324L6.96876 46.1423L6.86598 45.9815L6.71523 45.8719L6.53707 45.8427L6.35891 45.8719L6.20816 45.9815L6.10537 46.1423L6.07797 46.3324L6.10537 46.5224ZM2.30922 44.1762L6.05056 46.0254L6.11908 45.9085L6.30409 45.7696L6.53022 45.7257L6.73578 45.755L6.74949 45.7623C7.12636 44.8998 7.5238 44.0446 7.92808 43.2114L3.83042 40.9236L2.30922 44.1762ZM5.61886 37.5176L4.02914 40.507L3.87839 40.8286L7.97605 43.1164C8.48997 42.0639 9.045 40.9967 9.62744 39.9296L5.65998 37.4299L5.61886 37.5176ZM5.94092 36.911L5.70794 37.3422L9.67541 39.8419C10.2442 38.8113 10.8471 37.7954 11.4501 36.8159L7.57861 34.1189L5.94092 36.911ZM9.12037 31.7361L7.9966 33.4318L7.64714 34.0239L11.5187 36.7209C12.1217 35.7561 12.7589 34.784 13.4168 33.8265L9.66171 30.9175L9.12037 31.7361ZM10.2441 30.0404L9.72338 30.8225L13.4784 33.7315C14.1225 32.8033 14.8009 31.875 15.4861 30.976L11.8476 27.8623L10.2441 30.0404ZM12.6356 26.8025L11.9161 27.7746L15.5547 30.8883C16.233 30.0039 16.9388 29.1268 17.6583 28.2643L14.1431 24.9606L12.6356 26.8025ZM15.1983 23.6815L14.2185 24.8729L17.7337 28.1839C18.4463 27.3361 19.1864 26.4955 19.9333 25.6842L16.5551 22.1831L15.1983 23.6815ZM17.8981 20.7067L17.2198 21.4522L16.6373 22.0954L20.0155 25.5965C20.8104 24.734 21.6395 23.8788 22.4823 23.0529L19.4056 19.2156L17.8981 20.7067ZM20.7418 17.8854L19.481 19.1352L22.5577 22.9725C23.2772 22.2635 24.0241 21.5619 24.771 20.8894L21.6737 17.0448L20.7418 17.8854ZM23.6952 15.2176L21.756 16.9717L24.8532 20.8163C25.6618 20.0854 26.5046 19.3545 27.368 18.6455L24.4284 14.6182L23.6952 15.2176ZM26.7855 12.6959L24.5106 14.5525L27.4502 18.5724C28.2999 17.8781 29.1564 17.1983 30.0061 16.5697L27.2309 12.3743L26.7855 12.6959ZM30.15 10.2839L29.9924 10.3863L27.9915 11.8262L27.32 12.3085L30.0952 16.4967C30.9997 15.8242 31.8973 15.1956 32.7607 14.6255L30.15 10.2839ZM32.8224 14.7279C31.9659 15.2907 31.0682 15.9192 30.1637 16.5917L32.9663 20.8236L35.4057 19.0329L32.8224 14.7279ZM36.6665 13.6973L34.4532 13.7192C34.371 13.7704 33.8091 14.0847 32.9115 14.6767L35.4879 18.9744L35.9059 18.6675H36.6665V13.6973ZM39.7295 8.252H36.7693V13.573L39.7295 13.5511V8.252ZM39.7295 13.668L36.7693 13.69V18.6675H39.7295V13.668ZM42.7993 8.252H39.8391V13.5511L42.7993 13.5292V8.252ZM42.7993 13.6388L39.8391 13.6607V18.6602H42.7993V13.6388ZM45.8349 8.252H42.9021V13.5219L45.8349 13.4999V8.252ZM45.8349 13.6169L42.9021 13.6388V18.6675H45.8349V13.6169ZM48.9047 8.252H45.9445V13.4999L48.9047 13.478V8.252ZM48.9047 13.5876L45.9445 13.6096V18.6602H48.9047V13.5876ZM51.9402 8.252H49.0075V13.4707L51.9402 13.4488V8.252ZM51.9402 13.5657L49.0075 13.5876V18.6675H51.9402V13.5657ZM54.9963 8.252H52.0499V13.4415L54.736 13.4195L54.0781 12.6521L53.6259 12.1258L53.7835 11.9723L53.9411 11.8188L54.9963 13.0614V8.252ZM54.9963 13.8142L54.6126 14.1797L53.8794 14.8814L53.5985 14.5525L53.8863 14.2747L54.6537 13.5365L52.0499 13.5584V18.6602L54.8387 18.6602H54.9963V13.8142ZM58.7171 22.8117V19.1206H55.2567V22.8117H58.7171L59.0255 23.1406L58.7171 22.8117ZM73.4838 24.9533L73.4016 24.946L71.7433 24.7779L71.6337 24.7705L73.4838 24.9533ZM73.429 23.93L73.4016 24.0031L73.3673 24.0981L73.429 23.93ZM69.5232 19.1206V24.5513H73.2097V23.0237H94.6984H96.3293H108.848V23.0164V21.7007V20.4436V19.1206H108.828H69.5232Z" fill="white"/>
<path d="M127.446 0.45317V2.16351L129.467 2.61667L127.021 2.61667L127.446 0.45317Z" fill="white"/>
<path d="M162.919 21.518L150.318 21.0648L162.529 21.0648V19.1133H162.515L148.461 19.1133V23.0163V23.2283V63.1944L148.221 63.4722L148.461 63.2017L152.23 63.6549H148.064V47.6334H140.41V44.8048L132.591 40.01L132.79 39.6226L140.677 44.4832H148.071V23.4768L144.206 23.2356L143.651 23.1991L148.071 23.4768H140.417L140.643 23.2356L140.417 23.4768V19.0256L132.598 14.2016L132.797 13.8434L140.684 18.6748L159.021 18.6967V2.61668L156.992 2.61668L157.39 0.453186V2.16352L157.945 2.28777L157.39 2.16352L159.021 2.16352V0.453186L159.411 2.28882e-05V0.0146408V2.60937V18.6894L162.926 18.6967L162.919 21.518ZM140.622 44.6805L140.629 44.6878L140.622 44.6805ZM148.064 19.1206H140.835L140.636 18.9086L140.622 18.894L140.835 19.1206L140.787 19.6323L140.835 19.1206V23.0237H140.841H148.064V19.1206ZM141.164 44.5124L140.698 44.4905L141.164 44.5124L144.343 44.6805L144.706 44.7024L141.164 44.5124ZM148.064 44.8925H140.835L140.725 44.7901L140.835 44.8998V47.1802H148.064V44.8925ZM159.349 2.61668L159.014 18.6967L159.349 2.61668Z" fill="white"/>
<path d="M163.509 133.128L163.317 133.194L163.159 133.157L162.988 133.055L162.892 132.879V132.667L162.988 132.492L163.139 132.397L163.31 132.36L163.502 132.426L163.639 132.572L163.673 132.777L163.639 132.982L163.509 133.128ZM163.461 132.66L163.399 132.594L163.29 132.572L163.2 132.594L163.111 132.667L163.091 132.784L163.111 132.879L163.2 132.974L163.29 132.996L163.399 132.974L163.468 132.879L163.488 132.784L163.461 132.66Z" fill="white"/>
<path d="M163.159 134.144L163.118 134.005L163.159 133.866L163.289 133.822L163.42 133.866L163.461 134.005L163.42 134.144L163.289 134.188L163.159 134.144ZM163.337 134.012L163.324 133.968L163.283 133.954L163.242 133.968L163.228 134.012L163.242 134.056L163.283 134.071L163.324 134.056L163.337 134.012Z" fill="white"/>
<path d="M165.578 130.709L165.695 130.986L165.729 131.315L165.194 133.398L165.064 133.581L164.879 133.647H161.741L161.542 133.581L161.419 133.42L160.843 131.322L160.871 131.008L160.987 130.723L161.165 130.475L161.398 130.285L161.672 130.182L162.467 130.029L163.283 129.97H163.29L164.112 130.029L164.907 130.182L165.16 130.27L165.4 130.46L165.578 130.709ZM165.112 130.372L164.872 130.285L164.091 130.138L163.276 130.08L162.467 130.138L161.686 130.285L161.439 130.372L161.227 130.54L161.069 130.767L160.96 131.023L160.932 131.301L161.487 133.347L161.583 133.471L161.727 133.523H164.831L164.975 133.471L165.071 133.347L165.599 131.301L165.571 131.023L165.462 130.767L165.304 130.54L165.112 130.372Z" fill="white"/>
<path d="M161.118 134.275L161.303 134.37H165.297L165.469 134.268L165.565 134.107L165.9 131.096L166.01 131.103L165.667 134.151L165.544 134.356L165.325 134.487H161.275L161.042 134.363L160.926 134.151L160.556 131.103L160.665 131.089L161.028 134.115L161.118 134.275Z" fill="white"/>
<path d="M165.276 129.788L165.64 129.97L165.996 130.255L166.277 130.584L166.482 130.986L166.599 131.425L166.654 131.885V135.035H159.938V131.885L160 131.425L160.11 131.008L160.308 130.606L160.603 130.255L160.939 129.985L161.323 129.795L161.946 129.583L162.625 129.459L163.276 129.429L163.926 129.459L164.612 129.583L165.276 129.788ZM163.926 129.568L163.282 129.539L162.645 129.568L161.98 129.685L161.371 129.89L161.007 130.065L160.685 130.321L160.411 130.643L160.219 131.023L160.11 131.432L160.055 131.878V134.904H166.558V131.878L166.503 131.439L166.393 131.023L166.201 130.643L165.934 130.328L165.598 130.065L165.242 129.89L164.605 129.678L163.926 129.568Z" fill="white"/>
<path d="M123.683 34.0458L123.874 34.0092L124.066 34.0458L124.203 34.192L124.265 34.3966L124.231 34.5647L124.135 34.7474L123.97 34.8498H123.772L123.607 34.7474L123.518 34.5866L123.484 34.4039L123.546 34.1993L123.683 34.0458ZM123.703 34.5282L123.772 34.6232L123.881 34.6451L123.97 34.6232L124.059 34.5282L124.08 34.4332L124.059 34.3162L123.97 34.2431L123.881 34.2212L123.772 34.2431L123.71 34.3089L123.689 34.4258L123.703 34.5282Z" fill="white"/>
<path d="M125.163 34.2943L125.204 34.4332L125.163 34.572L125.033 34.6159L124.903 34.572L124.862 34.4332L124.903 34.2943L125.033 34.2505L125.163 34.2943ZM124.978 34.4332L124.992 34.477L125.033 34.4916L125.074 34.477L125.088 34.4332L125.074 34.3893L125.033 34.3747L124.992 34.3893L124.978 34.4332Z" fill="white"/>
<path d="M121.442 32.7009L121.525 32.4304L121.703 32.1746L121.936 31.9846L122.196 31.8603L122.504 31.8238L124.457 32.3939L124.629 32.5328L124.69 32.7301V36.0777L124.629 36.2896L124.478 36.4212L122.511 37.0352L122.217 37.0059L121.949 36.8817L121.716 36.6916L121.538 36.4431L121.442 36.1508L121.298 35.3029L121.244 34.4331V34.4258L121.298 33.5487L121.442 32.7009ZM121.401 35.2956L121.538 36.1289L121.621 36.392L121.778 36.6186L121.991 36.7867L122.23 36.9036L122.491 36.9329L124.409 36.3408L124.526 36.2385L124.574 36.085V32.774L124.526 32.6205L124.409 32.5181L122.491 31.9554L122.23 31.9846L121.991 32.1015L121.778 32.2696L121.621 32.4962L121.538 32.7521L121.401 33.5853L121.346 34.4551L121.401 35.2956Z" fill="white"/>
<path d="M125.28 36.7428L125.375 36.5455V32.2843L125.273 32.1016L125.129 31.9992L122.299 31.6411L122.313 31.5242L125.163 31.8896L125.355 32.0212L125.485 32.2551V36.5747L125.362 36.8232L125.163 36.9475L122.313 37.3422L122.299 37.2252L125.129 36.8379L125.28 36.7428Z" fill="white"/>
<path d="M121.073 32.3062L121.244 31.9188L121.511 31.5388L121.819 31.2391L122.196 31.0198L122.607 30.8956L123.039 30.8371H125.993V38H123.039L122.607 37.9342L122.217 37.8173L121.84 37.6053L121.511 37.291L121.258 36.9329L121.079 36.5236L120.881 35.8585L120.764 35.1348L120.737 34.4405L120.764 33.7461L120.881 33.0152L121.073 32.3062ZM120.84 34.4332L120.867 35.1129L120.977 35.8219L121.169 36.4724L121.333 36.8598L121.573 37.2033L121.874 37.4957L122.231 37.7003L122.614 37.8173L123.032 37.8757H125.869V30.9394H123.032L122.621 30.9979L122.231 31.1148L121.874 31.3195L121.58 31.6045L121.333 31.9627L121.169 32.3428L120.97 33.0225L120.86 33.7388L120.84 34.4332Z" fill="white"/>
<path d="M128.09 62.3246L127.884 62.8875L128.09 62.3246V63.8596L127.877 63.6111L128.09 63.8596L83.2759 63.8596L83.7007 63.4064L126.089 63.8376L83.7007 63.4064L127.699 63.4064V62.7778H127.644L83.7007 62.7778L83.5774 62.6463L83.7007 62.7778V63.4064L83.2759 63.8523V63.8596V63.8523V63.8596V63.8523V62.3246L104.326 62.5366L83.2759 62.3246L128.09 62.3246Z" fill="#1C6BCF"/>
<path d="M57.1691 42.0419L56.7854 41.9834L55.2573 41.7422H58.1284L73.6009 42.1954H58.1284L57.1691 42.0419Z" fill="white"/>
<path d="M54.8662 114.504L54.921 114.534L55.0649 114.621L55.1951 114.702L54.8662 114.504H55.5446L56.223 114.519L56.9836 114.541L57.9703 114.563L55.5446 114.504H73.6072L73.2783 114.855L73.6072 114.512V114.519V120.966H73.6003H69.4342L64.9391 129.334L64.5759 129.122L69.1326 120.68V119.277H69.1189H54.8731L54.8662 114.504ZM55.2568 114.928V118.86H55.2636H69.3245H69.5232L69.3245 119.072L69.5232 118.86V120.542L69.3382 120.739L69.5232 120.542H73.2098V114.936H73.196H55.5446H55.2568L55.0581 114.724L54.9896 114.65L55.2568 114.928L54.9827 117.983L55.2568 114.928Z" fill="white"/>
<path d="M121.566 133.888V133.435H148.063L148.276 133.676L148.262 133.661L148.063 133.435L148.262 105.127L148.283 102.247L148.063 133.435V76.2119L148.2 76.3654L148.07 76.2119L151.839 76.6651H148.461V76.7235V133.683V133.895V137.798H156.279H156.423H167.003H167.168H201.038V137.769L201.011 114.336H199.181V114.343L199.209 135.847H181.263H179.632H167.099H167.003H156.423H156.389H150.325V119.555V117.815V78.6312H151.846V76.687L152.147 76.3435L151.846 76.687L148.077 76.2338H152.243L152.079 77.2498L152.243 76.2338V78.7189L160.089 83.5575L159.89 83.9157L151.976 79.0552H150.715V117.823H156.588L163.57 113.532L163.796 113.89L156.821 118.188V119.562L156.43 119.146L156.711 118.195L156.43 119.146V118.276H156.423H150.715V119.146H156.423L156.814 119.562H156.807H150.708V135.423H150.715H156.423H156.43H156.814H166.606H179.632V119.548H179.618H164.577L164.968 118.254V119.124H180.043L179.632 135.416L179.776 129.802L180.043 119.124V135.423H180.858V135.401V118.261L180.893 118.225L180.858 118.261H180.845H164.961L164.571 117.808H164.591H180.975L183.538 115.074L186.011 117.713L188.458 115.074L190.904 117.713L193.377 115.074L195.824 117.713L197.818 115.586L198.099 115.886L195.817 118.32L193.371 115.71L190.897 118.32L188.451 115.71L186.004 118.32L183.531 115.71L181.249 118.144V135.423H198.784V135.401L198.757 113.912H201.401L201.278 121.945L201.401 113.912L201.429 138.244L201.196 137.974L201.223 138.003L201.436 138.244L183.079 138.003L167.168 137.798L201.436 138.244H167.003H166.612H156.821H156.43H121.572L121.785 138.018L121.572 138.244V137.791V136.468H121.065V135.211H121.572V133.888H121.566ZM152.031 78.8286L151.908 78.697L152.031 78.8286ZM153.819 135.649L156.382 135.839L153.819 135.649ZM181.249 118.144L181.084 125.475L181.249 118.144ZM156.423 137.798L166.612 138.23L161.275 138.003L156.423 137.798ZM132.015 133.618L135.901 133.683L139.197 133.742L132.015 133.618ZM121.984 135.211V136.475V137.798L139.135 138.018L121.984 137.798H148.063V133.895H121.984V135.211ZM121.607 137.835L121.6 137.915L121.607 137.835ZM121.477 135.657V136.015H121.559V135.657H121.477Z" fill="white"/>
<path d="M198.956 97.6495L199.717 97.803L199.819 97.8249L201.039 98.0661H199.182V103.044L198.97 103.256L198.956 103.27L198.757 103.46V103.468V103.46V97.6129L198.956 97.6495Z" fill="white"/>
<path d="M201.43 103.468H198.757L199.182 103.044L201.43 103.468Z" fill="white"/>
<path d="M201.43 103.468L201.368 103.402L201.43 103.46L201.204 103.424L200.47 103.285L200.306 103.256L199.182 103.044H201.039V103.036V98.0661L201.402 97.6422L201.039 98.0661L198.757 97.6129H201.43V103.468Z" fill="white"/>
<path d="M201.12 46.9683L201.456 47.3557H198.784L199.209 46.9025H201.066V46.8952V41.925L201.251 41.713L201.066 41.925L200.175 41.7496L201.066 41.925H199.209V46.9025L198.784 47.3557V47.3483V41.4718L198.982 41.5084L199.716 41.6546L199.99 41.713L198.784 41.4718H201.456L201.23 44.6513L201.456 41.4718V47.3557L201.12 46.9683Z" fill="white"/>
<path d="M152.23 63.6476L148.461 63.1944H151.839V62.5366H150.325V62.5074V21.0721L162.926 21.5253H150.715V21.5838V62.1273L150.386 62.4781L150.715 62.1273L150.907 62.2004L150.715 62.1273H151.976L159.891 57.2667L160.089 57.6541L152.243 62.4635L152.23 63.6476L152.113 63.516L152.23 63.6476ZM152.106 62.4489L151.997 62.7486L152.106 62.4489Z" fill="white"/>
<path d="M199.209 21.0648V21.0722V30.6105L198.784 31.0564V31.0491V21.518L199.209 21.0648Z" fill="white"/>
<path d="M199.209 30.6105L201.429 31.0564H198.784L199.209 30.6105Z" fill="white"/>
<path d="M201.43 31.0564L201.231 31.0198L200.505 30.8736L200.395 30.8517L199.21 30.6105L201.039 30.6398V30.6251V19.1206L201.128 19.0183L201.039 19.1206H201.026L178.221 19.1206L177.803 18.6967H177.831L201.43 18.6967L201.252 24.047L201.43 18.6967V31.0564L201.32 30.9394L201.43 31.0564Z" fill="white"/>
<path d="M178.221 20.7067V21.0649L177.796 21.518V19.8954V18.6967L178.221 19.1133L178.145 19.5519L178.221 19.1133V19.4715V20.7067Z" fill="white"/>
<path d="M178.221 21.0649L198.784 21.518L177.796 21.518L178.221 21.0649Z" fill="white"/>
<path d="M198.784 21.518L178.22 21.0649L199.209 21.0649L198.784 21.518Z" fill="white"/>
<path d="M164.968 118.254L164.577 119.548V117.808L164.968 118.254Z" fill="white"/>
<path d="M183.902 63.6476L166.182 63.1944H183.511L183.902 63.6476Z" fill="#F6DD70"/>
<path d="M183.901 62.1127V63.6476L183.511 63.1944L183.901 62.1127Z" fill="#F6DD70"/>
<path d="M161.397 76.6724V78.6166H161.404H199.208L198.783 79.0405H198.749H161.007L161.397 76.6724Z" fill="#1C6BCF"/>
<path d="M199.21 78.6166V78.6239L199.182 86.7516L198.757 87.1975L198.785 79.0405L199.21 78.6166Z" fill="#1C6BCF"/>
<path d="M201.327 87.1829L201.204 87.1609L200.47 87.0148L200.217 86.9636L199.182 86.7516H201.005L201.19 86.9636L201.204 86.9782L201.402 87.1975H198.757L199.182 86.7516L201.327 87.1829Z" fill="#F6DD70"/>
<path d="M201.402 57.7638V87.1975L201.004 86.7516L201.402 57.7638Z" fill="#F6DD70"/>
<path d="M201.401 57.7638L201.004 86.7516V58.217L199.208 58.217V62.1127V63.6476V76.6724H166.598H165.166H161.397L161.281 76.5335L161.397 76.6651L161.007 79.0406V76.2192H165.166V63.6476L161.397 63.1944H165.564L165.18 76.2192L165.365 69.9334L165.564 63.1944V76.2192H166.18L166.605 63.6476V76.2192H198.783V63.6476H191.637L192.061 63.1944H198.783V62.5366H198.777H192.061V63.1944L191.637 63.6476V62.427L186.545 58.7871L186.771 58.4216L191.938 62.1127H198.783V57.7638L201.401 57.7638Z" fill="#1C6BCF"/>
<path d="M183.9 62.1127L183.51 63.1944V62.5366H183.482H161.397V63.1944L165.166 63.6476H161.007V62.1127H183.9Z" fill="#1C6BCF"/>
<path d="M183.902 63.6476H166.606L166.182 63.1944L183.902 63.6476Z" fill="#1C6BCF"/>
<path d="M166.38 63.4064L166.6 63.6476L166.38 70.35L166.182 76.2192V63.1944L166.38 63.4064Z" fill="#1C6BCF"/>
<path d="M88.6476 41.2598L89.8057 42.4951L90.9569 41.2598L91.2378 41.5595L89.8057 43.0944L88.3667 41.5595L88.6476 41.2598Z" fill="white"/>
<path d="M96.0479 37.2107V41.8885H97.7609V37.2107H96.0479ZM96.1575 41.7716V37.3277H97.6513V41.7716H96.1575Z" fill="white"/>
<path d="M97.6509 37.8174V41.2819H98.0415V37.8174H97.6509ZM97.7605 41.1722V37.9343H97.9318V41.1722H97.7605Z" fill="white"/>
<path d="M97.9873 37.8173V37.9343H98.7685L98.7822 37.9123C99.3303 37.218 99.9059 37.2545 100.954 37.3934C103.716 37.8246 103.777 39.4619 103.777 39.5496C103.777 39.6373 103.716 41.2818 100.954 41.7058C99.9059 41.8446 99.3303 41.8812 98.7822 41.1868L98.7685 41.1649H97.9873V41.2818H98.7205C99.2961 41.9981 99.9265 41.9616 100.975 41.8227C103.771 41.3842 103.887 39.7177 103.894 39.5569C103.894 39.5569 103.894 39.5569 103.894 39.5496V39.5423C103.887 39.3815 103.777 37.7077 100.982 37.2765C99.9333 37.1376 99.3029 37.0937 98.7274 37.8173H97.9873Z" fill="white"/>
<path d="M98.6377 39.5643C98.6377 40.0978 98.809 40.5437 99.1311 40.8653C99.4874 41.2161 100.015 41.3842 100.618 41.3257C102.365 41.1138 103.037 40.4779 103.297 39.9736C103.434 39.7104 103.434 39.3888 103.297 39.1257C103.037 38.6214 102.365 37.9855 100.618 37.7735C100.022 37.7224 99.5011 37.8905 99.1379 38.2413C98.8159 38.5629 98.6377 39.0234 98.6377 39.5643ZM98.7473 39.5643C98.7473 39.0526 98.9118 38.6287 99.2201 38.3217C99.5559 37.9928 100.049 37.832 100.611 37.8832C102.393 38.0951 103.003 38.7895 103.208 39.1769C103.325 39.4108 103.325 39.6812 103.208 39.9151C103.003 40.3098 102.4 40.9968 100.611 41.2088C100.042 41.26 99.5422 41.1065 99.2064 40.7776C98.9049 40.4852 98.7473 40.0686 98.7473 39.5643Z" fill="white"/>
<path d="M99.6733 39.1768V39.9297H100.605V39.1768H99.6733ZM99.783 39.8127V39.2938H100.502V39.8127H99.783Z" fill="white"/>
</svg>
