<svg width="11" height="10" viewBox="0 0 11 10" fill="none" xmlns="http://www.w3.org/2000/svg">
<path d="M4.96798 0.187706C5.06909 -0.0623278 5.42309 -0.0623274 5.52421 0.187707L6.73467 3.18083C6.77765 3.28709 6.87742 3.35958 6.99176 3.36762L10.2124 3.5939C10.4815 3.61281 10.5909 3.94948 10.3843 4.12292L7.91175 6.19906C7.82397 6.27277 7.78586 6.39006 7.81355 6.50129L8.59358 9.63426C8.65874 9.89598 8.37235 10.1041 8.14358 9.96121L5.40498 8.25121C5.30776 8.1905 5.18443 8.1905 5.0872 8.25121L2.34861 9.96121C2.11984 10.1041 1.83344 9.89598 1.8986 9.63426L2.67864 6.50129C2.70633 6.39006 2.66822 6.27277 2.58044 6.19906L0.107859 4.12292C-0.0986903 3.94948 0.0107023 3.61281 0.279746 3.5939L3.50043 3.36762C3.61477 3.35958 3.71454 3.28709 3.75752 3.18083L4.96798 0.187706Z" fill="black"/>
</svg>
