<svg width="14" height="12" viewBox="0 0 14 12" fill="none" xmlns="http://www.w3.org/2000/svg">
<path d="M12.9877 0.416174C12.8216 0.278002 12.6211 0.187446 12.4077 0.154144C12.1942 0.120841 11.9757 0.146037 11.7754 0.227052L1.32155 4.44767C1.09799 4.53965 0.907688 4.69745 0.775904 4.90012C0.644119 5.10278 0.577085 5.34073 0.583698 5.58239C0.590312 5.82404 0.67026 6.05797 0.812932 6.25313C0.955605 6.44828 1.15425 6.59543 1.38251 6.67505L3.49709 7.41048L4.67572 11.3081C4.69174 11.3602 4.71498 11.4097 4.74477 11.4553C4.7493 11.4623 4.75567 11.4675 4.76048 11.4743C4.7949 11.5224 4.83649 11.5648 4.88381 11.6002C4.89727 11.6105 4.91016 11.6201 4.92454 11.6292C4.97992 11.6659 5.04125 11.6928 5.1058 11.7086L5.11271 11.7092L5.11662 11.7108C5.15543 11.7187 5.19494 11.7227 5.23454 11.7228C5.23835 11.7228 5.24173 11.721 5.24551 11.7209C5.30528 11.7199 5.36453 11.7096 5.42114 11.6904C5.43432 11.6859 5.4456 11.6784 5.45838 11.673C5.5006 11.6555 5.54061 11.6331 5.57755 11.6062C5.60714 11.5812 5.63674 11.5563 5.66635 11.5314L7.24261 9.79108L9.5936 11.6123C9.80058 11.7734 10.0553 11.861 10.3176 11.8612C10.5925 11.8609 10.8589 11.766 11.0721 11.5926C11.2854 11.4192 11.4325 11.1778 11.4889 10.9087L13.3921 1.56575C13.4352 1.35547 13.4204 1.13742 13.3491 0.934931C13.2779 0.73244 13.153 0.553126 12.9877 0.416174ZM5.46585 7.59619C5.38496 7.67675 5.32967 7.77941 5.30691 7.89128L5.12636 8.76861L4.66899 7.25598L7.04039 6.0211L5.46585 7.59619ZM10.3085 10.69L7.5303 8.53782C7.41406 8.448 7.26826 8.40528 7.12193 8.41816C6.9756 8.43104 6.8395 8.49858 6.74074 8.60732L6.23592 9.16452L6.41433 8.29742L10.5461 4.16567C10.6447 4.06718 10.7048 3.93663 10.7155 3.79766C10.7261 3.65869 10.6867 3.5205 10.6042 3.40811C10.5218 3.29572 10.4018 3.21657 10.2661 3.18499C10.1303 3.15342 9.98776 3.17151 9.8642 3.23598L3.93445 6.32335L1.76191 5.52832L12.2494 1.33275L10.3085 10.69Z" fill="#919191"/>
</svg>
