<svg width="14" height="11" viewBox="0 0 14 11" fill="none" xmlns="http://www.w3.org/2000/svg">
<path d="M13.4116 1.13969C13.4116 1.04402 13.3844 0.950032 13.3326 0.867312C13.2809 0.784592 13.2064 0.71609 13.1168 0.668784C13.0273 0.621477 12.9258 0.597055 12.8228 0.598006C12.7198 0.598956 12.6188 0.625245 12.5303 0.674194C12.1889 0.862903 11.8213 1.00742 11.4377 1.10374C10.89 0.667278 10.1913 0.428442 9.46956 0.430883C8.67773 0.431729 7.91724 0.718287 7.34869 1.23005C6.78013 1.74181 6.448 2.43871 6.42244 3.1736C4.86143 2.94245 3.44665 2.18589 2.44787 1.04818C2.38769 0.980379 2.31084 0.927014 2.22379 0.892581C2.13674 0.858149 2.04205 0.843659 1.94771 0.850333C1.85342 0.857543 1.76244 0.885971 1.68264 0.93316C1.60284 0.980349 1.53662 1.04488 1.4897 1.12117C1.24909 1.51107 1.1109 1.94816 1.08636 2.39696C1.06181 2.84576 1.15159 3.2936 1.34842 3.70413L1.34729 3.70519C1.25882 3.75578 1.18581 3.82661 1.13525 3.91088C1.08468 3.99516 1.05824 4.09008 1.05847 4.18656C1.0574 4.26614 1.06254 4.3457 1.07385 4.42459C1.13343 5.10615 1.45872 5.74412 1.98873 6.21886C1.95277 6.28247 1.93083 6.35209 1.92418 6.42366C1.91752 6.49522 1.9263 6.56731 1.94999 6.63569C2.18105 7.30419 2.67244 7.86856 3.328 8.21837C2.66197 8.45752 1.94283 8.54091 1.23392 8.46117C1.10271 8.44588 0.969805 8.47246 0.856999 8.53653C0.744193 8.60061 0.658187 8.69838 0.613088 8.81381C0.56799 8.92924 0.566477 9.05547 0.608798 9.1718C0.65112 9.28814 0.734762 9.38766 0.846005 9.45405C2.06523 10.1832 3.48482 10.5709 4.93504 10.5707C6.57961 10.5879 8.18418 10.0999 9.49918 9.18267C10.8142 8.26543 11.7658 6.97036 12.2062 5.49892C12.4121 4.85793 12.5173 4.19267 12.5184 3.52376C12.5184 3.48832 12.5184 3.45182 12.5178 3.41533C12.8224 3.11033 13.0583 2.75195 13.2118 2.36119C13.3652 1.97043 13.4332 1.55515 13.4116 1.13969ZM11.4827 2.87948C11.3864 2.98529 11.3376 3.12149 11.3466 3.25981C11.3523 3.34918 11.3517 3.4391 11.3517 3.52376C11.3505 4.08901 11.2613 4.65113 11.0868 5.19267C10.7272 6.44467 9.92547 7.5484 8.81009 8.32707C7.69471 9.10575 6.33018 9.51433 4.93504 9.48739C4.43388 9.48753 3.93446 9.43285 3.44708 9.32446C4.06857 9.13848 4.64968 8.85176 5.16347 8.47758C5.2581 8.40839 5.32736 8.31371 5.36174 8.20652C5.39612 8.09933 5.39393 7.98489 5.35549 7.8789C5.31704 7.77291 5.24422 7.68056 5.14701 7.61453C5.0498 7.5485 4.93296 7.51202 4.81254 7.51009C4.32769 7.50309 3.8647 7.3216 3.52111 7.00387C3.60827 6.98853 3.69486 6.96948 3.78088 6.94674C3.90689 6.91343 4.01716 6.84172 4.09394 6.74315C4.17071 6.64457 4.20953 6.52487 4.20413 6.40332C4.19874 6.28177 4.14945 6.16544 4.0642 6.07307C3.97895 5.9807 3.8627 5.91765 3.73417 5.89408C3.45273 5.84247 3.1879 5.73129 2.96027 5.56918C2.73264 5.40707 2.54833 5.1984 2.42167 4.95939C2.52709 4.97275 2.63319 4.98105 2.73954 4.98425C2.86588 4.98602 2.98955 4.95044 3.09268 4.88264C3.1958 4.81484 3.27303 4.71834 3.31319 4.60709C3.35168 4.49484 3.3497 4.374 3.30755 4.26288C3.2654 4.15177 3.18538 4.05645 3.07963 3.99137C2.82305 3.83265 2.61287 3.61731 2.46792 3.36464C2.32297 3.11197 2.24777 2.82986 2.24906 2.54358C2.24906 2.50762 2.2502 2.47164 2.25248 2.4362C3.55988 3.56842 5.25567 4.23586 7.04106 4.32093C7.13119 4.32422 7.22094 4.30846 7.30354 4.27483C7.38614 4.2412 7.45943 4.19058 7.51787 4.12679C7.57573 4.06239 7.61669 3.9864 7.63755 3.9048C7.6584 3.82319 7.65857 3.73821 7.63804 3.65654C7.60468 3.52728 7.58767 3.39485 7.58734 3.26193C7.58787 2.79855 7.78634 2.35429 8.13921 2.02664C8.49207 1.69898 8.9705 1.51469 9.46952 1.5142C9.72627 1.51356 9.98036 1.56235 10.2158 1.6575C10.4512 1.75264 10.6628 1.89207 10.8373 2.06698C10.9046 2.13419 10.9892 2.1843 11.0833 2.21254C11.1773 2.24078 11.2775 2.24622 11.3745 2.22833C11.6141 2.18503 11.8503 2.12671 12.0814 2.05378C11.9237 2.3533 11.7223 2.63116 11.4827 2.87948Z" fill="#919191"/>
</svg>
