<svg width="12" height="10" viewBox="0 0 12 10" fill="none" xmlns="http://www.w3.org/2000/svg">
<path d="M7.68579 4.11333L5.93579 3.09833C5.78032 3.00647 5.60304 2.95802 5.42246 2.95802C5.24188 2.95802 5.0646 3.00647 4.90913 3.09833C4.75246 3.18665 4.62258 3.31568 4.53325 3.47176C4.44391 3.62785 4.39843 3.80518 4.40163 3.985V6.015C4.39843 6.19481 4.44391 6.37215 4.53325 6.52824C4.62258 6.68432 4.75246 6.81335 4.90913 6.90167C5.0646 6.99352 5.24188 7.04198 5.42246 7.04198C5.60304 7.04198 5.78032 6.99352 5.93579 6.90167L7.68579 5.88667C7.8354 5.79484 7.95897 5.66619 8.04468 5.513C8.1304 5.35981 8.17541 5.18721 8.17541 5.01167C8.17541 4.83613 8.1304 4.66352 8.04468 4.51033C7.95897 4.35714 7.8354 4.22849 7.68579 4.13667V4.11333ZM5.55663 5.77V4.23L6.88663 5L5.55663 5.77ZM10.0833 0.333332H1.91663C1.4525 0.333332 1.00738 0.517707 0.679189 0.845895C0.351001 1.17408 0.166626 1.6192 0.166626 2.08333V7.91667C0.166626 8.38079 0.351001 8.82591 0.679189 9.1541C1.00738 9.48229 1.4525 9.66667 1.91663 9.66667H10.0833C10.5474 9.66667 10.9925 9.48229 11.3207 9.1541C11.6489 8.82591 11.8333 8.38079 11.8333 7.91667V2.08333C11.8333 1.6192 11.6489 1.17408 11.3207 0.845895C10.9925 0.517707 10.5474 0.333332 10.0833 0.333332ZM10.6666 7.91667C10.6666 8.07138 10.6052 8.21975 10.4958 8.32915C10.3864 8.43854 10.238 8.5 10.0833 8.5H1.91663C1.76192 8.5 1.61354 8.43854 1.50415 8.32915C1.39475 8.21975 1.33329 8.07138 1.33329 7.91667V2.08333C1.33329 1.92862 1.39475 1.78025 1.50415 1.67085C1.61354 1.56146 1.76192 1.5 1.91663 1.5H10.0833C10.238 1.5 10.3864 1.56146 10.4958 1.67085C10.6052 1.78025 10.6666 1.92862 10.6666 2.08333V7.91667Z" fill="#919191"/>
</svg>
