<svg width="79" height="49" viewBox="0 0 79 49" fill="none" xmlns="http://www.w3.org/2000/svg">
<g clip-path="url(#clip0_48_126)">
<path d="M46.7843 5.48096H42.494C42.1865 5.48414 41.9389 5.72216 41.9385 6.01457V10.0975C41.9392 10.3921 42.1901 10.6309 42.4993 10.6313H46.7893C47.0987 10.6305 47.3497 10.3921 47.3501 10.0975V6.01469C47.3496 5.71922 47.0972 5.48022 46.7867 5.4812C46.7861 5.48096 46.785 5.48096 46.7843 5.48096ZM46.2684 9.6081H43.0086V6.50444H46.2697L46.2684 9.6081Z" fill="white"/>
<path d="M44.9351 10.6318H44.342V21.2255H44.9351V10.6318Z" fill="white"/>
<path d="M44.9351 0.778076H44.342V5.48122H44.9351V0.778076Z" fill="white"/>
<path d="M41.9332 7.5979H29.3503V8.16238H41.9332V7.5979Z" fill="white"/>
<path d="M50.8358 7.5979H47.3452V8.16238H50.8358V7.5979Z" fill="white"/>
<path d="M1.7063 40.1332H4.98037V34.1247L9.35429 39.2042L13.6534 34.1247V40.1332H17.1131V24.9841L9.40976 34.1247L1.7063 24.9841V40.1332Z" fill="white"/>
<path d="M30.9492 40.1333H34.062L26.3534 25.0005L18.6448 40.1333H21.7576L22.7712 38.1542H29.9356L30.9492 40.1333ZM24.0402 35.6773L26.3535 31.1624L28.6669 35.6773H24.0402Z" fill="white"/>
<path d="M46.9116 28.5278L44.1108 29.4049C44.1108 29.4049 43.3201 27.4918 41.0162 27.4612C38.7118 27.4305 38.3791 30.6005 41.2119 31.0679C44.045 31.5354 46.6482 32.8868 46.6482 35.6775C46.6482 38.4681 44.4742 40.3804 41.3109 40.3804C38.1479 40.3804 36.0396 38.4991 35.3149 36.5548L38.1519 35.6775C38.1519 35.6775 38.8431 37.5956 41.311 37.5956C43.7792 37.5956 44.277 34.3977 41.114 33.9276C37.9507 33.4572 35.8102 31.8264 35.8102 29.0048C35.8102 26.4177 38.1159 24.5498 41.4104 24.5498C44.0453 24.5438 46.3521 26.5505 46.9116 28.5278Z" fill="white"/>
<path d="M59.118 31.7967C59.118 31.7967 60.4283 29.9178 59.464 27.8588C58.4994 25.7992 56.9933 25.0004 54.4967 25.0004C52.0002 25.0004 51.705 24.9844 51.705 24.9844L48.2454 25.0067V40.1015H56.3251C58.4256 40.1015 61.2177 38.4558 61.2177 35.6331C61.2176 32.8105 59.118 31.7967 59.118 31.7967ZM51.7048 27.8696C51.7048 27.8465 53.8791 27.8696 54.7688 27.8696C55.7123 27.8586 56.4868 28.5771 56.4984 29.4752C56.4987 29.497 56.4987 29.5186 56.4979 29.5395C56.4979 30.5743 55.8531 31.3745 54.645 31.3745H51.7049L51.7048 27.8696ZM55.7823 37.371H51.7062V33.8192H55.7588C57.0188 33.8192 57.9329 34.454 57.9329 35.5129C57.9329 36.572 57.3152 37.3695 55.7823 37.3695V37.371Z" fill="white"/>
<path d="M70.2464 25.0005C65.784 25.0005 62.1667 28.4432 62.1667 32.6902C62.1667 36.937 65.7841 40.3799 70.2464 40.3799C74.7088 40.3799 78.3264 36.937 78.3264 32.6902C78.3264 32.6887 78.3264 32.6876 78.3264 32.6864C78.3242 28.441 74.7075 25.0005 70.2464 25.0005ZM70.2464 37.2605C67.5944 37.2605 65.4443 35.2144 65.4443 32.6902C65.4443 30.1662 67.5942 28.1198 70.2464 28.1198C72.8972 28.1198 75.0463 30.1639 75.0488 32.686C75.0509 35.2101 72.9024 37.258 70.2506 37.2602C70.249 37.2605 70.2477 37.2605 70.2464 37.2605Z" fill="white"/>
<path d="M4.81605 46.6841L4.70947 46.2004H4.68502C4.54588 46.3822 4.36323 46.5298 4.15227 46.6317C3.9417 46.7136 3.71568 46.7516 3.4885 46.7449C3.18667 46.7612 2.88973 46.6681 2.6574 46.4841C2.4467 46.2913 2.33536 46.0202 2.35287 45.7421C2.35287 45.0561 2.92937 44.6971 4.08238 44.664L4.69119 44.6467V44.4348C4.70612 44.2277 4.64241 44.0219 4.51164 43.8554C4.35667 43.7154 4.14584 43.6458 3.9332 43.6639C3.57989 43.6778 3.23442 43.7668 2.92229 43.9247L2.75471 43.5306C2.93774 43.437 3.13197 43.3648 3.3334 43.3163C3.53909 43.2648 3.75082 43.2385 3.96358 43.238C4.30364 43.2114 4.64151 43.3078 4.91052 43.5071C5.13667 43.7433 5.24736 44.0588 5.2148 44.3769V46.6953L4.81605 46.6841ZM3.59816 46.3217C3.88931 46.338 4.17506 46.2427 4.39284 46.0583C4.59402 45.8618 4.69892 45.5934 4.68206 45.3195V45.012L4.14017 45.0354C3.81788 45.0251 3.4979 45.0909 3.20842 45.2266C3.01947 45.3386 2.90981 45.5399 2.92229 45.7508C2.91019 45.9112 2.97532 46.0679 3.09889 46.177C3.23944 46.2832 3.41604 46.3371 3.59508 46.3277L3.59816 46.3217Z" fill="white"/>
<path d="M8.85639 43.2245C8.99964 43.223 9.14239 43.2358 9.28281 43.2621L9.20674 43.7401C9.07893 43.7117 8.94816 43.6964 8.817 43.6939C8.52868 43.6929 8.25543 43.8169 8.07394 44.03C7.86659 44.2622 7.75782 44.56 7.76966 44.8644V46.6873H7.22778V43.2854H7.67532L7.7362 43.9142H7.76362C7.87894 43.7103 8.04254 43.5349 8.24153 43.4014C8.42275 43.2843 8.63745 43.2225 8.85639 43.2245Z" fill="white"/>
<path d="M12.2726 46.7478C11.8216 46.7732 11.3822 46.6069 11.073 46.293C10.7676 45.9293 10.6156 45.4706 10.6467 45.0062C10.6147 44.5308 10.7688 44.0614 11.0791 43.6876C11.3929 43.3686 11.8385 43.1981 12.2968 43.221C12.47 43.2208 12.6423 43.2386 12.8116 43.2732C12.9515 43.2988 13.0875 43.3405 13.2165 43.3979L13.0489 43.8355C12.9224 43.7883 12.792 43.7504 12.6592 43.7223C12.5365 43.6941 12.411 43.6786 12.2846 43.6761C11.5601 43.6761 11.1967 44.1164 11.1947 44.9973C11.1714 45.3367 11.2643 45.6741 11.4596 45.9594C11.6459 46.1893 11.9407 46.3154 12.2452 46.2955C12.5593 46.292 12.8696 46.23 13.1587 46.1133V46.5679C12.8824 46.6935 12.5788 46.7553 12.2726 46.7478Z" fill="white"/>
<path d="M17.3605 46.6842V44.4847C17.3792 44.2617 17.3085 44.0399 17.1625 43.8643C16.9984 43.7187 16.7779 43.6437 16.5537 43.6588C16.2479 43.6324 15.9459 43.7389 15.7316 43.9483C15.5329 44.2296 15.4414 44.5672 15.4729 44.9046V46.6809H14.9309V41.8596H15.4729V43.3081C15.4743 43.4542 15.4652 43.601 15.4456 43.7456H15.4791C15.5893 43.5794 15.7466 43.4456 15.9327 43.3602C16.1421 43.2631 16.3728 43.2146 16.6057 43.2181C16.9605 43.1903 17.3127 43.2942 17.5891 43.5081C17.8311 43.7651 17.95 44.106 17.9179 44.4499V46.6666L17.3605 46.6842Z" fill="white"/>
<path d="M19.8633 42.3634C19.855 42.2691 19.8879 42.1761 19.9546 42.1057C20.0834 41.9947 20.2798 41.9947 20.4085 42.1057C20.4768 42.175 20.5112 42.2686 20.5029 42.3634C20.5105 42.4581 20.4762 42.5515 20.4085 42.6213C20.2807 42.7352 20.0823 42.7352 19.9546 42.6213C19.8886 42.5509 19.8556 42.4578 19.8633 42.3634ZM20.4512 46.6843H19.9089V43.2851H20.4512V46.6843Z" fill="white"/>
<path d="M23.6447 46.3279C23.7377 46.3281 23.8302 46.3214 23.9219 46.3076C23.9939 46.2985 24.065 46.285 24.135 46.2669V46.6612C24.0524 46.6944 23.9654 46.717 23.8762 46.728C23.7756 46.7443 23.6738 46.7529 23.5718 46.7538C22.8816 46.7538 22.5365 46.4069 22.5365 45.7138V43.6853H22.0251V43.4301L22.5365 43.2157L22.765 42.4912H23.0695V43.2799H24.1046V43.6795H23.0695V45.6791C23.057 45.8493 23.1114 46.0172 23.2215 46.1513C23.3271 46.268 23.4828 46.3332 23.6447 46.3279Z" fill="white"/>
<path d="M27.2497 46.7478C26.7843 46.771 26.3302 46.6045 26.0013 46.2904C25.6793 45.9387 25.5151 45.4808 25.5447 45.0154C25.5183 44.545 25.6695 44.0816 25.971 43.7084C26.2518 43.3871 26.6739 43.2081 27.1128 43.2246C27.5153 43.2062 27.905 43.3605 28.1754 43.6445C28.4469 43.9551 28.5859 44.3514 28.565 44.7548V45.0791H26.105C26.0862 45.4077 26.1945 45.7311 26.4094 45.9893C26.6322 46.2047 26.942 46.3176 27.2589 46.2991C27.6517 46.2979 28.0404 46.22 28.4007 46.0704V46.5281C28.2264 46.6016 28.0448 46.6576 27.8587 46.6963C27.6581 46.7325 27.4541 46.75 27.2497 46.7478ZM27.1035 43.6559C26.8452 43.6452 26.5948 43.7428 26.4185 43.9227C26.2338 44.1299 26.1268 44.3898 26.1141 44.6615H27.9804C27.9988 44.3952 27.918 44.1321 27.7522 43.917C27.5895 43.7395 27.3504 43.6434 27.1035 43.6559Z" fill="white"/>
<path d="M31.8078 46.7478C31.3569 46.7732 30.9174 46.6069 30.6082 46.293C30.3028 45.9293 30.1509 45.4706 30.1819 45.0062C30.1498 44.5308 30.3039 44.0614 30.6141 43.6876C30.928 43.3686 31.3736 43.1981 31.8321 43.221C32.0051 43.2208 32.1776 43.2386 32.3467 43.2732C32.4865 43.2988 32.6225 43.3405 32.7515 43.3979L32.5842 43.8355C32.4575 43.7883 32.3273 43.7504 32.1944 43.7223C32.0717 43.6941 31.9462 43.6786 31.8198 43.6761C31.0952 43.6761 30.7319 44.1164 30.73 44.9973C30.7065 45.3367 30.7996 45.6741 30.9948 45.9594C31.1811 46.1915 31.4774 46.3188 31.7833 46.2985C32.0974 46.2954 32.4077 46.2332 32.6968 46.1162V46.5713C32.4192 46.6959 32.1148 46.7563 31.8078 46.7478Z" fill="white"/>
<path d="M35.6076 46.3279C35.7004 46.3281 35.793 46.3214 35.8848 46.3076C35.9566 46.2985 36.0278 46.285 36.0978 46.2669V46.6612C36.0152 46.6944 35.9281 46.717 35.8389 46.728C35.7383 46.7443 35.6366 46.7529 35.5345 46.7538C34.8444 46.7538 34.4994 46.4069 34.4994 45.7138V43.6853H33.9878V43.4301L34.4994 43.2157L34.7276 42.4912H35.0322V43.2799H36.0673V43.6795H35.0322V45.6791C35.0198 45.8493 35.0741 46.0172 35.1844 46.1513C35.29 46.268 35.4456 46.3332 35.6076 46.3279Z" fill="white"/>
<path d="M38.2109 43.2852V45.4904C38.1923 45.7133 38.263 45.935 38.409 46.1106C38.5732 46.2563 38.7938 46.3312 39.0179 46.3164C39.3227 46.3423 39.6237 46.2356 39.8369 46.0267C40.0358 45.7468 40.1271 45.4099 40.0956 45.0733V43.2853H40.6374V46.6847H40.19L40.1107 46.2293H40.0803C39.9749 46.3958 39.8217 46.5308 39.6388 46.6179C39.4277 46.7098 39.198 46.7552 38.9659 46.7512C38.6131 46.7787 38.2626 46.6746 37.9886 46.4615C37.7499 46.2031 37.6332 45.8623 37.6658 45.5197V43.2853H38.2109V43.2852Z" fill="white"/>
<path d="M44.3248 43.2245C44.4677 43.223 44.611 43.2358 44.7511 43.2621L44.6751 43.7401C44.5469 43.7117 44.4162 43.6964 44.2851 43.6939C43.9975 43.6929 43.7239 43.8169 43.5425 44.03C43.3354 44.2622 43.2267 44.56 43.2379 44.8644V46.6873H42.696V43.2854H43.1438L43.2045 43.9142H43.2287C43.3444 43.7103 43.5076 43.5349 43.7073 43.4014C43.8891 43.2835 44.1046 43.2218 44.3248 43.2245Z" fill="white"/>
<path d="M48.5084 46.6841L48.4016 46.2004H48.3743C48.2348 46.3819 48.0525 46.5298 47.8409 46.6317C47.6307 46.7136 47.4046 46.7516 47.1776 46.7449C46.8757 46.7612 46.5786 46.6681 46.3466 46.4841C46.1356 46.2913 46.0242 46.0202 46.0422 45.7421C46.0422 45.0561 46.6184 44.6971 47.7712 44.664L48.3801 44.6467V44.4348C48.3949 44.2277 48.3315 44.0219 48.2009 43.8554C48.046 43.7154 47.8344 43.6458 47.6221 43.6639C47.2689 43.6778 46.9232 43.7668 46.6112 43.9247L46.4439 43.5306C46.6267 43.437 46.8208 43.3648 47.0226 43.3163C47.228 43.2648 47.4399 43.2385 47.6524 43.238C47.9928 43.2114 48.3306 43.3078 48.5997 43.5071C48.826 43.7433 48.9362 44.0588 48.9042 44.3769V46.6953L48.5084 46.6841ZM47.2903 46.3217C47.5812 46.338 47.8671 46.2427 48.0852 46.0583C48.2864 45.8618 48.3914 45.5934 48.3743 45.3195V45.012L47.8323 45.0354C47.51 45.0256 47.19 45.0909 46.9004 45.2266C46.7116 45.3386 46.6019 45.5399 46.6142 45.7508C46.6022 45.9112 46.6676 46.0679 46.7912 46.177C46.9318 46.2832 47.1082 46.3371 47.2872 46.3277L47.2903 46.3217Z" fill="white"/>
<path d="M51.462 46.6843H50.9197V41.8596H51.462V46.6843Z" fill="white"/>
<path d="M59.0523 43.2852V43.6094L58.3916 43.685C58.5456 43.88 58.6286 44.1182 58.6257 44.3627C58.6434 44.6688 58.513 44.965 58.2728 45.1683C57.9931 45.3764 57.6428 45.4796 57.2889 45.458C57.1869 45.4585 57.0847 45.4497 56.9845 45.4322C56.7898 45.5013 56.6557 45.6724 56.6402 45.8695C56.637 45.9544 56.6835 46.0346 56.7624 46.0753C56.8925 46.129 57.0343 46.1519 57.1762 46.1418H57.8096C58.126 46.1222 58.4399 46.2038 58.7021 46.374C58.9116 46.5396 59.0244 46.7905 59.0062 47.0489C59.0258 47.3997 58.8435 47.7322 58.5315 47.9187C58.1072 48.1388 57.6253 48.2393 57.1432 48.2086C56.7646 48.23 56.3882 48.1433 56.0624 47.9594C55.8147 47.8055 55.67 47.5392 55.6818 47.2578C55.678 47.0609 55.7521 46.8692 55.8884 46.7216C56.0444 46.5615 56.2505 46.4538 56.4759 46.4146C56.3846 46.3742 56.3057 46.3112 56.2479 46.2319C56.1857 46.1474 56.1536 46.0457 56.1565 45.9419C56.1536 45.8266 56.1899 45.7129 56.2599 45.6179C56.3495 45.5081 56.4616 45.4163 56.5889 45.348C56.402 45.274 56.2438 45.1449 56.1384 44.9803C56.021 44.8015 55.9601 44.5942 55.9647 44.3831C55.9411 44.058 56.0704 43.7397 56.3179 43.5138C56.6004 43.3017 56.9572 43.1983 57.3165 43.2241C57.4868 43.2217 57.6571 43.242 57.8224 43.2849H59.0523V43.2852ZM56.2023 47.2552C56.1953 47.4265 56.2893 47.5876 56.446 47.6722C56.6616 47.7787 56.9038 47.8279 57.1462 47.8143C57.494 47.8361 57.8419 47.7691 58.1541 47.62C58.3598 47.5188 58.4865 47.316 58.4833 47.0958C58.4999 46.9465 58.431 46.8009 58.3034 46.713C58.0913 46.6242 57.8589 46.5877 57.6273 46.6061H56.9793C56.7731 46.5941 56.5696 46.6542 56.4064 46.774C56.2668 46.8975 56.1929 47.074 56.2057 47.2552H56.2023ZM56.5069 44.3748C56.4922 44.5755 56.5697 44.7719 56.7199 44.9135C56.8856 45.0435 57.0963 45.1085 57.3106 45.096C57.8387 45.096 58.1019 44.8518 58.1019 44.3627C58.1583 43.9938 57.8887 43.6516 57.5012 43.5981C57.4349 43.589 57.3676 43.589 57.3008 43.5979C57.0852 43.584 56.8737 43.6541 56.7133 43.7919C56.5606 43.95 56.4832 44.1606 56.4971 44.3748H56.5069Z" fill="white"/>
<path d="M62.31 43.2245C62.453 43.223 62.5964 43.2358 62.7364 43.2621L62.6603 43.7401C62.5328 43.7117 62.4019 43.6964 62.2711 43.6939C61.9841 43.6939 61.7118 43.8176 61.5309 44.03C61.3238 44.2622 61.2151 44.56 61.2263 44.8644V46.6873H60.6843V43.2854H61.1321L61.1934 43.9142H61.2207C61.336 43.7103 61.4996 43.5349 61.6986 43.4014C61.8784 43.2848 62.0922 43.223 62.31 43.2245Z" fill="white"/>
<path d="M67.3827 44.9834C67.4122 45.4533 67.2546 45.9167 66.9411 46.2816C66.6273 46.601 66.1819 46.7719 65.723 46.748C65.4245 46.7533 65.1304 46.679 64.8732 46.5336C64.6231 46.3877 64.4241 46.1737 64.3015 45.9192C64.161 45.6256 64.0924 45.3057 64.1001 44.9834C64.0699 44.5147 64.2255 44.0524 64.5358 43.6881C64.8496 43.369 65.2956 43.199 65.754 43.2244C66.2054 43.2069 66.6416 43.3808 66.9441 43.6996C67.2534 44.0606 67.4094 44.5183 67.3827 44.9834ZM64.6606 44.9834C64.6362 45.3331 64.7325 45.6808 64.9348 45.9742C65.338 46.3976 66.0253 46.43 66.4699 46.046C66.4965 46.0232 66.5215 45.9993 66.5453 45.9742C66.7483 45.6807 66.8451 45.3313 66.8195 44.9806C66.8451 44.6324 66.7489 44.2857 66.5453 43.9953C66.3476 43.7649 66.0449 43.6398 65.7327 43.6592C65.4246 43.6403 65.126 43.7644 64.932 43.9922C64.7319 44.286 64.6391 44.6344 64.6665 44.9838L64.6606 44.9834Z" fill="white"/>
<path d="M69.7334 43.2852V45.4904C69.7146 45.7133 69.785 45.935 69.9309 46.1106C70.0953 46.2563 70.3157 46.3312 70.54 46.3164C70.8451 46.3423 71.1461 46.2356 71.3591 46.0267C71.558 45.7468 71.6494 45.4099 71.6178 45.0733V43.2853H72.1599V46.6847H71.7121L71.6328 46.2293H71.6027C71.4924 46.3978 71.3325 46.5318 71.1433 46.6147C70.9319 46.7066 70.7022 46.752 70.4702 46.7477C70.1171 46.7758 69.7668 46.6714 69.4932 46.4583C69.2539 46.1997 69.1372 45.8591 69.17 45.5165V43.2852H69.7334Z" fill="white"/>
<path d="M75.8776 46.7479C75.6586 46.7505 75.4419 46.7096 75.2415 46.6264C75.0477 46.5438 74.8804 46.4142 74.757 46.2498H74.7143C74.7397 46.4369 74.7538 46.6254 74.7543 46.8144V48.2144H74.2124V43.2878H74.654L74.7301 43.7546H74.7574C74.8795 43.5827 75.0465 43.4441 75.242 43.352C75.4415 43.2661 75.659 43.2235 75.8779 43.227C76.3 43.2047 76.7072 43.3761 76.9739 43.6881C77.4979 44.4861 77.4979 45.4981 76.9739 46.296C76.7045 46.6041 76.2981 46.7722 75.8776 46.7479ZM75.798 43.662C75.5013 43.6362 75.2093 43.7434 75.0069 43.9515C74.8199 44.2236 74.7327 44.5462 74.7571 44.8702V44.986C74.7244 45.3444 74.8117 45.7037 75.0069 46.0119C75.2076 46.2316 75.5061 46.3469 75.8106 46.3218C76.1009 46.3308 76.3752 46.1957 76.5354 45.9655C76.7258 45.6713 76.817 45.3284 76.7972 44.9831C76.8218 44.6409 76.7322 44.3 76.5415 44.0093C76.3725 43.7813 76.0943 43.6502 75.8019 43.6617L75.798 43.662Z" fill="white"/>
</g>
<defs>
<clipPath id="clip0_48_126">
<rect width="78" height="49" fill="white" transform="translate(0.986816)"/>
</clipPath>
</defs>
</svg>
