<svg width="646" height="392" viewBox="0 0 646 392" fill="none" xmlns="http://www.w3.org/2000/svg">
<path d="M238.146 321.637L239.699 321.543M148.164 367.056L158.337 240.696L148.164 367.056ZM72.0874 262.201L158.337 240.673L72.0874 262.201ZM158.337 240.673L271.916 267.793L158.337 240.673ZM271.916 267.793L185.94 281.085L271.916 267.793ZM185.94 281.085L72.0874 262.201L185.94 281.085ZM180.633 363.874L132.873 364.459L180.633 363.874ZM180.633 363.874L185.94 281.085L180.633 363.874ZM234.979 364.506L180.654 363.874L234.979 364.506ZM148.164 367.056L217.591 365.839L148.164 367.056ZM103.109 296.786L95.6633 366.05L103.109 296.786ZM144.199 366.963L150.576 289.766L144.199 366.963ZM150.555 289.789L103.109 296.786L150.555 289.789ZM144.199 366.963L148.164 367.033L144.199 366.963ZM111.017 365.816L114.813 365.886L111.017 365.816ZM159.805 366.705L165.384 291.825L159.805 366.705ZM165.384 291.802L117.729 298.424L165.384 291.802ZM117.729 298.424L111.017 365.816L117.729 298.424ZM144.199 366.963L159.805 366.682L144.199 366.963ZM95.6842 366.05L111.017 365.839L95.6842 366.05ZM150.555 289.789L165.363 291.825L150.555 289.789ZM103.109 296.786L117.708 298.424L103.109 296.786ZM88.1752 266.132L76.5131 365.676L88.1752 266.132ZM71.0806 270.063L88.1752 266.132L71.0806 270.063ZM76.5131 365.676L95.6842 366.05L76.5131 365.676ZM71.0806 270.063L72.0664 262.201L71.0806 270.063ZM132.894 364.459L151.079 364.716L132.894 364.459ZM157.98 277.575L151.079 364.716L157.98 277.575ZM140.298 280.593L157.98 277.575L140.298 280.593ZM132.894 364.459L138.494 301.115L132.894 364.459ZM76.5131 365.676L151.079 364.716L76.5131 365.676ZM88.1752 266.132L157.959 277.551L88.1752 266.132ZM71.0806 270.063L140.298 280.593L71.0806 270.063ZM222.163 264.354L217.591 365.816L222.163 264.354ZM271.769 275.235L222.143 264.354L271.769 275.235ZM271.769 275.235L271.895 267.793L271.769 275.235ZM234.979 364.506L238.021 280.032L234.979 364.506ZM238.021 280.008L187.471 270.438L238.021 280.008ZM187.471 270.438L181.451 365.301L187.471 270.438ZM181.451 365.301L234.958 364.482L181.451 365.301ZM271.769 275.235L238.021 280.032L271.769 275.235ZM222.163 264.354L187.492 270.438L222.163 264.354ZM217.591 365.816L181.451 365.301L217.591 365.816ZM120.141 311.271L114.813 365.91L120.141 311.271ZM147.472 366.471L152.212 307.784L147.472 366.471ZM152.212 307.784L120.141 311.271L152.212 307.784ZM147.472 366.471L159.805 366.682L147.472 366.471ZM128.112 365.699L160.875 366.261L128.112 365.699ZM160.875 366.261L165.111 309.094L160.875 366.261ZM165.111 309.094L132.957 312.394L165.111 309.094ZM132.957 312.394L128.112 365.699L132.957 312.394ZM114.813 365.886L128.112 365.699L114.813 365.886ZM152.212 307.784L165.111 309.094L152.212 307.784ZM120.141 311.271L132.936 312.394L120.141 311.271ZM155.442 298.986L138.473 301.138L155.442 298.986ZM139.753 286.818L156.638 284.15L139.753 286.818ZM156.617 284.15L155.442 298.962L156.617 284.15ZM139.753 286.818L140.298 280.593L139.753 286.818ZM157.959 299.266L141.766 301.302L157.959 299.266ZM159.113 284.524L157.959 299.266L159.113 284.524ZM138.473 301.115L171.823 304.836L138.473 301.115ZM139.753 286.818L172.788 291.427L139.753 286.818ZM155.442 298.986L157.959 299.29L155.442 298.986ZM156.617 284.15L159.113 284.524L156.617 284.15ZM141.766 301.302L141.871 299.992L141.766 301.302ZM173.564 291.334L143.004 287.052L173.564 291.334ZM172.621 304.742L173.564 291.31L172.621 304.742ZM141.766 301.302L172.621 304.765L141.766 301.302ZM172.788 291.427L173.564 291.31L172.788 291.427ZM171.844 304.836L172.642 304.742L171.844 304.836ZM143.004 287.028L159.113 284.524L143.004 287.028ZM158.42 285.928L142.899 288.315L158.42 285.928ZM141.892 299.992L157.498 298.003L141.892 299.992ZM157.477 298.003L158.42 285.928L157.477 298.003ZM142.438 300.062L142.815 300.015L142.438 300.062ZM158.043 298.073L158.987 286.022L158.043 298.073ZM158.987 286.022L143.822 288.339L158.987 286.022ZM141.892 299.992L142.438 300.062L141.892 299.992ZM157.477 298.003L158.043 298.073L157.477 298.003ZM158.42 285.928L158.966 285.999L158.42 285.928ZM142.899 288.315L143.004 287.028L142.899 288.315ZM142.815 300.015L143.822 288.339L142.815 300.015ZM142.815 300.015L158.043 298.073L142.815 300.015ZM90.1259 269.829L155.924 280.195L90.1259 269.829ZM155.924 280.219L149.422 361.534L155.924 280.219ZM149.422 361.51L79.4496 361.978L149.422 361.51ZM79.4496 361.978L90.1259 269.829L79.4496 361.978ZM80.771 361.978L91.4263 269.525L80.771 361.978ZM91.4263 269.548L157.267 279.985L91.4263 269.548ZM157.267 279.985L150.807 361.534L157.267 279.985ZM150.807 361.534L80.771 362.002L150.807 361.534ZM90.1259 269.829L91.4263 269.548L90.1259 269.829ZM79.4496 361.978L80.792 362.002L79.4496 361.978ZM155.924 280.219L157.267 279.985L155.924 280.219ZM149.422 361.51H150.807H149.422ZM92.4121 271.42L156.218 281.342L92.4121 271.42ZM156.239 281.342L149.968 359.872L156.239 281.342ZM149.947 359.896L82.2393 360.13L149.947 359.896ZM82.2602 360.106L92.4331 271.42L82.2602 360.106ZM92.8736 271.327L156.701 281.272L92.8736 271.327ZM150.45 359.896L82.7427 360.13L150.45 359.896ZM156.239 281.342L156.701 281.272L156.239 281.342ZM92.4121 271.42L92.8736 271.327L92.4121 271.42ZM149.947 359.896H150.429H149.947ZM82.2602 360.106H82.7217H82.2602ZM368.863 363.453L343.399 363.265L368.863 363.453ZM286.766 362.821L258.324 363.172L286.766 362.821ZM346.377 365.137L401.353 363.897L346.377 365.137ZM213.773 363.733L346.398 365.114L213.773 363.733ZM213.773 363.733L217.57 282.84L213.773 363.733ZM344.28 264.822L403.22 282.793L344.28 264.822ZM346.377 365.137L344.28 264.845L346.377 365.137ZM403.241 282.793L287.438 294.984L403.241 282.793ZM287.417 295.008L217.57 282.84L287.417 295.008ZM286.766 362.821L286.955 343.258L286.766 362.821ZM217.57 282.84L344.28 264.822L217.57 282.84ZM404.604 309.141L398.605 307.948L404.604 309.141ZM398.605 307.948L401.353 363.897L398.605 307.948ZM404.604 309.141L403.22 282.816L404.604 309.141ZM368.863 363.453L368.212 343.68L368.863 363.453ZM367.185 311.692L360.64 310.615L367.185 311.692ZM360.64 310.615L362.172 363.57L360.64 310.615ZM362.193 363.57L368.884 363.453L362.193 363.57ZM404.604 309.141L367.185 311.692L404.604 309.141ZM398.605 307.948L360.64 310.639L398.605 307.948ZM401.353 363.897L362.172 363.593L401.353 363.897ZM321.082 363.078L320.704 316.746L321.082 363.078ZM320.704 316.746L342.476 315.319L320.704 316.746ZM321.082 363.078L286.766 362.821L321.082 363.078ZM333.604 363.406L310.93 363.219L333.604 363.406ZM310.93 363.242L310.804 315.529L310.93 363.242ZM310.804 315.506L332.89 313.985L310.804 315.506ZM332.89 314.008L333.604 363.429L332.89 314.008ZM321.082 363.078L310.93 363.219L321.082 363.078ZM343.399 363.265L333.604 363.429L343.399 363.265ZM320.704 316.746L310.804 315.506L320.704 316.746ZM343.042 344.218L368.233 343.68L343.042 344.218ZM367.248 313.704L342.476 315.319L367.248 313.704ZM343.042 344.218L343.42 363.242L343.042 344.218ZM367.248 313.704L367.185 311.692L367.248 313.704ZM339.812 314.968L340.337 344.101L339.812 314.968ZM364.71 313.306L339.812 314.968L364.71 313.306ZM365.653 343.563L364.71 313.33L365.653 343.563ZM340.337 344.101L365.653 343.563L340.337 344.101ZM342.476 315.342L339.812 314.968L342.476 315.342ZM343.042 344.218L340.358 344.101L343.042 344.218ZM367.248 313.704L364.71 313.306L367.248 313.704ZM368.233 343.68L365.674 343.539L368.233 343.68ZM339.812 314.968L332.89 314.008L339.812 314.968ZM314.915 342.556L314.789 317.144L314.915 342.556ZM314.789 317.144L287.207 318.946L314.789 317.144ZM286.955 343.258L314.915 342.556L286.955 343.258ZM287.186 318.946L287.417 294.984L287.186 318.946ZM312.734 316.887L288.822 318.454L312.734 316.887ZM312.838 342.463L312.734 316.887L312.838 342.463ZM287.186 318.946L274.811 317.612L287.186 318.946ZM286.955 343.258L274.412 342.744L286.955 343.258ZM314.789 317.144L312.734 316.887L314.789 317.144ZM314.915 342.556L312.838 342.463L314.915 342.556ZM274.832 317.612L274.433 342.744L274.832 317.612ZM288.612 343.071L288.822 318.454L288.612 343.071ZM278.272 342.65L288.612 343.095L278.272 342.65ZM278.628 317.355L278.272 342.65L278.628 317.355ZM288.822 318.478L278.607 317.355L288.822 318.478ZM274.412 342.744L278.251 342.65L274.412 342.744ZM274.832 317.612L278.628 317.355L274.832 317.612ZM288.612 343.071L312.838 342.463L288.612 343.071ZM259.52 314.172L258.345 363.172L259.52 314.172ZM243.285 363.382L244.9 312.534L243.285 363.382ZM244.921 312.534L259.541 314.172L244.921 312.534ZM243.285 363.382L213.753 363.757L243.285 363.382ZM271.539 363.289L256.646 363.499L271.539 363.289ZM256.646 363.499L257.947 311.458L256.646 363.499ZM257.947 311.458L272.399 313.189L257.947 311.458ZM272.42 313.189L271.539 363.289L272.42 313.189ZM243.285 363.382L256.646 363.499L243.285 363.382ZM258.345 363.172L271.56 363.289L258.345 363.172ZM244.921 312.534L257.968 311.458L244.921 312.534ZM259.52 314.172L272.42 313.189L259.52 314.172ZM238.146 321.637L238.503 311.809L238.146 321.637ZM238.482 311.809L218.304 309.539L238.482 311.809ZM218.325 309.539L217.843 319.835L218.325 309.539ZM217.843 319.835L238.146 321.637L217.843 319.835ZM219.416 319.718L239.699 321.52L219.416 319.718ZM219.877 309.399L219.416 319.718L219.877 309.399ZM240.034 311.692L219.877 309.399L240.034 311.692ZM239.699 321.52L240.034 311.668L239.699 321.52ZM217.843 319.835L219.395 319.718L217.843 319.835Z" stroke="#D9D9D9" stroke-width="0.3955" stroke-miterlimit="10"/>
<path d="M433.949 176.814L437.389 223.965M218.326 309.539L219.878 309.399L218.326 309.539ZM238.483 311.809L240.014 311.668L238.483 311.809ZM393.886 365.442L389.146 260.867L393.886 365.442ZM500.859 245.376L389.146 260.867L500.859 245.376ZM524.687 263.324L500.859 245.376L524.687 263.324ZM431.641 364.389L513.066 365.067L431.641 364.389ZM431.641 364.389L429.817 336.215L431.641 364.389ZM425.831 274.533L524.687 263.324L425.831 274.533ZM389.146 260.867L425.831 274.533L389.146 260.867ZM614.25 367.688L393.886 365.442L614.25 367.688ZM393.886 365.442L431.641 364.389L393.886 365.442ZM534.104 354.912L524.309 271.654L534.104 354.912ZM524.309 271.654L504.068 257.778L524.309 271.654ZM504.068 257.802L514.451 354.35L504.068 257.802ZM523.827 354.958L514.577 272.684L523.827 354.958ZM514.577 272.661L493.077 259.135L514.577 272.661ZM493.077 259.159L502.747 354.42L493.077 259.159ZM502.768 354.42L523.848 354.958L502.768 354.42ZM524.309 271.654L514.577 272.661L524.309 271.654ZM534.104 354.912L523.827 354.958L534.104 354.912ZM504.068 257.802L493.077 259.159L504.068 257.802ZM514.472 354.35L502.768 354.397L514.472 354.35ZM512.479 354.303L500.859 245.376L512.479 354.303ZM514.472 354.35L512.479 354.303L514.472 354.35ZM535.531 354.958L524.687 263.347L535.531 354.958ZM534.104 354.912L535.531 354.958L534.104 354.912ZM620.395 354.771L612.068 353.812L620.395 354.771ZM614.25 367.688L612.068 353.812L614.25 367.688ZM622.157 365.629L614.25 367.688L622.157 365.629ZM512.479 354.303L612.068 353.835L512.479 354.303ZM517.995 364.81L622.136 365.629L517.995 364.81ZM516.947 355.169L620.395 354.795L516.947 355.169ZM622.157 365.629L620.395 354.771L622.157 365.629ZM512.018 355.052L513.087 365.067L512.018 355.052ZM512.018 355.052L516.968 355.169L512.018 355.052ZM516.947 355.169L517.995 364.81L516.947 355.169ZM513.066 365.067L517.995 364.833L513.066 365.067ZM535.531 354.958L511.997 355.052L535.531 354.958ZM506.648 286.981L511.661 333.805L506.648 286.981ZM511.661 333.781L429.817 336.215L511.661 333.781ZM427.09 293.884L506.648 286.958L427.09 293.884ZM427.09 293.884L425.831 274.533L427.09 293.884ZM426.083 335.841L423.377 292.831L426.083 335.841ZM423.377 292.831L503.984 285.671L423.377 292.831ZM503.984 285.671L509.039 333.337L503.984 285.671ZM509.039 333.337L426.083 335.841L509.039 333.337ZM427.09 293.884L423.377 292.808L427.09 293.884ZM429.817 336.215L426.083 335.841L429.817 336.215ZM506.648 286.981L504.005 285.671L506.648 286.981ZM511.661 333.781L509.039 333.313L511.661 333.781ZM237.916 366.986L245.992 367.103L237.916 366.986ZM516.527 371.409L496.748 187.882L516.527 371.409ZM242.258 241.445L496.748 187.906L242.258 241.445ZM237.916 366.986L242.258 241.445L237.916 366.986ZM557.491 367.384L540.607 236.437L557.491 367.384ZM540.607 236.437L329.913 266.506L540.607 236.437ZM331.213 364.997L237.937 366.986L331.213 364.997ZM329.913 266.506L242.258 241.445L329.913 266.506ZM331.213 364.997L329.913 266.506L331.213 364.997ZM516.527 371.409L519.212 371.151L516.527 371.409ZM557.491 367.384L385.245 365.582L557.491 367.384ZM496.748 187.906L540.607 236.437L496.748 187.906ZM249.495 252.466L246.013 367.103L249.495 252.466ZM406.429 369.677L398.941 224.363L406.429 369.677ZM398.941 224.363L249.495 252.466L398.941 224.363ZM406.429 369.677L516.527 371.432L406.429 369.677ZM255.011 366.916L262.038 367.033L255.011 366.916ZM413.393 369.349L405.59 227.92L413.393 369.349ZM405.59 227.896L257.905 254.689L405.59 227.896ZM257.905 254.689L255.011 366.916L257.905 254.689ZM406.429 369.677L413.393 369.349L406.429 369.677ZM245.992 367.103L255.011 366.916L245.992 367.103ZM398.941 224.363L405.59 227.896L398.941 224.363ZM249.495 252.466L257.926 254.689L249.495 252.466ZM264.198 269.923L262.038 367.009L264.198 269.923ZM289.368 367.431L290.207 265.945L289.368 367.431ZM290.207 265.945L264.198 269.923L290.207 265.945ZM289.368 367.431L413.393 369.326L289.368 367.431ZM263.086 367.009L290.396 367.431L263.086 367.009ZM290.396 367.407L291.172 266.179L290.396 367.407ZM291.193 266.202L265.205 270.157L291.193 266.202ZM265.184 270.157L263.086 367.009L265.184 270.157ZM289.368 367.431L290.396 367.407L289.368 367.431ZM262.038 367.033L263.107 367.009L262.038 367.033ZM290.207 265.945L291.193 266.202L290.207 265.945ZM264.198 269.923L265.205 270.157L264.198 269.923ZM289.221 365.137L290.018 268.402L289.221 365.137ZM290.018 268.402L266.191 271.959L290.018 268.402ZM266.212 271.959L264.24 364.857L266.212 271.959ZM264.24 364.857L289.221 365.137L264.24 364.857ZM264.827 364.833L289.787 365.114L264.827 364.833ZM289.787 365.137L290.564 268.542L289.787 365.137ZM290.564 268.542L266.757 272.076L290.564 268.542ZM266.757 272.076L264.827 364.857L266.757 272.076ZM289.221 365.137H289.787H289.221ZM264.24 364.857H264.827H264.24ZM290.018 268.402L290.543 268.542L290.018 268.402ZM266.212 271.959L266.757 272.076L266.212 271.959ZM501.174 205.76L519.212 371.151L501.174 205.76ZM556.275 367.501L540.69 246.078L556.275 367.501ZM540.69 246.078L501.174 205.76L540.69 246.078ZM556.275 367.501L557.491 367.384L556.275 367.501ZM454.399 370.145L506.564 366.986L454.399 370.145ZM506.564 366.986L494.755 252.139L506.564 366.986ZM494.755 252.115L442.737 216.711L494.755 252.115ZM442.737 216.711L454.399 370.145L442.737 216.711ZM556.275 367.501L506.564 366.963L556.275 367.501ZM519.212 371.151L454.399 370.145L519.212 371.151ZM540.69 246.078L494.734 252.115L540.69 246.078ZM501.174 205.76L442.737 216.711L501.174 205.76ZM381.49 273.948L385.245 365.582L381.49 273.948ZM348.287 365.184L346.378 278.206L348.287 365.184ZM346.399 278.206L381.511 273.948L346.399 278.206ZM348.287 365.184L331.192 364.997L348.287 365.184ZM372.135 365.933L334.192 365.512L372.135 365.933ZM334.192 365.512L332.849 274.65L334.192 365.512ZM332.87 274.65L368.884 269.993L332.87 274.65ZM368.863 269.97L372.135 365.933L368.863 269.97ZM348.287 365.184L334.192 365.512L348.287 365.184ZM385.245 365.582L372.156 365.956L385.245 365.582ZM346.399 278.206L332.87 274.65L346.399 278.206ZM381.49 273.948L368.863 269.993L381.49 273.948ZM336.289 361.791L334.968 277.785L336.289 361.791ZM334.968 277.785L366.724 273.854L334.968 277.785ZM366.724 273.854L369.618 361.978L366.724 273.854ZM369.618 361.978L336.289 361.791L369.618 361.978ZM363.389 272.871L366.157 362.025L363.389 272.871ZM366.178 362.025L332.639 361.838L366.178 362.025ZM332.639 361.838L331.465 276.896L332.639 361.838ZM331.444 276.896L363.389 272.871L331.444 276.896ZM369.618 361.978L366.178 362.025L369.618 361.978ZM366.724 273.854L363.41 272.871L366.724 273.854ZM336.289 361.791L332.618 361.838L336.289 361.791ZM334.968 277.785L331.444 276.896L334.968 277.785ZM368.024 276.545L366.388 227.616L368.024 276.545ZM363.011 192.656L360.033 100.436L363.011 192.656ZM360.033 100.413L212.516 156.924L360.033 100.413ZM208.593 230.494L368.024 276.568L208.593 230.494ZM208.593 230.494L212.516 156.947L208.593 230.494ZM212.516 156.947L366.367 227.639L212.516 156.947ZM479.024 205.971L360.054 100.413L479.024 205.971ZM484.498 262.575L363.011 192.656L484.498 262.575ZM484.498 262.575L479.024 205.971L484.498 262.575ZM368.024 276.545L484.498 262.575L368.024 276.545ZM366.367 227.639L479.003 205.994L366.367 227.639ZM363.011 192.656L208.593 230.494L363.011 192.656ZM215.662 216.079L352.104 179.388L215.662 216.079ZM352.104 179.388L350.51 118.735L352.104 179.388ZM350.51 118.735L218.137 166.518L350.51 118.735ZM218.137 166.518L215.662 216.079L218.137 166.518ZM229.463 220.596L363.934 186.478L229.463 220.596ZM363.913 186.455L361.983 127.908L363.913 186.455ZM361.983 127.908L231.477 172.438L361.983 127.908ZM231.477 172.438L229.442 220.572L231.477 172.438ZM352.104 179.388L363.913 186.478L352.104 179.388ZM215.662 216.079L229.463 220.596L215.662 216.079ZM350.51 118.735L362.004 127.908L350.51 118.735ZM218.137 166.518L231.498 172.438L218.137 166.518ZM479.611 257.31L371.045 271.14L479.611 257.31ZM371.045 271.14L369.66 231.828L371.045 271.14ZM369.639 231.828L475.353 212.242L369.639 231.828ZM475.353 212.265L479.611 257.31L475.353 212.265ZM363.473 229.066L470.886 208.545L363.473 229.066ZM470.907 208.545L475.165 254.689L470.907 208.545ZM475.144 254.689L364.752 269.197L475.144 254.689ZM364.773 269.174L363.494 229.043L364.773 269.174ZM475.353 212.265L470.907 208.545L475.353 212.265ZM369.639 231.828L363.473 229.043L369.639 231.828ZM479.611 257.31L475.144 254.689L479.611 257.31ZM371.045 271.14L364.773 269.197L371.045 271.14ZM378.323 186.759L370.562 181.868L378.323 186.759ZM370.562 181.868L368.36 121.871L370.562 181.868ZM368.36 121.871L375.911 128.212L368.36 121.871ZM375.911 128.212L378.323 186.759L375.911 128.212ZM388.685 193.288L381.511 188.771L388.685 193.288ZM381.511 188.771L379.036 130.833L381.511 188.771ZM386.042 136.683L388.685 193.264L386.042 136.683ZM379.036 130.81L386.042 136.683L379.036 130.81ZM388.936 139.117L395.439 144.569L388.936 139.117ZM391.642 195.136L388.936 139.093L391.642 195.136ZM398.291 199.325L391.642 195.136L398.291 199.325ZM395.439 144.569L398.291 199.325L395.439 144.569ZM398.144 146.815L404.206 151.893L398.144 146.815ZM404.206 151.893L407.227 204.941L404.206 151.893ZM401.039 201.056L398.144 146.815L401.039 201.056ZM407.227 204.941L401.039 201.056L407.227 204.941ZM409.764 206.556L406.702 153.999L409.764 206.556ZM406.723 153.999L412.386 158.749L406.723 153.999ZM412.386 158.749L415.533 210.183L412.386 158.749ZM415.533 210.183L409.764 206.556L415.533 210.183ZM420.042 165.137L423.314 215.073L420.042 165.137ZM414.736 160.715L420.042 165.161L414.736 160.715ZM417.924 211.68L414.736 160.691L417.924 211.68ZM423.293 215.073L417.903 211.68L423.293 215.073ZM427.216 171.151L430.572 219.636L427.216 171.151ZM422.245 166.986L427.216 171.151L422.245 166.986ZM425.538 216.477L422.245 166.986L425.538 216.477ZM430.572 219.66L425.538 216.477L430.572 219.66ZM432.648 220.97L429.271 172.883L432.648 220.97Z" stroke="#D9D9D9" stroke-width="0.3955" stroke-miterlimit="10"/>
<path d="M420.986 167.313L425.978 171.455M437.388 223.941L432.648 220.97L437.388 223.941ZM429.271 172.883L433.948 176.79L429.271 172.883ZM440.304 182.126L443.807 227.99L440.304 182.126ZM435.899 178.428L440.304 182.126L435.899 178.428ZM439.339 225.182L435.878 178.428L439.339 225.182ZM443.786 227.99L439.339 225.182L443.786 227.99ZM445.631 229.136L442.129 183.647L445.631 229.136ZM442.129 183.647L446.282 187.133L442.129 183.647ZM449.826 231.78L445.631 229.136L449.826 231.78ZM446.282 187.133L449.826 231.78L446.282 187.133ZM451.945 191.86L455.532 235.361L451.945 191.86ZM448.023 188.584L451.945 191.86L448.023 188.584ZM451.567 232.88L448.023 188.584L451.567 232.88ZM455.511 235.361L451.567 232.88L455.511 235.361ZM457.294 196.353L460.901 238.754L457.294 196.353ZM453.581 193.241L457.294 196.353L453.581 193.241ZM457.168 236.39L453.581 193.217L457.168 236.39ZM460.901 238.754L457.168 236.414L460.901 238.754ZM465.998 241.959L462.474 239.736L465.998 241.959ZM462.369 200.588L465.998 241.959L462.369 200.588ZM458.846 197.64L462.369 200.588L458.846 197.64ZM462.453 239.736L458.846 197.64L462.453 239.736ZM467.173 204.613L470.822 245.001L467.173 204.613ZM463.838 201.828L467.173 204.636L463.838 201.828ZM467.466 242.895L463.838 201.828L467.466 242.895ZM470.822 245.001L467.466 242.895L470.822 245.001ZM471.745 208.451L475.395 247.88L471.745 208.451ZM468.557 205.783L471.724 208.451L468.557 205.783ZM472.207 245.867L468.557 205.783L472.207 245.867ZM475.395 247.88L472.207 245.867L475.395 247.88ZM467.445 207.351L470.843 245.118L467.445 207.351ZM470.843 245.142L473.549 246.85L470.843 245.142ZM473.549 246.827L470.13 209.574L473.549 246.827ZM470.13 209.574L467.445 207.351L470.13 209.574ZM471.284 245.072L470.843 245.142L471.284 245.072ZM467.865 207.281L467.445 207.351L467.865 207.281ZM473.969 246.78L473.549 246.85L473.969 246.78ZM470.55 209.504L470.13 209.574L470.55 209.504ZM470.697 208.638L474.325 248.02L470.697 208.638ZM467.508 205.994L470.697 208.638L467.508 205.994ZM471.137 246.031L467.529 205.994L471.137 246.031ZM474.325 248.02L471.137 246.031L474.325 248.02ZM467.865 207.281L471.284 245.072L467.865 207.281ZM470.55 209.504L467.865 207.281L470.55 209.504ZM473.969 246.78L470.55 209.504L473.969 246.78ZM471.284 245.072L473.969 246.78L471.284 245.072ZM471.745 208.451L470.697 208.638L471.745 208.451ZM475.395 247.88L474.325 248.02L475.395 247.88ZM468.557 205.783L467.508 205.994L468.557 205.783ZM472.207 245.867L471.116 246.031L472.207 245.867ZM462.684 203.443L466.082 242.123L462.684 203.443ZM466.082 242.123L468.935 243.902L466.082 242.123ZM468.935 243.925L465.537 205.783L468.935 243.925ZM465.516 205.783L462.684 203.443L465.516 205.783ZM466.523 242.076L466.082 242.147L466.523 242.076ZM463.125 203.349L462.684 203.443L463.125 203.349ZM469.354 243.855L468.914 243.925L469.354 243.855ZM465.956 205.689L465.537 205.783L465.956 205.689ZM466.103 204.824L469.711 245.142L466.103 204.824ZM462.747 202.039L466.103 204.824L462.747 202.039ZM466.355 243.059L462.747 202.039L466.355 243.059ZM469.732 245.142L466.376 243.036L469.732 245.142ZM463.125 203.349L466.523 242.053L463.125 203.349ZM465.956 205.689L463.125 203.349L465.956 205.689ZM469.354 243.855L465.935 205.689L469.354 243.855ZM466.523 242.076L469.354 243.855L466.523 242.076ZM467.173 204.613L466.103 204.824L467.173 204.613ZM470.822 245.001L469.732 245.165L470.822 245.001ZM463.838 201.828L462.768 202.039L463.838 201.828ZM467.466 242.895L466.355 243.059L467.466 242.895ZM457.692 199.325L461.069 238.964L457.692 199.325ZM461.069 238.964L464.068 240.86L461.069 238.964ZM464.047 240.86L460.65 201.782L464.047 240.86ZM460.671 201.782L457.692 199.325L460.671 201.782ZM461.51 238.894L461.048 238.964L461.51 238.894ZM458.133 199.231L457.692 199.325L458.133 199.231ZM464.509 240.789L464.068 240.86L464.509 240.789ZM461.111 201.688L460.671 201.782L461.111 201.688ZM461.279 200.799L464.886 242.123L461.279 200.799ZM457.734 197.874L461.279 200.822L457.734 197.874ZM461.321 239.9L457.734 197.874L461.321 239.9ZM464.886 242.123L461.342 239.9L464.886 242.123ZM458.133 199.231L461.53 238.894L458.133 199.231ZM461.111 201.688L458.133 199.231L461.111 201.688ZM464.509 240.789L461.111 201.688L464.509 240.789ZM461.51 238.894L464.509 240.789L461.51 238.894ZM462.369 200.588L461.279 200.799L462.369 200.588ZM465.998 241.959L464.886 242.123L465.998 241.959ZM458.846 197.64L457.755 197.874L458.846 197.64ZM462.453 239.736L461.321 239.9L462.453 239.736ZM452.406 194.972L455.762 235.641L452.406 194.972ZM455.762 235.641L458.93 237.63L455.762 235.641ZM458.93 237.63L455.553 197.57L458.93 237.63ZM455.553 197.57L452.406 194.972L455.553 197.57ZM456.224 235.571L455.762 235.641L456.224 235.571ZM452.847 194.879L452.406 194.972L452.847 194.879ZM459.37 237.56L458.909 237.63L459.37 237.56ZM455.993 197.476L455.553 197.57L455.993 197.476ZM456.182 196.587L459.769 238.941L456.182 196.587ZM452.448 193.475L456.182 196.587L452.448 193.475ZM456.014 236.577L452.448 193.475L456.014 236.577ZM459.769 238.917L456.014 236.577L459.769 238.917ZM452.847 194.879L456.203 235.571L452.847 194.879ZM455.993 197.476L452.847 194.879L455.993 197.476ZM459.37 237.56L455.993 197.476L459.37 237.56ZM456.224 235.571L459.391 237.56L456.224 235.571ZM457.294 196.353L456.182 196.587L457.294 196.353ZM460.901 238.754L459.769 238.917L460.901 238.754ZM453.581 193.241L452.469 193.475L453.581 193.241ZM457.168 236.39L456.014 236.577L457.168 236.39ZM446.827 190.386L450.141 232.108L446.827 190.386ZM450.141 232.108L453.497 234.214L450.141 232.108ZM453.497 234.214L450.162 193.124L453.497 234.214ZM450.162 193.124L446.827 190.386L450.162 193.124ZM450.603 232.038L450.141 232.108L450.603 232.038ZM447.288 190.269L446.827 190.362L447.288 190.269ZM453.959 234.144L453.497 234.214L453.959 234.144ZM450.603 193.03L450.141 193.124L450.603 193.03ZM450.812 192.117L454.357 235.548L450.812 192.117ZM446.869 188.841L450.812 192.117L446.869 188.841ZM450.393 233.067L446.869 188.818L450.393 233.067ZM454.357 235.548L450.393 233.067L454.357 235.548ZM447.288 190.269L450.623 232.014L447.288 190.269ZM450.603 193.03L447.288 190.292L450.603 193.03ZM453.959 234.144L450.603 193.03L453.959 234.144ZM450.603 232.038L453.938 234.144L450.603 232.038ZM451.945 191.86L450.812 192.094L451.945 191.86ZM455.511 235.361L454.357 235.548L455.511 235.361ZM448.023 188.584L446.89 188.841L448.023 188.584ZM451.567 232.88L450.393 233.067L451.567 232.88ZM440.933 185.519L444.205 228.364L440.933 185.519ZM444.205 228.364L447.75 230.587L444.205 228.364ZM447.75 230.587L444.457 188.42L447.75 230.587ZM444.457 188.42L440.933 185.519L444.457 188.42ZM444.688 228.294L444.205 228.387L444.688 228.294ZM441.394 185.425L440.933 185.542L441.394 185.425ZM448.232 230.517L447.75 230.587L448.232 230.517ZM444.918 188.327L444.457 188.42L444.918 188.327ZM445.128 187.391L448.631 231.968L445.128 187.391ZM440.975 183.927L445.149 187.391L440.975 183.927ZM444.436 229.347L440.954 183.927L444.436 229.347ZM448.652 231.968L444.457 229.347L448.652 231.968ZM441.394 185.425L444.688 228.294L441.394 185.425ZM444.918 188.327L441.394 185.425L444.918 188.327ZM448.232 230.517L444.918 188.327L448.232 230.517ZM444.688 228.294L448.232 230.54L444.688 228.294ZM446.282 187.133L445.128 187.391L446.282 187.133ZM449.826 231.78L448.652 231.968L449.826 231.78ZM442.129 183.647L440.954 183.927L442.129 183.647ZM445.631 229.136L444.436 229.347L445.631 229.136ZM434.682 180.371L437.892 224.386L434.682 180.371ZM437.892 224.386L441.667 226.749L437.892 224.386ZM441.667 226.773L438.416 183.459L441.667 226.773ZM438.416 183.436L434.682 180.371L438.416 183.436ZM438.374 224.316L437.892 224.409L438.374 224.316ZM435.144 180.254L434.662 180.371L435.144 180.254ZM442.15 226.679L441.667 226.773L442.15 226.679ZM438.877 183.342L438.395 183.459L438.877 183.342ZM439.129 182.383L442.59 228.177L439.129 182.383ZM434.703 178.709L439.129 182.383L434.703 178.709ZM438.122 225.392L434.703 178.709L438.122 225.392ZM442.59 228.2L438.122 225.416L442.59 228.2ZM435.144 180.254L438.374 224.316L435.144 180.254ZM438.877 183.342L435.144 180.254L438.877 183.342ZM442.15 226.679L438.877 183.342L442.15 226.679ZM438.374 224.316L442.129 226.679L438.374 224.316ZM440.304 182.126L439.129 182.406L440.304 182.126ZM443.786 227.99L442.569 228.2L443.786 227.99ZM435.899 178.428L434.703 178.709L435.899 178.428ZM439.339 225.182L438.101 225.392L439.339 225.182ZM428.033 174.895L431.18 220.174L428.033 174.895ZM431.18 220.174L435.186 222.701L431.18 220.174ZM435.186 222.701L431.998 178.171L435.186 222.701ZM431.998 178.171L428.033 174.895L431.998 178.171ZM431.683 220.08L431.18 220.174L431.683 220.08ZM428.516 174.778L428.033 174.895L428.516 174.778ZM435.689 222.608L435.186 222.701L435.689 222.608ZM432.48 178.054L431.998 178.171L432.48 178.054ZM432.753 177.095L436.151 224.175L432.753 177.095ZM428.054 173.187L432.753 177.095L428.054 173.187ZM431.41 221.204L428.075 173.187L431.41 221.204ZM436.151 224.175L431.41 221.204L436.151 224.175ZM428.516 174.778L431.683 220.08L428.516 174.778ZM432.48 178.054L428.516 174.778L432.48 178.054ZM435.689 222.608L432.48 178.054L435.689 222.608ZM431.683 220.08L435.689 222.608L431.683 220.08ZM433.948 176.814L432.753 177.095L433.948 176.814ZM437.388 223.941L436.151 224.152L437.388 223.941ZM429.271 172.883L428.054 173.187L429.271 172.883ZM432.648 220.97L431.389 221.204L432.648 220.97ZM420.986 169.092L424.048 215.681L420.986 169.092ZM424.048 215.681L428.327 218.372L424.048 215.681ZM428.306 218.372L425.181 172.578L428.306 218.372ZM425.202 172.578L420.986 169.115L425.202 172.578ZM424.552 215.588L424.027 215.681L424.552 215.588ZM421.468 168.975L420.965 169.092L421.468 168.975ZM428.809 218.279L428.306 218.372L428.809 218.279ZM425.684 172.438L425.202 172.555L425.684 172.438ZM425.978 171.455L429.292 219.87L425.978 171.455Z" stroke="#D9D9D9" stroke-width="0.3955" stroke-miterlimit="10"/>
<path d="M388.726 278.791L385.621 279.142M424.236 216.734L420.985 167.313L424.236 216.734ZM429.291 219.893L424.236 216.734L429.291 219.893ZM421.468 168.975L424.551 215.588L421.468 168.975ZM425.684 172.438L421.468 168.951L425.684 172.438ZM428.809 218.279L425.684 172.438L428.809 218.279ZM424.551 215.588L428.809 218.279L424.551 215.588ZM427.215 171.151L425.998 171.455L427.215 171.151ZM430.571 219.659L429.312 219.893L430.571 219.659ZM422.244 166.986L421.006 167.313L422.244 166.986ZM425.537 216.477L424.257 216.734L425.537 216.477ZM413.455 162.891L416.413 210.884L413.455 162.891ZM416.413 210.884L420.964 213.762L416.413 210.884ZM420.985 213.762L417.965 166.611L420.985 213.762ZM417.965 166.611L413.476 162.914L417.965 166.611ZM416.937 210.791L416.413 210.908L416.937 210.791ZM413.98 162.774L413.476 162.914L413.98 162.774ZM421.489 213.645L420.964 213.739L421.489 213.645ZM418.468 166.471L417.965 166.611L418.468 166.471ZM418.783 165.488L422.013 215.33L418.783 165.488ZM413.455 161.042L418.783 165.465L413.455 161.042ZM416.601 211.937L413.455 161.042L416.601 211.937ZM422.013 215.33L416.601 211.961L422.013 215.33ZM413.98 162.774L416.958 210.791L413.98 162.774ZM418.468 166.471L413.98 162.774L418.468 166.471ZM421.489 213.645L418.447 166.471L421.489 213.645ZM416.937 210.791L421.489 213.669L416.937 210.791ZM420.041 165.137L418.783 165.465L420.041 165.137ZM423.292 215.073L421.992 215.33L423.292 215.073ZM414.735 160.715L413.455 161.066L414.735 160.715ZM417.923 211.68L416.601 211.937L417.923 211.68ZM405.422 156.292L408.253 205.76L405.422 156.292ZM408.274 205.76L413.162 208.825L408.274 205.76ZM413.141 208.825L410.225 160.247L413.141 208.825ZM410.225 160.247L405.422 156.292L410.225 160.247ZM408.799 205.643L408.253 205.76L408.799 205.643ZM405.946 156.152L405.422 156.292L405.946 156.152ZM413.686 208.731L413.162 208.848L413.686 208.731ZM410.749 160.106L410.225 160.247L410.749 160.106ZM411.106 159.1L414.21 210.463L411.106 159.1ZM405.422 154.373L411.106 159.1L405.422 154.373ZM408.421 206.836L405.401 154.373L408.421 206.836ZM414.21 210.463L408.421 206.859L414.21 210.463ZM405.946 156.152L408.799 205.666L405.946 156.152ZM410.749 160.106L405.946 156.152L410.749 160.106ZM413.686 208.731L410.749 160.106L413.686 208.731ZM408.799 205.643L413.665 208.708L408.799 205.643ZM412.385 158.749L411.106 159.1L412.385 158.749ZM415.532 210.182L414.21 210.44L415.532 210.182ZM406.722 153.999L405.422 154.373L406.722 153.999ZM409.764 206.555L408.421 206.836L409.764 206.555ZM396.843 149.225L399.528 200.284L396.843 149.225ZM399.528 200.261L404.751 203.56L399.528 200.261ZM404.751 203.56L401.982 153.461L404.751 203.56ZM401.982 153.437L396.843 149.202L401.982 153.437ZM400.073 200.144L399.528 200.261L400.073 200.144ZM397.367 149.061L396.843 149.225L397.367 149.061ZM405.296 203.443L404.751 203.56L405.296 203.443ZM402.506 153.297L401.982 153.437L402.506 153.297ZM402.905 152.267L405.862 205.221L402.905 152.267ZM396.801 147.213L402.884 152.267L396.801 147.213ZM399.654 201.36L396.801 147.213L399.654 201.36ZM405.862 205.245L399.654 201.36L405.862 205.245ZM397.367 149.061L400.073 200.144L397.367 149.061ZM402.506 153.297L397.367 149.061L402.506 153.297ZM405.296 203.443L402.506 153.297L405.296 203.443ZM400.073 200.144L405.296 203.443L400.073 200.144ZM404.205 151.893L402.905 152.267L404.205 151.893ZM407.226 204.941L405.862 205.221L407.226 204.941ZM398.143 146.815L396.822 147.213L398.143 146.815ZM401.038 201.056L399.654 201.36L401.038 201.056ZM387.635 141.62L390.131 194.34L387.635 141.62ZM390.131 194.364L395.752 197.897L390.131 194.364ZM395.752 197.897L393.13 146.183L395.752 197.897ZM393.151 146.16L387.635 141.62L393.151 146.16ZM390.697 194.223L390.131 194.364L390.697 194.223ZM388.18 141.456L387.635 141.62L388.18 141.456ZM396.319 197.757L395.752 197.874L396.319 197.757ZM393.676 145.996L393.13 146.16L393.676 145.996ZM394.116 144.966L396.906 199.629L394.116 144.966ZM387.572 139.538L394.095 144.966L387.572 139.538ZM390.236 195.464L387.572 139.538L390.236 195.464ZM396.906 199.629L390.236 195.464L396.906 199.629ZM388.18 141.456L390.697 194.223L388.18 141.456ZM393.676 145.996L388.159 141.456L393.676 145.996ZM396.319 197.757L393.676 145.996L396.319 197.757ZM390.697 194.223L396.319 197.78L390.697 194.223ZM395.438 144.569L394.095 144.966L395.438 144.569ZM398.29 199.325L396.906 199.629L398.29 199.325ZM388.935 139.116L387.572 139.538L388.935 139.116ZM391.641 195.136L390.236 195.464L391.641 195.136ZM377.714 133.454L380 187.976L377.714 133.454ZM380 187.976L386.062 191.79L380 187.976ZM386.083 191.79L383.671 138.344L386.083 191.79ZM383.65 138.344L377.714 133.454L383.65 138.344ZM380.587 187.835L380 187.976L380.587 187.835ZM378.28 133.29L377.714 133.477L378.28 133.29ZM386.649 191.673L386.083 191.813L386.649 191.673ZM384.195 138.18L383.65 138.344L384.195 138.18ZM384.678 137.127L387.278 193.615L384.678 137.127ZM377.651 131.277L384.678 137.127L377.651 131.277ZM380.063 189.122L377.63 131.277L380.063 189.122ZM387.257 193.615L380.063 189.122L387.257 193.615ZM378.28 133.29L380.587 187.859L378.28 133.29ZM384.195 138.18L378.259 133.29L384.195 138.18ZM386.649 191.673L384.195 138.18L386.649 191.673ZM380.587 187.835L386.649 191.649L380.587 187.835ZM386.041 136.683L384.678 137.127L386.041 136.683ZM388.684 193.287L387.257 193.615L388.684 193.287ZM379.035 130.809L377.651 131.277L379.035 130.809ZM381.51 188.771L380.063 189.122L381.51 188.771ZM367.038 124.655L369.072 181.096L367.038 124.655ZM369.051 181.096L375.616 185.214L369.051 181.096ZM375.616 185.238L373.435 129.944L375.616 185.238ZM373.435 129.944L367.038 124.679L373.435 129.944ZM369.659 180.932L369.072 181.096L369.659 180.932ZM367.604 124.468L367.038 124.655L367.604 124.468ZM376.204 185.074L375.616 185.214L376.204 185.074ZM374.001 129.756L373.435 129.944L374.001 129.756ZM374.526 128.68L376.875 187.11L374.526 128.68ZM366.933 122.362L374.526 128.657L366.933 122.362ZM369.093 182.243L366.933 122.362L369.093 182.243ZM376.875 187.11L369.093 182.243L376.875 187.11ZM367.604 124.468L369.659 180.932L367.604 124.468ZM374.001 129.756L367.604 124.468L374.001 129.756ZM376.204 185.074L374.001 129.756L376.204 185.074ZM369.659 180.932L376.225 185.074L369.659 180.932ZM375.91 128.212L374.505 128.68L375.91 128.212ZM378.322 186.759L376.875 187.11L378.322 186.759ZM368.359 121.871L366.933 122.362L368.359 121.871ZM370.561 181.868L369.093 182.243L370.561 181.868ZM121.966 278.112L123.329 264.166L121.966 278.112ZM252.346 254.081L329.807 274.345L252.346 254.081ZM329.807 274.345L329.157 224.199L329.807 274.345ZM254.108 192.89L329.157 224.175L254.108 192.89ZM252.346 254.081L254.108 192.89L252.346 254.081ZM329.807 274.345L204.796 290.655L329.807 274.345ZM204.796 290.655L205.425 278.814L204.796 290.655ZM329.157 224.199L206.998 249.705L329.157 224.199ZM204.796 290.655L121.966 278.112L204.796 290.655ZM206.977 249.681L122.322 228.972L206.977 249.681ZM121.966 278.112L252.346 254.081L121.966 278.112ZM123.329 264.166L205.425 278.814L123.329 264.166ZM206.747 254.104L121.798 234.191L206.747 254.104ZM206.747 254.104L206.977 249.681L206.747 254.104ZM205.425 278.814L248.34 272.239L205.425 278.814ZM206.747 254.104L249.158 245.61L206.747 254.104ZM123.329 264.166L218.912 243.551L123.329 264.166ZM248.34 272.239L249.158 245.61L248.34 272.239ZM205.362 278.276L206.705 253.425L205.362 278.276ZM247.585 245.165L206.705 253.402L247.585 245.165ZM246.725 271.888L247.564 245.165L246.725 271.888ZM205.362 278.276L246.746 271.888L205.362 278.276ZM249.158 245.61L247.585 245.165L249.158 245.61ZM248.34 272.239L246.746 271.888L248.34 272.239ZM206.684 253.425L129.81 235.267L206.684 253.425ZM218.912 243.574L220.548 208.778L218.912 243.574ZM127.021 264.213L129.81 235.267L127.021 264.213ZM127.021 264.213L221.01 244.136L127.021 264.213ZM221.01 244.136L222.604 209.504L221.01 244.136ZM222.625 209.504L129.81 235.29L222.625 209.504ZM218.912 243.574L221.031 244.136L218.912 243.574ZM220.548 208.778L222.604 209.504L220.548 208.778ZM127.021 264.213L205.362 278.276L127.021 264.213ZM220.842 202.601L254.108 192.913L220.842 202.601ZM220.548 208.778L220.842 202.601L220.548 208.778ZM121.798 234.191L216.185 207.257L121.798 234.191ZM216.185 207.257L216.5 201.009L216.185 207.257ZM122.343 228.972L216.5 201.009L122.343 228.972ZM121.798 234.191L122.322 228.996L121.798 234.191ZM220.548 208.778L216.185 207.257L220.548 208.778ZM220.842 202.601L216.5 201.033L220.842 202.601ZM402.758 289.04L350.048 274.322L402.758 289.04ZM350.048 274.322L259.163 285.834L350.048 274.322ZM350.048 274.322L348.852 224.152L350.048 274.322ZM348.831 224.152L260.233 242.1L348.831 224.152ZM259.163 285.811L259.457 274.251L259.163 285.811ZM260.233 242.1L319.571 259.743L260.233 242.1ZM319.865 297.043L319.571 259.743L319.865 297.043ZM400.577 247.131L348.831 224.152L400.577 247.131ZM319.571 259.743L400.577 247.131L319.571 259.743ZM319.865 297.043L402.758 289.017L319.865 297.043ZM259.163 285.811L319.865 297.043L259.163 285.811ZM402.758 289.04L402.443 282.956L402.758 289.04ZM325.13 291.076L402.443 282.933L325.13 291.076ZM400.954 254.244L324.857 265.336L400.954 254.244ZM324.857 265.336L325.13 291.076L324.857 265.336ZM400.954 254.244L400.577 247.131L400.954 254.244ZM323.032 290.655L397.619 282.722L323.032 290.655ZM322.801 264.751L323.053 290.655L322.801 264.751ZM402.443 282.956L388.726 278.791L402.443 282.956ZM400.954 254.244L387.383 248.582L400.954 254.244ZM325.13 291.076L323.032 290.655L325.13 291.076ZM324.857 265.336L322.801 264.751L324.857 265.336ZM388.726 278.791L387.383 248.605L388.726 278.791ZM396.214 253.94L397.64 282.722L396.214 253.94ZM384.321 249.073L396.214 253.94L384.321 249.073ZM385.621 279.142L384.321 249.073L385.621 279.142ZM397.64 282.722L385.621 279.142L397.64 282.722ZM387.383 248.605L384.321 249.073L387.383 248.605Z" stroke="#D9D9D9" stroke-width="0.3955" stroke-miterlimit="10"/>
<path d="M194.413 188.818L193.05 210.744M396.214 253.94L322.801 264.728L396.214 253.94ZM303.966 283.822L259.436 274.275L303.966 283.822ZM260.023 250.501L303.966 262.622L260.023 250.501ZM303.987 262.622L303.966 283.822L303.987 262.622ZM260.023 250.501L260.233 242.1L260.023 250.501ZM306.902 262.154L306.923 283.448L306.902 262.154ZM306.923 283.448L263.715 274.041L306.923 283.448ZM260.023 250.501L292.849 244.323L260.023 250.501ZM259.436 274.252L292.681 269.384L259.436 274.252ZM303.987 262.622L306.902 262.177L303.987 262.622ZM303.966 283.822L306.923 283.471L303.966 283.822ZM292.681 269.384L292.849 244.323L292.681 269.384ZM264.239 250.243L263.715 274.064L264.239 250.243ZM263.715 274.064L293.835 269.665L263.715 274.064ZM293.835 269.665L293.982 244.674L293.835 269.665ZM293.982 244.674L264.239 250.243L293.982 244.674ZM292.681 269.384L293.814 269.665L292.681 269.384ZM292.87 244.323L293.982 244.674L292.87 244.323ZM264.239 250.243L306.902 262.154L264.239 250.243ZM321.732 187.157L209.033 128.54L321.732 187.157ZM227.323 212.593L321.732 187.133L227.323 212.593ZM109.842 172.181L227.323 212.593L109.842 172.181ZM209.033 128.54L109.842 172.181L209.033 128.54ZM227.323 212.593L229.547 161.417L227.323 212.593ZM109.842 172.181L114.373 131.488L109.842 172.181ZM209.033 128.54L213.291 52.8174L209.033 128.54ZM213.291 52.8174L116.89 108.767L213.291 52.8174ZM229.547 161.417L321.186 128.165L229.547 161.417ZM321.732 187.157L321.186 128.165L321.732 187.157ZM321.186 128.165L213.291 52.8174L321.186 128.165ZM116.89 108.767L229.526 161.417L116.89 108.767ZM218.388 175.48L218.996 163.195L218.388 175.48ZM218.975 163.195L116.03 116.676L218.975 163.195ZM114.373 131.488L218.388 175.457L114.373 131.488ZM116.03 116.676L116.911 108.767L116.03 116.676ZM220.779 162.54L120.791 117.027L220.779 162.54ZM220.192 174.848L220.779 162.54L220.192 174.848ZM116.03 116.676L202.992 67.6998L116.03 116.676ZM114.373 131.488L201.923 85.0392L114.373 131.488ZM218.975 163.195L220.779 162.54L218.975 163.195ZM218.388 175.48L220.192 174.848L218.388 175.48ZM201.923 85.0392L202.992 67.6764L201.923 85.0392ZM119.197 131.816L120.812 117.004L119.197 131.816ZM119.197 131.816L204.943 86.8878L119.197 131.816ZM204.943 86.8878L205.971 69.6186L204.943 86.8878ZM205.992 69.6186L120.812 117.004L205.992 69.6186ZM201.923 85.0392L204.964 86.8878L201.923 85.0392ZM202.992 67.6764L205.992 69.6186L202.992 67.6764ZM119.197 131.816L220.192 174.848L119.197 131.816ZM236.552 201.431L184.136 181.588L236.552 201.431ZM234.937 242.896L236.531 201.431L234.937 242.896ZM234.937 242.896L231.98 242.077L234.937 242.896ZM180.948 227.92L184.136 181.588L180.948 227.92ZM184.136 181.588L272.168 150.302L184.136 181.588ZM272.168 150.302L321.249 177.259L272.168 150.302ZM321.228 177.259L236.531 201.431L321.228 177.259ZM321.648 224.644L321.228 177.259L321.648 224.644ZM180.948 227.92L271.119 204.122L180.948 227.92ZM271.119 204.122L272.147 150.302L271.119 204.122ZM271.119 204.122L321.648 224.644L271.119 204.122ZM321.648 224.644L234.937 242.896L321.648 224.644ZM233.49 204.59L231.98 242.077L233.49 204.59ZM184.702 228.949L187.45 187.625L184.702 228.949ZM187.45 187.625L233.49 204.59L187.45 187.625ZM184.702 228.949L180.948 227.92L184.702 228.949ZM234.895 241.445L187.66 228.177L234.895 241.445ZM187.639 228.177L190.344 186.642L187.639 228.177ZM190.344 186.642L236.343 203.794L190.344 186.642ZM236.343 203.794L234.895 241.445L236.343 203.794ZM184.702 228.949L187.639 228.177L184.702 228.949ZM232.001 242.077L234.895 241.468L232.001 242.077ZM187.45 187.625L190.344 186.642L187.45 187.625ZM233.49 204.59L236.322 203.794L233.49 204.59ZM234.581 240.743L188.1 227.615L234.581 240.743ZM188.1 227.615L190.701 187.461L188.1 227.615ZM190.701 187.461L236.007 204.286L190.701 187.461ZM236.007 204.262L234.602 240.719L236.007 204.262ZM191.078 187.321L236.384 204.169L191.078 187.321ZM236.384 204.169L234.979 240.649L236.384 204.169ZM234.979 240.649L188.499 227.522L234.979 240.649ZM188.499 227.522L191.099 187.321L188.499 227.522ZM236.007 204.262L236.384 204.145L236.007 204.262ZM190.701 187.461L191.078 187.321L190.701 187.461ZM234.581 240.743L234.958 240.649L234.581 240.743ZM188.1 227.615L188.499 227.522L188.1 227.615ZM196.343 209.995L191.666 211.352L196.343 209.995ZM191.666 211.376L193.155 187.859L191.666 211.376ZM193.155 187.835L197.79 186.268L193.155 187.835ZM197.769 186.291L196.322 210.019L197.769 186.291ZM197.916 209.551L199.343 185.753L197.916 209.551ZM199.343 185.753L204.083 184.162L199.343 185.753ZM202.699 208.147L197.895 209.551L202.699 208.147ZM204.083 184.162L202.72 208.147L204.083 184.162ZM205.677 183.623L210.543 181.985L205.677 183.623ZM204.335 207.679L205.698 183.623L204.335 207.679ZM209.243 206.251L204.335 207.679L209.243 206.251ZM210.543 181.985L209.243 206.251L210.543 181.985ZM212.179 181.424L217.171 179.739L212.179 181.424ZM217.171 179.762L215.955 204.309L217.171 179.762ZM215.934 204.309L210.9 205.783L215.934 204.309ZM210.9 205.76L212.179 181.424L210.9 205.76ZM223.967 177.469L222.814 202.297L223.967 177.469ZM218.849 179.177L223.967 177.446L218.849 179.177ZM217.654 203.794L218.87 179.177L217.654 203.794ZM222.814 202.297L217.633 203.794L222.814 202.297ZM219.311 179.365L224.429 177.656L219.311 179.365ZM218.115 203.958L219.311 179.365L218.115 203.958ZM223.275 202.46L218.094 203.958L223.275 202.46ZM224.429 177.656L223.296 202.46L224.429 177.656ZM218.849 179.177L219.311 179.365L218.849 179.177ZM223.967 177.469L224.429 177.656L223.967 177.469ZM217.654 203.794L218.115 203.958L217.654 203.794ZM222.814 202.297L223.275 202.46L222.814 202.297ZM212.641 181.611L217.633 179.926L212.641 181.611ZM211.361 205.924L212.641 181.611L211.361 205.924ZM216.416 204.473L211.382 205.947L216.416 204.473ZM217.633 179.95L216.416 204.473L217.633 179.95ZM212.179 181.424L212.641 181.611L212.179 181.424ZM217.171 179.762L217.633 179.95L217.171 179.762ZM210.9 205.76L211.361 205.924L210.9 205.76ZM215.934 204.309L216.395 204.473L215.934 204.309ZM206.139 183.811L211.005 182.173L206.139 183.811ZM204.796 207.842L206.139 183.811L204.796 207.842ZM209.704 206.415L204.796 207.842L209.704 206.415ZM211.005 182.173L209.704 206.415L211.005 182.173ZM205.677 183.623L206.139 183.811L205.677 183.623ZM210.543 181.985L211.005 182.173L210.543 181.985ZM204.335 207.679L204.796 207.842L204.335 207.679ZM209.243 206.251L209.704 206.415L209.243 206.251ZM199.804 185.94L204.544 184.349L199.804 185.94ZM198.378 209.691L199.804 185.917L198.378 209.691ZM203.181 208.31L198.378 209.714L203.181 208.31ZM204.544 184.349L203.181 208.31L204.544 184.349ZM199.343 185.753L199.804 185.94L199.343 185.753ZM204.083 184.162L204.544 184.349L204.083 184.162ZM197.916 209.551L198.378 209.714L197.916 209.551ZM202.699 208.147L203.16 208.31L202.699 208.147ZM193.616 188.023L198.252 186.478L193.616 188.023ZM192.127 211.516L193.616 187.999L192.127 211.516ZM196.805 210.159L192.127 211.516L196.805 210.159ZM198.231 186.455L196.805 210.159L198.231 186.455ZM193.155 187.835L193.616 187.999L193.155 187.835ZM197.769 186.291L198.231 186.455L197.769 186.291ZM191.666 211.376L192.127 211.516L191.666 211.376ZM196.343 209.995L196.805 210.159L196.343 209.995ZM193.952 188.654L192.568 210.604L193.952 188.654ZM192.568 210.604L196.469 209.457L192.568 210.604ZM196.469 209.48L197.811 187.367L196.469 209.48ZM197.79 187.367L193.931 188.654L197.79 187.367ZM200.14 186.572L198.818 208.778L200.14 186.572ZM198.818 208.778L202.803 207.608L198.818 208.778ZM202.824 207.608L204.104 185.261L202.824 207.608ZM204.104 185.261L200.14 186.595L204.104 185.261ZM206.495 184.466L205.237 206.906L206.495 184.466ZM205.237 206.906L209.327 205.713L205.237 206.906ZM209.348 205.713L210.564 183.109L209.348 205.713ZM210.543 183.109L206.495 184.466L210.543 183.109ZM213.018 182.266L211.823 204.964L213.018 182.266ZM211.823 204.988L216.018 203.771L211.823 204.988ZM216.018 203.747L217.15 180.886L216.018 203.747ZM217.171 180.886L213.018 182.266L217.171 180.886ZM219.688 180.043L218.577 203.022L219.688 180.043ZM218.577 203.022L222.877 201.758L218.577 203.022ZM222.898 201.758L223.967 178.616L222.898 201.758ZM223.946 178.616L219.688 180.043L223.946 178.616ZM220.15 180.23L219.038 203.186L220.15 180.23ZM219.038 203.186L223.338 201.922L219.038 203.186ZM223.359 201.922L224.429 178.803L223.359 201.922ZM224.408 178.803L220.15 180.23L224.408 178.803ZM218.577 203.022L219.038 203.186L218.577 203.022ZM219.688 180.043L220.15 180.23L219.688 180.043ZM222.898 201.758L223.359 201.922L222.898 201.758ZM223.946 178.616L224.408 178.803L223.946 178.616ZM217.633 181.073L213.48 182.453L217.633 181.073ZM213.48 182.453L212.305 205.151L213.48 182.453ZM212.284 205.151L216.479 203.935L212.284 205.151ZM216.5 203.935L217.633 181.096L216.5 203.935ZM213.018 182.266L213.48 182.453L213.018 182.266ZM217.171 180.886L217.633 181.073L217.171 180.886ZM211.823 204.988L212.284 205.151L211.823 204.988ZM216.018 203.747L216.479 203.911L216.018 203.747ZM205.719 207.07L209.809 205.877L205.719 207.07ZM209.809 205.877L211.005 183.296L209.809 205.877ZM211.005 183.272L206.957 184.63L211.005 183.272ZM206.957 184.63L205.719 207.07L206.957 184.63ZM209.348 205.713L209.809 205.877L209.348 205.713ZM205.237 206.906L205.698 207.07L205.237 206.906ZM210.543 183.109L211.005 183.296L210.543 183.109ZM206.495 184.466L206.957 184.653L206.495 184.466ZM200.601 186.759L199.301 208.942L200.601 186.759ZM199.301 208.942L203.286 207.772L199.301 208.942ZM203.286 207.772L204.565 185.449L203.286 207.772ZM204.565 185.449L200.622 186.759L204.565 185.449ZM198.818 208.778L199.28 208.942L198.818 208.778ZM200.14 186.572L200.601 186.759L200.14 186.572ZM202.824 207.608L203.286 207.772L202.824 207.608ZM204.104 185.261L204.565 185.449L204.104 185.261ZM196.93 209.621L198.273 187.531L196.93 209.621ZM198.252 187.531L194.393 188.818L198.252 187.531Z" stroke="#D9D9D9" stroke-width="0.3955" stroke-miterlimit="10"/>
<path d="M287.061 202.203L315.272 214.301M193.03 210.768L196.931 209.621L193.03 210.768ZM197.791 187.368L198.253 187.531L197.791 187.368ZM196.47 209.481L196.931 209.644L196.47 209.481ZM193.953 188.655L194.414 188.818L193.953 188.655ZM192.568 210.604L193.03 210.744L192.568 210.604ZM540.208 138.438L560.847 179.529L540.208 138.438ZM560.847 179.505L551.996 118.244L560.847 179.505ZM530.266 65.4301L551.996 118.244L530.266 65.4301ZM540.208 138.438L539.621 134.109L540.208 138.438ZM304.449 199.185L540.208 138.438L304.449 199.185ZM304.47 143.844L530.266 65.4301L304.47 143.844ZM304.449 199.185L304.491 143.844L304.449 199.185ZM353.803 221.859L304.428 199.185L353.803 221.859ZM560.847 179.505L461.363 199.863L560.847 179.505ZM353.803 221.859L352.524 173.585L353.803 221.859ZM551.996 118.244L352.524 173.585L551.996 118.244ZM352.524 173.585L304.47 143.82L352.524 173.585ZM378.596 176.416L364.605 180.09L378.596 176.416ZM364.626 180.09L363.074 133.875L364.626 180.09ZM363.074 133.899L376.645 129.382L363.074 133.899ZM376.645 129.382L378.596 176.416L376.645 129.382ZM379.435 128.47L393.698 123.743L379.435 128.47ZM381.469 175.668L379.435 128.446L381.469 175.668ZM396.173 171.807L381.469 175.668L396.173 171.807ZM393.698 123.72L396.173 171.807L393.698 123.72ZM396.613 122.76L411.589 117.799L396.613 122.76ZM399.172 171.011L396.592 122.76L399.172 171.011ZM414.652 166.939L399.193 171.011L414.652 166.939ZM411.589 117.799L414.652 166.963L411.589 117.799ZM414.652 116.77L430.404 111.552L414.652 116.77ZM417.819 166.12L414.652 116.77L417.819 166.12ZM434.116 161.838L417.819 166.12L434.116 161.838ZM430.425 111.528L434.116 161.815L430.425 111.528ZM433.655 110.475L450.246 104.976L433.655 110.475ZM437.451 160.949L433.634 110.475L437.451 160.949ZM454.651 156.433L437.451 160.949L454.651 156.433ZM450.246 104.953L454.651 156.433L450.246 104.953ZM453.665 103.83L471.179 98.0263L453.665 103.83ZM458.196 155.497L453.665 103.83L458.196 155.497ZM476.36 150.723L458.196 155.497L476.36 150.723ZM471.179 98.0029L476.36 150.723L471.179 98.0029ZM474.766 96.8095L493.266 90.6787L474.766 96.8095ZM480.094 149.74L474.766 96.8095L480.094 149.74ZM499.307 144.686L480.073 149.74L499.307 144.686ZM493.266 90.6787L499.307 144.686L493.266 90.6787ZM363.913 134.554L377.463 130.084L363.913 134.554ZM365.486 180.628L363.913 134.53L365.486 180.628ZM379.435 176.978L365.465 180.628L379.435 176.978ZM377.484 130.061L379.456 176.978L377.484 130.061ZM363.074 133.899L363.913 134.554L363.074 133.899ZM376.645 129.382L377.463 130.061L376.645 129.382ZM364.626 180.09L365.486 180.628L364.626 180.09ZM378.596 176.416L379.435 176.978L378.596 176.416ZM380.253 129.148L394.474 124.445L380.253 129.148ZM382.308 176.229L380.253 129.148L382.308 176.229ZM396.97 172.392L382.308 176.229L396.97 172.392ZM394.474 124.445L396.97 172.392L394.474 124.445ZM379.435 128.47L380.253 129.148L379.435 128.47ZM393.698 123.72L394.495 124.445L393.698 123.72ZM381.469 175.668L382.308 176.229L381.469 175.668ZM396.173 171.807L396.97 172.392L396.173 171.807ZM397.389 123.486L412.344 118.548L397.389 123.486ZM399.969 171.596L397.389 123.462L399.969 171.596ZM415.407 167.571L399.969 171.619L415.407 167.571ZM412.344 118.548L415.407 167.571L412.344 118.548ZM396.613 122.76L397.389 123.486L396.613 122.76ZM411.589 117.799L412.344 118.548L411.589 117.799ZM399.172 171.011L399.969 171.596L399.172 171.011ZM414.652 166.939L415.407 167.548L414.652 166.939ZM415.407 117.542L431.138 112.347L415.407 117.542ZM418.574 166.729L415.407 117.542L418.574 166.729ZM434.83 162.493L418.574 166.752L434.83 162.493ZM431.117 112.324L434.83 162.47L431.117 112.324ZM414.652 116.77L415.386 117.542L414.652 116.77ZM430.425 111.528L431.138 112.324L430.425 111.528ZM417.819 166.12L418.574 166.752L417.819 166.12ZM434.116 161.838L434.83 162.493L434.116 161.838ZM434.347 111.271L450.917 105.795L434.347 111.271ZM438.165 161.604L434.347 111.271L438.165 161.604ZM455.322 157.111L438.165 161.604L455.322 157.111ZM450.917 105.795L455.322 157.111L450.917 105.795ZM433.655 110.475L434.347 111.271L433.655 110.475ZM450.246 104.953L450.917 105.795L450.246 104.953ZM437.451 160.949L438.165 161.604L437.451 160.949ZM454.651 156.433L455.322 157.111L454.651 156.433ZM454.315 104.672L471.788 98.8921L454.315 104.672ZM458.846 156.199L454.315 104.672L458.846 156.199ZM476.968 151.449L458.846 156.199L476.968 151.449ZM471.788 98.8921L476.968 151.449L471.788 98.8921ZM453.665 103.83L454.315 104.672L453.665 103.83ZM471.179 98.0029L471.788 98.8921L471.179 98.0029ZM458.196 155.497L458.846 156.199L458.196 155.497ZM476.36 150.723L476.968 151.449L476.36 150.723ZM475.374 97.7221L493.832 91.6147L475.374 97.7221ZM480.681 150.466L475.353 97.6987L480.681 150.466ZM499.852 145.458L480.681 150.466L499.852 145.458ZM493.832 91.6147L499.873 145.458L493.832 91.6147ZM474.766 96.8095L475.374 97.6987L474.766 96.8095ZM493.266 90.6787L493.811 91.6147L493.266 90.6787ZM480.094 149.74L480.702 150.466L480.094 149.74ZM499.307 144.686L499.852 145.458L499.307 144.686ZM539.621 134.086L513.989 140.825L539.621 134.086ZM513.989 140.825L507.382 85.9987L513.989 140.825ZM507.361 85.9987L531.965 77.8321L507.361 85.9987ZM531.965 77.8321L530.266 65.4067L531.965 77.8321ZM507.886 86.9581L529.574 79.7977L507.886 86.9581ZM514.472 141.621L507.865 86.9581L514.472 141.621ZM531.965 77.8321L546.018 111.06L531.965 77.8321ZM539.621 134.086L553.171 161.44L539.621 134.086ZM507.361 85.9987L507.865 86.9581L507.361 85.9987ZM513.989 140.825L514.493 141.621L513.989 140.825ZM553.171 161.44L546.039 111.06L553.171 161.44ZM537.083 135.724L529.574 79.8211L537.083 135.724ZM537.083 135.724L550.528 162.049L537.083 135.724ZM550.528 162.049L543.501 111.809L550.528 162.049ZM543.48 111.809L529.574 79.7977L543.48 111.809ZM553.171 161.44L550.528 162.049L553.171 161.44ZM546.018 111.06L543.48 111.786L546.018 111.06ZM537.083 135.724L514.472 141.644L537.083 135.724ZM422.14 163.64L425.055 207.281L422.14 163.64ZM461.363 199.863L457.399 154.327L461.363 199.863ZM457.378 154.327L422.14 163.663L457.378 154.327ZM425.055 207.281L353.803 221.859L425.055 207.281ZM459.119 197.991L422.517 205.596L459.119 197.991ZM419.644 161.511L422.517 205.596L419.644 161.511ZM455.175 151.987L419.644 161.511L455.175 151.987ZM459.119 197.991L455.154 151.963L459.119 197.991ZM425.055 207.281L422.517 205.596L425.055 207.281ZM461.363 199.863L459.14 197.991L461.363 199.863ZM422.14 163.64L419.644 161.511L422.14 163.64ZM457.378 154.327L455.154 151.987L457.378 154.327ZM464.845 171.877L463.125 152.806L464.845 171.877ZM463.125 152.806L547.843 130.365L463.125 152.806ZM547.843 130.365L550.8 151.261L547.843 130.365ZM550.8 151.285L464.845 171.877L550.8 151.285ZM462.684 169.701L460.964 150.442L462.684 169.701ZM460.964 150.419L546.542 127.44L460.964 150.419ZM546.521 127.44L549.5 148.57L546.521 127.44ZM549.5 148.594L462.684 169.701L549.5 148.594ZM463.125 152.806L460.964 150.419L463.125 152.806ZM464.845 171.877L462.663 169.701L464.845 171.877ZM547.843 130.365L546.521 127.44L547.843 130.365ZM550.8 151.285L549.5 148.594L550.8 151.285ZM461.594 233.583L460.902 225.627L461.594 233.583ZM457.776 189.099L422.538 158.188L457.776 189.099ZM328.423 255.017L327.962 217.577L328.423 255.017ZM327.962 217.577L457.776 189.076L327.962 217.577ZM280.391 196.845L327.941 217.577L280.391 196.845ZM422.538 158.188L280.391 196.845L422.538 158.188ZM328.423 255.017L335.807 253.824L328.423 255.017ZM426.02 210.136L279.803 239.456L426.02 210.136ZM426.02 210.136L422.538 158.188L426.02 210.136ZM279.803 239.456L280.412 196.868L279.803 239.456ZM279.803 239.456L283.873 240.766L279.803 239.456ZM461.594 233.583L426.02 210.136L461.594 233.583ZM433.949 206.79L431.641 174.498L433.949 206.79ZM431.62 174.498L458.447 197.008L431.62 174.498ZM460.902 225.627L433.928 206.79L460.902 225.627ZM458.447 197.008L457.776 189.099L458.447 197.008ZM428.663 175.223L454.987 196.915L428.663 175.223ZM430.907 207.398L428.663 175.246L430.907 207.398ZM458.447 197.008L368.486 215.822L458.447 197.008ZM460.902 225.627L369.388 241.305L460.902 225.627ZM431.62 174.498L428.642 175.223L431.62 174.498ZM433.949 206.79L430.907 207.398L433.949 206.79ZM369.388 241.305L368.507 215.799L369.388 241.305ZM454.987 196.938L457.378 225.58L454.987 196.938ZM457.378 225.58L368.381 240.907L457.378 225.58ZM368.381 240.907L367.5 215.307L368.381 240.907ZM367.5 215.307L454.966 196.938L367.5 215.307ZM369.388 241.305L368.381 240.883L369.388 241.305ZM368.486 215.799L367.5 215.307L368.486 215.799ZM457.378 225.58L430.907 207.398L457.378 225.58ZM361.186 214.137L362.277 249.565L361.186 214.137ZM335.807 253.824L335.24 219.66L335.807 253.824ZM335.24 219.683L361.186 214.137L335.24 219.683ZM362.277 249.565L461.573 233.583L362.277 249.565ZM325.424 250.384L352.377 245.821L325.424 250.384ZM325.424 250.384L325.046 215.19L325.424 250.384ZM325.046 215.214L351.454 209.293L325.046 215.214ZM351.454 209.293L352.398 245.844L351.454 209.293ZM335.807 253.824L325.445 250.384L335.807 253.824ZM362.277 249.565L352.377 245.844L362.277 249.565ZM335.24 219.683L325.046 215.214L335.24 219.683ZM361.186 214.137L351.454 209.293L361.186 214.137ZM313.762 213.763L313.93 250.384L313.762 213.763ZM283.852 240.743L284.313 201.127L283.852 240.743ZM284.334 201.127L313.762 213.739L284.334 201.127ZM313.93 250.384L328.423 255.017L313.93 250.384ZM286.012 240.322L316.006 250.009L286.012 240.322ZM286.012 240.322L286.431 200.565L286.012 240.322ZM286.431 200.565L315.796 213.271L286.431 200.565ZM315.796 213.295L316.006 250.033L315.796 213.295ZM283.852 240.743L285.991 240.322L283.852 240.743ZM313.93 250.384L316.006 250.033L313.93 250.384ZM284.334 201.127L286.431 200.565L284.334 201.127ZM313.762 213.763L315.796 213.295L313.762 213.763ZM315.44 248.535L286.662 239.128L315.44 248.535ZM286.683 239.128L287.061 202.203L286.683 239.128Z" stroke="#D9D9D9" stroke-width="0.3955" stroke-miterlimit="10"/>
<path d="M309.231 223.193L307.155 222.374M315.251 214.301L315.44 248.535L315.251 214.301ZM287.081 239.035L287.459 202.086L287.081 239.035ZM287.459 202.086L315.649 214.207L287.459 202.086ZM315.649 214.207L315.838 248.465L315.649 214.207ZM315.838 248.465L287.081 239.035L315.838 248.465ZM287.061 202.203L287.459 202.109L287.061 202.203ZM286.683 239.128L287.102 239.058L286.683 239.128ZM315.251 214.301L315.649 214.207L315.251 214.301ZM315.44 248.535L315.838 248.465L315.44 248.535ZM645.817 363.125L313.405 361.861L645.817 363.125ZM38.1921 365.278L86.4346 366.237L38.1921 365.278ZM36.7029 376.135L85.0503 378.616L36.7029 376.135ZM36.7029 376.135L38.1921 365.278L36.7029 376.135ZM313.447 367.454L313.426 361.861L313.447 367.454ZM104.578 366.003L86.4346 366.26L104.578 366.003ZM123.099 366.986L141.578 366.682L123.099 366.986ZM141.557 366.682L104.578 366.003L141.557 366.682ZM123.099 366.986L645.838 378.616L123.099 366.986ZM141.012 373.187L103.97 371.97L141.012 373.187ZM103.97 371.947L92.2447 372.251L103.97 371.947ZM123.099 366.986L121.84 380.511L123.099 366.986ZM86.4346 366.26L85.0503 378.616L86.4346 366.26ZM141.557 366.682L141.012 373.187L141.557 366.682ZM104.578 366.003L103.97 371.97L104.578 366.003ZM129.098 373.538L141.012 373.187L129.098 373.538ZM92.2447 372.251L129.098 373.538L92.2447 372.251ZM121.84 380.511L128.51 380.23L121.84 380.511ZM91.5735 378.382L128.489 380.23L91.5735 378.382ZM91.5735 378.382L85.0503 378.616L91.5735 378.382ZM129.098 373.538L128.489 380.23L129.098 373.538ZM92.2447 372.251L91.5735 378.382L92.2447 372.251ZM121.84 380.511L306.84 391.018L121.84 380.511ZM369.954 365.98L413.875 364.763L369.954 365.98ZM362.193 363.569L645.838 365.816L362.193 363.569ZM411.295 362.657L362.172 363.569L411.295 362.657ZM411.212 360.902L362.13 361.44L411.212 360.902ZM369.807 361.44L413.666 360.949L369.807 361.44ZM411.295 362.657L411.191 360.902L411.295 362.657ZM362.193 363.569L362.13 361.44L362.193 363.569ZM369.954 365.98L369.807 361.44L369.954 365.98ZM413.875 364.763L413.666 360.949L413.875 364.763ZM281.754 367.056L0.541972 374.661L281.754 367.056ZM0.541972 374.661L2.09412 364.693L0.541972 374.661ZM281.817 361.697L2.09412 364.693L281.817 361.697ZM281.754 367.056L281.817 361.721L281.754 367.056ZM36.7029 376.135L0.520996 374.661L36.7029 376.135ZM313.447 367.454L281.754 367.033L313.447 367.454ZM38.1921 365.278L2.07315 364.693L38.1921 365.278ZM313.405 361.861L281.796 361.697L313.405 361.861ZM276.447 231.921L118.862 178.709L276.447 231.921ZM276.426 233.021L118.694 180.23L276.426 233.021ZM276.426 233.021L276.447 231.921L276.426 233.021ZM355.67 102.098L238.273 0.144043L355.67 102.098ZM542.725 30.447L355.67 102.098L542.725 30.447ZM542.725 30.447L573.159 122.9L542.725 30.447ZM543.102 32.9742L355.733 104.157L543.102 32.9742ZM355.733 104.18L238.147 2.88185L355.733 104.18ZM542.725 30.447L543.102 32.9742L542.725 30.447ZM355.67 102.098L355.733 104.157L355.67 102.098ZM238.252 0.167444L238.147 2.88185L238.252 0.167444ZM543.102 32.9742L573.474 124.819L543.102 32.9742ZM440.262 158.188L573.139 122.9L440.262 158.188ZM473.402 189.707L440.262 158.211L473.402 189.707ZM473.402 189.707L276.447 231.921L473.402 189.707ZM473.528 191.135L440.388 159.872L473.528 191.135ZM440.409 159.872L573.474 124.843L440.409 159.872ZM473.402 189.707L473.528 191.135L473.402 189.707ZM440.262 158.188L440.388 159.849L440.262 158.188ZM573.159 122.9L573.453 124.819L573.159 122.9ZM473.528 191.135L276.426 233.021L473.528 191.135ZM188.772 149.647L118.862 178.709L188.772 149.647ZM82.2396 101.536L188.793 149.647L82.2396 101.536ZM82.2396 101.536L238.273 0.167444L82.2396 101.536ZM81.9669 103.595L188.667 151.378L81.9669 103.595ZM188.667 151.378L118.715 180.23L188.667 151.378ZM82.2396 101.536L81.9669 103.619L82.2396 101.536ZM188.772 149.647L188.646 151.378L188.772 149.647ZM118.862 178.709L118.694 180.23L118.862 178.709ZM81.9669 103.595L238.147 2.88185L81.9669 103.595ZM311.874 362.75L311.412 221.438L311.874 362.75ZM313.321 362.727L312.755 222.444L313.321 362.727ZM313.321 362.727L311.098 362.75L313.321 362.727ZM311.119 362.75L310.72 221.602L311.119 362.75ZM312.776 222.421L310.72 221.602L312.776 222.421ZM310.699 221.602L311.412 221.438L310.699 221.602ZM311.412 221.438L313.468 222.28L311.412 221.438ZM313.468 222.28L312.755 222.444L313.468 222.28ZM314.097 362.727H313.342H314.097ZM314.097 362.727L313.468 222.28L314.097 362.727ZM311.874 362.75L314.097 362.727L311.874 362.75ZM311.119 362.75H311.895H311.119ZM304.281 362.704L304.365 222.982L304.281 362.704ZM305.77 362.657L305.749 223.942L305.77 362.657ZM305.77 362.657L303.526 362.68L305.77 362.657ZM303.526 362.704L303.673 223.146L303.526 362.704ZM305.749 223.942L303.673 223.123L305.749 223.942ZM303.673 223.146L304.365 222.982L303.673 223.146ZM304.365 222.982L306.441 223.801L304.365 222.982ZM306.441 223.801L305.749 223.942L306.441 223.801ZM306.525 362.68H305.77H306.525ZM306.525 362.68L306.441 223.801L306.525 362.68ZM304.281 362.704L306.525 362.68L304.281 362.704ZM303.526 362.704H304.281H303.526ZM296.877 362.657L297.485 224.503L296.877 362.657ZM298.408 362.61L298.911 225.439L298.408 362.61ZM298.408 362.61L296.143 362.633L298.408 362.61ZM296.143 362.633L296.814 224.644L296.143 362.633ZM298.89 225.439L296.793 224.644L298.89 225.439ZM296.793 224.644L297.464 224.503L296.793 224.644ZM297.485 224.503L299.583 225.299L297.485 224.503ZM299.583 225.299L298.911 225.439L299.583 225.299ZM299.142 362.61H298.408H299.142ZM299.142 362.61L299.583 225.275L299.142 362.61ZM296.877 362.657L299.142 362.633L296.877 362.657ZM296.143 362.633H296.877H296.143ZM289.64 362.587L290.752 225.954L289.64 362.587ZM291.193 362.563L292.178 226.89L291.193 362.563ZM291.193 362.563L288.906 362.587L291.193 362.563ZM288.927 362.587L290.081 226.118L288.927 362.587ZM292.199 226.89L290.081 226.118L292.199 226.89ZM290.081 226.118L290.752 225.977L290.081 226.118ZM290.752 225.977L292.871 226.75L290.752 225.977ZM292.85 226.75L292.178 226.89L292.85 226.75ZM291.906 362.563H291.193H291.906ZM291.906 362.563L292.85 226.75L291.906 362.563ZM289.64 362.587L291.927 362.563L289.64 362.587ZM288.927 362.587H289.64H288.927ZM282.572 362.54L284.166 227.405L282.572 362.54ZM284.166 362.516L285.634 228.317L284.166 362.516ZM284.166 362.516L281.859 362.54L284.166 362.516ZM281.88 362.54L283.516 227.569L281.88 362.54ZM285.634 228.317L283.495 227.569L285.634 228.317ZM283.516 227.545L284.166 227.405L283.516 227.545ZM284.166 227.405L286.305 228.154L284.166 227.405ZM286.284 228.177L285.634 228.317L286.284 228.177ZM284.858 362.516H284.166H284.858ZM284.858 362.516L286.284 228.177L284.858 362.516ZM282.572 362.54L284.858 362.516L282.572 362.54ZM281.88 362.54H282.572H281.88ZM315.754 362.774L314.999 220.642L315.754 362.774ZM317.181 362.75L316.342 221.648L317.181 362.75ZM317.181 362.75L314.978 362.774L317.181 362.75ZM314.978 362.774L314.286 220.806L314.978 362.774ZM316.321 221.648L314.265 220.806L316.321 221.648ZM314.286 220.806L314.999 220.642L314.286 220.806ZM314.999 220.666L317.055 221.508L314.999 220.666ZM317.055 221.508L316.342 221.672L317.055 221.508ZM317.957 362.75H317.181H317.957ZM317.957 362.75L317.055 221.485L317.957 362.75ZM315.754 362.774L317.957 362.75L315.754 362.774ZM314.978 362.774H315.754H314.978ZM286.075 362.563L287.417 226.679L286.075 362.563ZM287.669 362.54L288.906 227.615L287.669 362.54ZM287.669 362.54L285.383 362.563L287.669 362.54ZM285.383 362.563L286.788 226.843L285.383 362.563ZM288.906 227.615L286.788 226.843L288.906 227.615ZM286.767 226.843L287.417 226.703L286.767 226.843ZM287.438 226.703L289.557 227.475L287.438 226.703ZM289.557 227.475L288.906 227.615L289.557 227.475ZM288.361 362.54H287.648H288.361ZM288.361 362.54L289.557 227.452L288.361 362.54ZM286.075 362.563L288.361 362.54L286.075 362.563ZM285.383 362.563H286.096H285.383ZM300.547 362.68L300.904 223.754L300.547 362.68ZM302.058 362.633L302.309 224.69L302.058 362.633ZM302.058 362.633L299.813 362.657L302.058 362.633ZM299.813 362.657L300.212 223.895L299.813 362.657ZM302.309 224.69L300.212 223.895L302.309 224.69ZM300.212 223.895L300.904 223.754L300.212 223.895ZM300.904 223.754L303.002 224.55L300.904 223.754ZM303.002 224.55L302.309 224.69L303.002 224.55ZM302.813 362.657H302.079H302.813ZM302.813 362.657L303.002 224.55L302.813 362.657ZM300.547 362.68L302.792 362.657L300.547 362.68ZM299.813 362.657H300.547H299.813ZM293.227 362.61L294.087 225.229L293.227 362.61ZM294.779 362.587L295.534 226.165L294.779 362.587ZM294.779 362.587L292.514 362.61L294.779 362.587ZM292.514 362.61L293.437 225.369L292.514 362.61ZM295.534 226.165L293.437 225.392L295.534 226.165ZM293.416 225.392L294.087 225.252L293.416 225.392ZM294.087 225.229L296.185 226.024L294.087 225.229ZM296.206 226.024L295.534 226.165L296.206 226.024ZM295.492 362.587H294.779H295.492ZM295.492 362.587L296.185 226.024L295.492 362.587ZM293.227 362.61L295.492 362.587L293.227 362.61ZM292.514 362.61H293.227H292.514ZM308.056 362.727L307.868 222.21L308.056 362.727ZM309.525 362.704L309.231 223.193L309.525 362.704ZM309.525 362.704L307.301 362.727L309.525 362.704ZM307.301 362.727L307.176 222.374L307.301 362.727Z" stroke="#D9D9D9" stroke-width="0.3955" stroke-miterlimit="10"/>
<path d="M420.546 260.75L421.406 274.673M307.176 222.374L307.889 222.21L307.176 222.374ZM307.868 222.21L309.944 223.029L307.868 222.21ZM309.944 223.029L309.252 223.193L309.944 223.029ZM310.28 362.704H309.525H310.28ZM310.28 362.704L309.944 223.052L310.28 362.704ZM308.057 362.727L310.28 362.704L308.057 362.727ZM307.302 362.727H308.057H307.302ZM323.662 362.516L323.62 358.585L323.662 362.516ZM406.576 358.585L346.294 358.562L406.576 358.585ZM346.294 358.562L323.62 358.585L346.294 358.562ZM386.587 358.632L406.555 358.609L386.587 358.632ZM386.776 362.961L386.587 358.632L386.776 362.961ZM323.62 358.585L386.587 358.632L323.62 358.585ZM323.662 362.516L386.776 362.938L323.662 362.516ZM406.786 362.587L346.378 362.212L406.786 362.587ZM346.357 362.236L323.641 362.54L346.357 362.236ZM386.776 362.961L406.786 362.61L386.776 362.961ZM406.786 362.587L406.576 358.585L406.786 362.587ZM346.357 362.236L346.273 358.562L346.357 362.236ZM343.798 358.562L343.735 354.958L343.798 358.562ZM431.432 358.609L431.159 354.537L431.432 358.609ZM407.982 354.139L431.159 354.537L407.982 354.139ZM343.714 354.958L315.461 354.654L343.714 354.958ZM315.503 358.585L408.233 358.632L315.503 358.585ZM408.212 358.655L407.982 354.139L408.212 358.655ZM315.482 354.654L407.982 354.139L315.482 354.654ZM315.503 358.585L315.482 354.654L315.503 358.585ZM343.798 358.562L315.503 358.585L343.798 358.562ZM431.159 354.514L343.735 354.958L431.159 354.514ZM431.432 358.609L343.798 358.562L431.432 358.609ZM408.212 358.655L431.411 358.609L408.212 358.655ZM452.302 260.797L479.15 257.38L452.302 260.797ZM452.742 266.389L452.302 260.797L452.742 266.389ZM479.695 263.16L452.742 266.389L479.695 263.16ZM479.15 257.38L479.695 263.16L479.15 257.38ZM452.302 260.797L478.458 273.643L452.302 260.797ZM502.977 276.124L478.919 278.557L502.977 276.124ZM478.898 278.534L478.437 273.643L478.898 278.534ZM479.695 263.16L502.977 276.124L479.695 263.16ZM502.453 271.069L502.977 276.1L502.453 271.069ZM479.15 257.38L502.453 271.093L479.15 257.38ZM452.742 266.389L478.919 278.534L452.742 266.389ZM478.458 273.643L502.453 271.069L478.458 273.643ZM382.308 354.373L380.148 354.397L382.308 354.373ZM399.613 354.654H401.689H399.613ZM380.148 354.397L399.613 354.677L380.148 354.397ZM386.147 336.051L379.456 336.262L386.147 336.051ZM405.192 337.642L386.147 336.051L405.192 337.642ZM398.795 337.829L405.171 337.642L398.795 337.829ZM379.456 336.262L398.795 337.829L379.456 336.262ZM380.148 354.397L379.456 336.285L380.148 354.397ZM399.613 354.654L398.795 337.829L399.613 354.654ZM386.231 338.11L386.147 336.074L386.231 338.11ZM405.276 339.561L405.171 337.666L405.276 339.561ZM386.231 338.11L405.276 339.561L386.231 338.11ZM401.689 354.654L400.955 339.655L401.689 354.654ZM381.679 338.227L400.934 339.655L381.679 338.227ZM382.308 354.373L381.679 338.227L382.308 354.373ZM401.689 354.654L382.329 354.373L401.689 354.654ZM405.276 339.561L400.934 339.678L405.276 339.561ZM386.231 338.11L381.679 338.251L386.231 338.11ZM402.528 354.584L404.101 354.607L402.528 354.584ZM405.947 354.584L402.528 354.607L405.947 354.584ZM404.101 354.607L407.499 354.584L404.101 354.607ZM407.52 354.607L405.968 354.584L407.52 354.607ZM407.52 354.607L406.954 344.007L407.52 354.607ZM406.954 344.007L405.402 343.913L406.954 344.007ZM405.947 354.584L405.402 343.937L405.947 354.584ZM405.402 343.913L402.004 343.984L405.402 343.913ZM402.528 354.584L402.004 343.984L402.528 354.584ZM402.004 343.984L403.577 344.077L402.004 343.984ZM403.577 344.077L406.954 344.007L403.577 344.077ZM404.101 354.607L403.556 344.077L404.101 354.607ZM398.522 354.537L400.137 354.56L398.522 354.537ZM401.983 354.514L398.522 354.537L401.983 354.514ZM400.137 354.56L403.577 354.537L400.137 354.56ZM403.577 354.537L401.962 354.514L403.577 354.537ZM403.577 354.537L403.032 343.773L403.577 354.537ZM403.032 343.773L401.437 343.679L403.032 343.773ZM401.983 354.514L401.437 343.679L401.983 354.514ZM401.437 343.679L397.998 343.75L401.437 343.679ZM398.522 354.537L397.998 343.75L398.522 354.537ZM397.998 343.75L399.613 343.843L397.998 343.75ZM399.613 343.843L403.032 343.773L399.613 343.843ZM400.137 354.56L399.613 343.843L400.137 354.56ZM394.369 354.467L396.047 354.49L394.369 354.467ZM397.872 354.443L394.369 354.467L397.872 354.443ZM396.047 354.49L399.529 354.467L396.047 354.49ZM399.529 354.467L397.872 354.443L399.529 354.467ZM399.529 354.467L399.004 343.539L399.529 354.467ZM399.004 343.539L397.347 343.445L399.004 343.539ZM397.872 354.443L397.347 343.445L397.872 354.443ZM397.347 343.445L393.886 343.516L397.347 343.445ZM394.369 354.467L393.865 343.516L394.369 354.467ZM393.865 343.516L395.543 343.609L393.865 343.516ZM395.543 343.609L399.004 343.539L395.543 343.609ZM396.047 354.49L395.543 343.609L396.047 354.49ZM390.09 354.397L391.831 354.42L390.09 354.397ZM393.614 354.397L390.09 354.42L393.614 354.397ZM391.831 354.443L395.355 354.42L391.831 354.443ZM395.334 354.42L393.614 354.397L395.334 354.42ZM395.334 354.42L394.809 343.305L395.334 354.42ZM394.83 343.305L393.11 343.211L394.83 343.305ZM393.614 354.397L393.11 343.211L393.614 354.397ZM393.11 343.188L389.608 343.258L393.11 343.188ZM390.09 354.397L389.608 343.258L390.09 354.397ZM389.608 343.282L391.327 343.375L389.608 343.282ZM391.327 343.375L394.83 343.305L391.327 343.375ZM391.831 354.443L391.348 343.375L391.831 354.443ZM373.918 338.461L364.647 338.719L373.918 338.461ZM374.506 354.771L373.918 338.461L374.506 354.771ZM353.782 354.514L374.506 354.771L353.782 354.514ZM353.342 336.987L373.918 338.461L353.342 336.987ZM353.782 354.514L353.342 336.987L353.782 354.514ZM365.151 354.818L344.05 354.56L365.151 354.818ZM344.05 354.56L343.714 337.291L344.05 354.56ZM364.668 338.719L343.714 337.291L364.668 338.719ZM365.151 354.818L364.647 338.719L365.151 354.818ZM344.05 354.56L353.782 354.514L344.05 354.56ZM343.714 337.291L353.363 336.987L343.714 337.291ZM374.506 354.771L365.151 354.818L374.506 354.771ZM384.762 314.102L448.841 310.054L384.762 314.102ZM414.169 331.699L415.868 361.534L414.169 331.699ZM450.12 361.697L447.813 330.482L450.12 361.697ZM447.813 330.458L414.19 331.675L447.813 330.458ZM384.909 317.799L398.816 317.003L384.909 317.799ZM384.909 317.799L384.762 314.078L384.909 317.799ZM386.734 361.393L385.371 328.633L386.734 361.393ZM417.295 337.572L418.679 361.557L417.295 337.572ZM441.856 361.651L440.136 336.917L441.856 361.651ZM440.136 336.917L417.295 337.572L440.136 336.917ZM398.333 320.396L398.711 328.095L398.333 320.396ZM385.056 321.098L384.909 317.799L385.056 321.098ZM398.711 328.072L386 328.61L398.711 328.072ZM385.371 328.657L385.056 321.122L385.371 328.657ZM386 328.61L385.979 327.931L386 328.61ZM385.056 321.098L385.685 321.075L385.056 321.098ZM385.664 321.075L398.333 320.396L385.664 321.075ZM398.228 327.393L397.914 321.098L398.228 327.393ZM385.706 321.754L385.685 321.075L385.706 321.754ZM385.706 321.754L385.958 327.931L385.706 321.754ZM386.252 327.931L386 321.754L386.252 327.931ZM385.706 321.754L386 321.73L385.706 321.754ZM634.113 362.516L608.125 362.399L634.113 362.516ZM607.181 356.269L633.043 356.222L607.181 356.269ZM480.912 361.838L476.087 308.322L480.912 361.838ZM477.598 308.228L476.108 308.322L477.598 308.228ZM481.205 313.564L485.673 361.861L481.205 313.564ZM565.546 362.212L558.477 309.211L565.546 362.212ZM558.477 309.211L481.205 313.564L558.477 309.211ZM485.841 320.584L489.742 361.885L485.841 320.584ZM505.117 361.931L500.817 319.858L505.117 361.931ZM500.817 319.858L485.841 320.56L500.817 319.858ZM504.362 361.019L500.251 320.771L504.362 361.019ZM500.272 320.771L486.554 321.403L500.272 320.771ZM486.554 321.403L490.308 360.972L486.554 321.403ZM490.308 360.972L504.383 361.019L490.308 360.972ZM550.779 269.642L491.945 275.679L550.779 269.642ZM477.598 308.228L474.808 277.457L477.598 308.228ZM555.226 303.314L477.577 308.228L555.226 303.314ZM480.891 302.753L549.982 297.932L480.891 302.753ZM549.982 297.932L547.088 275.609L549.982 297.932ZM547.088 275.609L478.982 282.161L547.088 275.609ZM478.982 282.137L480.891 302.753L478.982 282.137ZM366.892 315.225L366.64 307.573L366.892 315.225ZM462.936 309.141L460.419 278.908L462.936 309.141ZM390.614 286.069L366.032 288.596L390.614 286.069ZM366.892 315.225L384.762 314.102L366.892 315.225ZM448.82 310.03L462.915 309.141L448.82 310.03ZM366.116 291.497L367.416 291.38L366.116 291.497ZM439.465 302.144L438.207 284.407L439.465 302.144ZM367.94 307.48L367.416 291.38L367.94 307.48ZM437.976 281.225L460.419 278.932L437.976 281.225ZM438.207 284.407L437.976 281.225L438.207 284.407ZM366.116 291.497L366.032 288.596L366.116 291.497ZM472.627 308.533L462.936 309.141L472.627 308.533ZM429.355 282.114L428.16 264.19L429.355 282.114ZM491.945 275.679L488.903 245.282L491.945 275.679ZM428.16 264.166L427.719 257.497L428.16 264.166ZM427.719 257.521L427.488 253.94L427.719 257.521ZM427.719 257.521L429.02 257.333L427.719 257.521ZM484.415 257.029L483.722 249.892L484.415 257.029ZM429.46 264.002L429.02 257.333L429.46 264.002ZM401.5 276.943L397.893 277.364L401.5 276.943ZM397.893 277.364L397.221 263.862L397.893 277.364ZM397.221 263.839L400.808 263.371L397.221 263.839ZM400.808 263.371L401.5 276.943L400.808 263.371ZM402.717 276.802L402.004 263.207L402.717 276.802ZM402.004 263.207L405.632 262.715L402.004 263.207ZM406.367 276.381L402.696 276.802L406.367 276.381ZM405.632 262.715L406.367 276.381L405.632 262.715ZM406.849 262.575L410.541 262.084L406.849 262.575ZM407.604 276.241L406.849 262.552L407.604 276.241ZM411.317 275.819L407.604 276.241L411.317 275.819ZM410.541 262.084L411.317 275.843L410.541 262.084ZM411.778 261.92L415.512 261.428L411.778 261.92ZM415.512 261.405L416.33 275.258L415.512 261.405ZM416.33 275.258L412.575 275.679L416.33 275.258ZM412.554 275.679L411.757 261.896L412.554 275.679Z" stroke="#D9D9D9" stroke-width="0.3955" stroke-miterlimit="10"/>
<path d="M416.749 261.242L420.524 260.75L416.749 261.242ZM417.588 275.118L416.749 261.242L417.588 275.118ZM421.405 274.673L417.588 275.118L421.405 274.673ZM397.536 264.26L398.165 276.873L397.536 264.26ZM398.165 276.873L401.185 276.522L398.165 276.873ZM401.164 276.522L400.514 263.863L401.164 276.522ZM400.514 263.863L397.536 264.26L400.514 263.863ZM402.339 263.629L403.01 276.335L402.339 263.629ZM402.989 276.311L406.031 275.96L402.989 276.311ZM406.052 275.96L405.359 263.207L406.052 275.96ZM405.359 263.231L402.339 263.629L405.359 263.231ZM407.184 262.973L407.876 275.75L407.184 262.973ZM407.897 275.75L410.981 275.399L407.897 275.75ZM410.981 275.399L410.247 262.576L410.981 275.399ZM410.247 262.576L407.184 262.973L410.247 262.576ZM412.113 262.318L412.848 275.188L412.113 262.318ZM412.848 275.188L415.994 274.837L412.848 275.188ZM415.994 274.837L415.218 261.92L415.994 274.837ZM415.218 261.92L412.113 262.342L415.218 261.92ZM417.105 261.663L417.882 274.603L417.105 261.663ZM417.882 274.603L421.07 274.229L417.882 274.603ZM421.07 274.252L420.273 261.242L421.07 274.252ZM420.252 261.242L417.105 261.663L420.252 261.242ZM603.405 264.26L603.091 262.271L603.405 264.26ZM550.779 269.642L603.405 264.237L550.779 269.642ZM520.051 270.953L511.871 271.819L520.051 270.953ZM511.892 271.819L509.249 247.927L511.892 271.819ZM509.228 247.927L517.261 246.851L509.228 247.927ZM517.261 246.827L520.051 270.953L517.261 246.827ZM518.897 246.617L527.119 245.517L518.897 246.617ZM521.708 270.789L518.897 246.617L521.708 270.789ZM530.077 269.923L521.708 270.789L530.077 269.923ZM527.119 245.517L530.077 269.923L527.119 245.517ZM528.797 245.283L537.229 244.16L528.797 245.283ZM531.776 269.736L528.797 245.283L531.776 269.736ZM540.334 268.847L531.755 269.736L540.334 268.847ZM537.229 244.16L540.355 268.847L537.229 244.16ZM538.928 243.926L547.57 242.756L538.928 243.926ZM542.075 268.66L538.928 243.926L542.075 268.66ZM550.863 267.724L542.075 268.636L550.863 267.724ZM547.57 242.779L550.863 267.747L547.57 242.779ZM549.311 242.545L558.162 241.352L549.311 242.545ZM552.646 267.536L549.311 242.522L552.646 267.536ZM561.644 266.6L552.646 267.536L561.644 266.6ZM558.162 241.352L561.644 266.6L558.162 241.352ZM559.945 241.118L569.006 239.901L559.945 241.118ZM563.469 266.413L559.945 241.118L563.469 266.413ZM572.698 265.454L563.469 266.413L572.698 265.454ZM569.006 239.901L572.698 265.454L569.006 239.901ZM570.852 239.644L580.144 238.403L570.852 239.644ZM574.565 265.243L570.852 239.644L574.565 265.243ZM584.046 264.26L574.586 265.243L584.046 264.26ZM580.144 238.403L584.025 264.26L580.144 238.403ZM591.093 263.512L587.066 237.467L591.093 263.512ZM598.854 235.9L597.889 229.933L598.854 235.9ZM587.066 237.467L597.511 236.063L587.066 237.467ZM603.091 262.271L598.854 235.9L603.091 262.271ZM601.727 262.412L597.511 236.087L601.727 262.412ZM603.091 262.271L601.727 262.412L603.091 262.271ZM601.727 262.412L591.093 263.535L601.727 262.412ZM469.921 277.949L474.787 277.458L469.921 277.949ZM378.574 366.167L417.924 366.612L378.574 366.167ZM378.574 366.167L378.386 361.37L378.574 366.167ZM444.1 364.295L417.777 364.085L444.1 364.295ZM443.912 361.651L444.1 364.272L443.912 361.651ZM417.924 366.612L444.289 366.916L417.924 366.612ZM444.1 364.295L444.289 366.94L444.1 364.295ZM338.093 365.699L349.713 365.84L338.093 365.699ZM349.713 365.84L349.608 361.23L349.713 365.84ZM338.009 361.183L349.587 361.23L338.009 361.183ZM338.093 365.699L338.009 361.183L338.093 365.699ZM386 328.61L385.37 328.634L386 328.61ZM397.913 321.122L385.979 321.754L397.913 321.122ZM385.958 327.932L386.251 327.908L385.958 327.932ZM386.251 327.932L398.228 327.417L386.251 327.932ZM476.108 308.323L472.626 308.533L476.108 308.323ZM634.113 362.517L633.819 360.809L634.113 362.517ZM633.819 360.809L633.043 356.222L633.819 360.809ZM608.125 362.4L607.181 356.269L608.125 362.4ZM366.64 307.574L367.94 307.48L366.64 307.574ZM367.94 307.48L439.444 302.145L367.94 307.48ZM367.416 291.358L438.206 284.408L367.416 291.358ZM460.419 278.909L469.921 277.926L460.419 278.909ZM437.976 281.225L429.355 282.115L437.976 281.225ZM429.019 257.334L483.722 249.893L429.019 257.334ZM428.159 264.167L429.46 264.003L428.159 264.167ZM429.46 264.003L484.393 257.03L429.46 264.003ZM597.511 236.063L598.854 235.876L597.511 236.063ZM386.734 361.394L378.407 361.347L386.734 361.394ZM418.679 361.534H417.63H418.679ZM417.63 361.534L417.777 364.061L417.63 361.534ZM417.777 364.085L417.924 366.635L417.777 364.085ZM390.614 286.069L429.376 282.091L390.614 286.069ZM386.734 361.394L400.997 361.464L386.734 361.394ZM400.997 361.464L415.868 361.534L400.997 361.464ZM415.868 361.534H417.63H415.868ZM443.912 361.651H441.856H443.912ZM441.856 361.651L418.679 361.558L441.856 361.651ZM443.912 361.651L450.12 361.675L443.912 361.651ZM450.12 361.698L452.721 361.721L450.12 361.698ZM491.944 275.68L474.808 277.435L491.944 275.68ZM452.721 361.698L480.911 361.815L452.721 361.698ZM480.911 361.838L485.652 361.862L480.911 361.838ZM565.546 362.213L608.146 362.4L565.546 362.213ZM485.673 361.838L489.763 361.862L485.673 361.838ZM489.742 361.862L505.117 361.932L489.742 361.862ZM505.117 361.932L565.525 362.213L505.117 361.932ZM448.82 310.031L452.721 361.698L448.82 310.031ZM400.997 361.464L398.815 317.004L400.997 361.464ZM555.226 303.315L598.539 300.577L555.226 303.315ZM607.181 356.269L598.539 300.554L607.181 356.269ZM550.779 269.642L555.226 303.292L550.779 269.642ZM469.921 277.949L472.626 308.533L469.921 277.949ZM390.614 286.069L389.398 259.3L390.614 286.069ZM488.903 245.283L427.488 253.941L488.903 245.283ZM488.903 245.283L597.889 229.933L488.903 245.283ZM389.398 259.3L427.509 253.941L389.398 259.3ZM378.407 361.37L349.608 361.23L378.407 361.37Z" stroke="#D9D9D9" stroke-width="0.3955" stroke-miterlimit="10"/>
</svg>
